<?xml version="1.0" encoding="UTF-8" standalone="no"?>
<!DOCTYPE svg PUBLIC "-//W3C//DTD SVG 1.1//EN" "http://www.w3.org/Graphics/SVG/1.1/DTD/svg11.dtd">
<svg width="100%" height="100%" viewBox="0 0 123 123" version="1.1" xmlns="http://www.w3.org/2000/svg" xmlns:xlink="http://www.w3.org/1999/xlink" xml:space="preserve" xmlns:serif="http://www.serif.com/" style="fill-rule:evenodd;clip-rule:evenodd;stroke-linejoin:round;stroke-miterlimit:1.41421;">
    <g id="Layer-1" serif:id="Layer 1">
        <path d="M27.397,25.744c3.485,-2.095 6.771,-4.677 9.74,-7.357l-21.713,0l6.503,11.259c1.558,-1.321 3.366,-2.641 5.47,-3.902" style="fill:#136369;fill-rule:nonzero;"/>
        <path d="M85.081,55.033c-0.188,0 -0.387,0 -0.595,-0.02c0.069,0.903 -0.377,1.787 -1.192,2.303c-0.764,0.486 -1.459,0.715 -2.015,0.904c-0.923,0.317 -1.172,0.397 -1.678,1.876c-0.268,0.765 -1.192,2.542 -4.001,2.542c-0.685,0 -1.44,-0.109 -2.234,-0.278l-11.894,20.601l-0.02,-0.04l-5.401,-1.658c-0.278,-0.089 -2.532,-0.794 -5.619,-2.223l11.04,19.111l24.979,-43.267c-0.089,0.019 -0.168,0.039 -0.238,0.049c-0.347,0.07 -0.714,0.1 -1.132,0.1" style="fill:#136369;fill-rule:nonzero;"/>
        <path d="M65.483,18.387l-0.129,1.728l10.097,5.867l18.913,0l-5.678,9.839c0.585,0.129 1.121,0.239 1.598,0.348c1.886,0.407 3.524,0.764 4.726,1.052c0.506,0.119 0.993,0.238 1.43,0.368l11.079,-19.202l-42.036,0Z" style="fill:#136369;fill-rule:nonzero;"/>
        <path d="M87.514,37.847c-5.55,-1.202 -11.864,-2.661 -13.106,-3.575c-2.313,-1.687 1.847,-5.232 1.847,-5.232l-5.262,-3.058l-7.973,-4.637l0.219,-2.958l0.546,-7.506c-3.534,2.155 -8.707,6.771 -8.707,6.771l-1.291,-14.773c0,0 -5.292,7.843 -13.354,15.508c-2.79,2.661 -5.917,5.312 -9.273,7.595c-0.615,0.417 -1.241,0.834 -1.876,1.221c-0.239,0.159 -0.487,0.308 -0.735,0.457c-2.134,1.281 -3.951,2.621 -5.49,3.962c-8.569,7.446 -8.668,15.061 -8.668,15.419c3.088,-6.762 11.696,-9.998 11.696,-9.998c-5.54,14.316 0,29.547 0,29.547c0,-8.966 5.43,-9.234 6.096,-9.234l0.059,0c2.125,8.856 9.909,14.734 16.144,18.129c4.577,2.492 8.32,3.644 8.32,3.644c-1.569,-2.741 -2.234,-5.6 -2.244,-8.31c-0.02,-6.046 3.167,-11.309 6.593,-12.699c0.655,-0.258 1.41,-0.377 2.234,-0.377c3.544,0 8.24,2.105 11.268,2.552c0.377,0.069 0.725,0.099 1.043,0.099c0.943,0 1.618,-0.278 1.886,-1.042c1.231,-3.535 2.77,-2.771 4.617,-3.932c0.675,-0.427 -1.003,-1.172 -3.624,-1.916c-4.051,-1.172 -10.345,-2.343 -13.532,-2.343c-0.338,0 -0.636,0.01 -0.904,0.039c-0.228,0.03 -0.447,0.04 -0.635,0.04c-3.366,0 -0.755,-3.614 0.993,-4.19c0.079,-0.029 0.178,-0.04 0.307,-0.04c1.916,0 9.164,2.969 14.823,4.667c2.244,0.655 4.23,1.122 5.55,1.122c0.268,0 0.507,-0.02 0.715,-0.06c0.903,-0.178 1.936,-0.893 2.998,-1.906c3.644,-3.495 7.616,-10.504 7.616,-10.862c0,-0.069 -0.418,-0.198 -1.132,-0.387c-1.559,-0.387 -4.528,-1.023 -7.764,-1.737" style="fill:#2f3641;fill-rule:nonzero;"/>
        <path d="M23.52,94.404l0,23.352l14.685,0c0.229,-0.584 0.328,-1.298 0.328,-2.011c0,-0.714 -0.131,-1.427 -0.328,-1.946l-9.44,0l0,-5.87l7.473,0c0.197,-0.584 0.328,-1.2 0.328,-2.011c0,-0.779 -0.164,-1.362 -0.328,-1.914l-7.473,0l0,-5.643l9.112,0c0.197,-0.551 0.328,-1.297 0.328,-2.076c0,-0.713 -0.164,-1.394 -0.328,-1.881l-14.357,0Z" style="fill:#2f3641;fill-rule:nonzero;"/>
        <path d="M41.811,94.404l0,23.352l8.096,0c6.425,0 10.129,-3.276 10.129,-11.676c0,-8.4 -3.704,-11.676 -10.129,-11.676l-8.096,0Zm5.244,19.298l0,-15.244l2.655,0c2.951,0 4.786,1.298 4.786,7.622c0,6.259 -1.835,7.622 -4.786,7.622l-2.655,0Z" style="fill:#2f3641;fill-rule:nonzero;"/>
        <path d="M62.756,106.08c0,7.816 3.836,12 10.883,12c4.491,0 6.982,-1.297 6.982,-1.297l0,-12.649l-8.49,0c0,0 -0.328,0.714 -0.328,2.011c0,1.265 0.328,1.946 0.328,1.946l3.573,0l0,5.708c0,0 -0.819,0.097 -1.606,0.097c-3.573,0 -5.9,-1.654 -5.9,-7.784c0,-6.162 2.458,-7.913 6.031,-7.913c2.426,0 4.589,0.778 4.589,0.778c0.918,-0.908 1.442,-2.205 1.475,-3.6c0,0 -2.327,-1.297 -6.654,-1.297c-7.047,0 -10.883,4.184 -10.883,12Z" style="fill:#2f3641;fill-rule:nonzero;"/>
        <path d="M84.587,94.404l0,23.352l14.685,0c0.23,-0.584 0.328,-1.298 0.328,-2.011c0,-0.714 -0.131,-1.427 -0.328,-1.946l-9.44,0l0,-5.87l7.473,0c0.197,-0.584 0.328,-1.2 0.328,-2.011c0,-0.779 -0.164,-1.362 -0.328,-1.914l-7.473,0l0,-5.643l9.112,0c0.197,-0.551 0.328,-1.297 0.328,-2.076c0,-0.713 -0.164,-1.394 -0.328,-1.881l-14.357,0Z" style="fill:#2f3641;fill-rule:nonzero;"/>
    </g>
</svg>
