<svg clip-rule="evenodd" fill-rule="evenodd" stroke-linejoin="round" stroke-miterlimit="1.41421" viewBox="0 0 123 123" xmlns="http://www.w3.org/2000/svg"><g fill-rule="nonzero"><path d="m27.397 25.744c3.485-2.095 6.771-4.677 9.74-7.357h-21.713l6.503 11.259c1.558-1.321 3.366-2.641 5.47-3.902" fill="#136369"/><path d="m85.081 55.033c-.188 0-.387 0-.595-.02.069.903-.377 1.787-1.192 2.303-.764.486-1.459.715-2.015.904-.923.317-1.172.397-1.678 1.876-.268.765-1.192 2.542-4.001 2.542-.685 0-1.44-.109-2.234-.278l-11.894 20.601-.02-.04-5.401-1.658c-.278-.089-2.532-.794-5.619-2.223l11.04 19.111 24.979-43.267c-.089.019-.168.039-.238.049-.347.07-.714.1-1.132.1" fill="#136369"/><path d="m65.483 18.387-.129 1.728 10.097 5.867h18.913l-5.678 9.839c.585.129 1.121.239 1.598.348 1.886.407 3.524.764 4.726 1.052.506.119.993.238 1.43.368l11.079-19.202z" fill="#136369"/><g fill="#2f3641"><path d="m87.514 37.847c-5.55-1.202-11.864-2.661-13.106-3.575-2.313-1.687 1.847-5.232 1.847-5.232l-5.262-3.058-7.973-4.637.219-2.958.546-7.506c-3.534 2.155-8.707 6.771-8.707 6.771l-1.291-14.773s-5.292 7.843-13.354 15.508c-2.79 2.661-5.917 5.312-9.273 7.595-.615.417-1.241.834-1.876 1.221-.239.159-.487.308-.735.457-2.134 1.281-3.951 2.621-5.49 3.962-8.569 7.446-8.668 15.061-8.668 15.419 3.088-6.762 11.696-9.998 11.696-9.998-5.54 14.316 0 29.547 0 29.547 0-8.966 5.43-9.234 6.096-9.234h.059c2.125 8.856 9.909 14.734 16.144 18.129 4.577 2.492 8.32 3.644 8.32 3.644-1.569-2.741-2.234-5.6-2.244-8.31-.02-6.046 3.167-11.309 6.593-12.699.655-.258 1.41-.377 2.234-.377 3.544 0 8.24 2.105 11.268 2.552.377.069.725.099 1.043.099.943 0 1.618-.278 1.886-1.042 1.231-3.535 2.77-2.771 4.617-3.932.675-.427-1.003-1.172-3.624-1.916-4.051-1.172-10.345-2.343-13.532-2.343-.338 0-.636.01-.904.039-.228.03-.447.04-.635.04-3.366 0-.755-3.614.993-4.19.079-.029.178-.04.307-.04 1.916 0 9.164 2.969 14.823 4.667 2.244.655 4.23 1.122 5.55 1.122.268 0 .507-.02.715-.06.903-.178 1.936-.893 2.998-1.906 3.644-3.495 7.616-10.504 7.616-10.862 0-.069-.418-.198-1.132-.387-1.559-.387-4.528-1.023-7.764-1.737"/><path d="m23.52 94.404v23.352h14.685c.229-.584.328-1.298.328-2.011 0-.714-.131-1.427-.328-1.946h-9.44v-5.87h7.473c.197-.584.328-1.2.328-2.011 0-.779-.164-1.362-.328-1.914h-7.473v-5.643h9.112c.197-.551.328-1.297.328-2.076 0-.713-.164-1.394-.328-1.881z"/><path d="m41.811 94.404v23.352h8.096c6.425 0 10.129-3.276 10.129-11.676s-3.704-11.676-10.129-11.676zm5.244 19.298v-15.244h2.655c2.951 0 4.786 1.298 4.786 7.622 0 6.259-1.835 7.622-4.786 7.622z"/><path d="m62.756 106.08c0 7.816 3.836 12 10.883 12 4.491 0 6.982-1.297 6.982-1.297v-12.649h-8.49s-.328.714-.328 2.011c0 1.265.328 1.946.328 1.946h3.573v5.708s-.819.097-1.606.097c-3.573 0-5.9-1.654-5.9-7.784 0-6.162 2.458-7.913 6.031-7.913 2.426 0 4.589.778 4.589.778.918-.908 1.442-2.205 1.475-3.6 0 0-2.327-1.297-6.654-1.297-7.047 0-10.883 4.184-10.883 12z"/><path d="m84.587 94.404v23.352h14.685c.23-.584.328-1.298.328-2.011 0-.714-.131-1.427-.328-1.946h-9.44v-5.87h7.473c.197-.584.328-1.2.328-2.011 0-.779-.164-1.362-.328-1.914h-7.473v-5.643h9.112c.197-.551.328-1.297.328-2.076 0-.713-.164-1.394-.328-1.881z"/></g></g></svg>