<?xml version="1.0" encoding="UTF-8" standalone="no"?>
<!DOCTYPE svg PUBLIC "-//W3C//DTD SVG 1.1//EN" "http://www.w3.org/Graphics/SVG/1.1/DTD/svg11.dtd">
<svg width="100%" height="100%" viewBox="0 0 450 300" version="1.1" xmlns="http://www.w3.org/2000/svg" xmlns:xlink="http://www.w3.org/1999/xlink" xml:space="preserve" xmlns:serif="http://www.serif.com/" style="fill-rule:evenodd;clip-rule:evenodd;stroke-linejoin:round;stroke-miterlimit:1.41421;">
    <g transform="matrix(0.437351,0,0,0.518312,125.288,117.221)">
        <g id="Hintergrund">
            <rect x="-367.355" y="-298.463" width="1191.25" height="722.052" style="fill:rgb(255,247,239);"/>
        </g>
    </g>
    <g id="Ebene-1" serif:id="Ebene 1" transform="matrix(4.16667,0,0,4.16667,0,-86.2042)">
        <g transform="matrix(0.24,0,0,0.24,-5.2336,-6.73598)">
            <path d="M100.075,353.97C97.915,353.97 96.435,353.53 95.475,353.05C94.835,351.89 94.435,349.29 94.315,348.09C94.315,348.09 93.955,347.89 93.475,347.89C93.195,347.89 92.875,347.97 92.595,348.17C92.515,348.97 92.475,349.73 92.475,350.57C92.475,351.81 92.555,353.17 92.755,354.81C94.035,355.29 96.635,355.97 99.715,355.97C105.555,355.97 108.915,352.33 108.915,348.29C108.915,343.97 106.115,342.45 102.235,340.53L101.835,340.33C98.555,338.69 96.195,337.57 96.195,334.89C96.195,332.01 98.875,330.69 101.515,330.69C103.235,330.69 104.515,331.09 105.235,331.45C105.915,332.49 106.315,335.37 106.475,336.49C106.475,336.49 106.835,336.69 107.315,336.69C107.595,336.69 107.915,336.65 108.195,336.45C108.275,335.61 108.315,334.85 108.315,334.01C108.315,332.77 108.235,331.45 108.035,329.77C106.915,329.41 104.555,328.77 101.715,328.77C96.355,328.81 92.995,331.77 92.995,335.85C92.995,339.77 96.275,341.29 99.555,342.81L100.235,343.13C103.835,344.81 105.715,346.17 105.715,349.17C105.715,351.65 103.795,353.97 100.075,353.97Z" style="fill:rgb(135,32,84);fill-rule:nonzero;"/>
            <path d="M126.955,352.41C125.955,352.97 124.075,353.53 122.555,353.53C118.515,353.53 115.875,351.61 115.875,346.17L115.875,345.57L127.115,345.65C127.395,344.69 127.515,343.73 127.515,342.85C127.515,339.33 125.435,336.57 121.475,336.57C116.995,336.57 112.715,339.73 112.715,346.97C112.715,353.89 116.955,355.97 120.675,355.97C124.195,355.97 126.915,354.17 127.435,353.73L126.955,352.41ZM120.635,338.61C123.235,338.61 124.355,340.21 124.355,342.29C124.355,342.69 124.315,343.09 124.235,343.49L115.955,343.93C116.315,340.29 118.035,338.61 120.635,338.61Z" style="fill:rgb(135,32,84);fill-rule:nonzero;"/>
            <path d="M135.355,326.37C132.755,326.65 129.995,326.89 129.995,326.89C129.995,326.89 129.355,327.29 129.355,328.01C129.355,328.17 129.395,328.33 129.435,328.41C129.435,328.41 130.875,328.53 132.315,328.77L132.315,354.93C134.395,355.65 136.755,355.81 138.515,355.81C143.075,355.81 147.795,352.61 147.795,345.37C147.795,338.73 144.435,336.57 141.075,336.57C138.555,336.57 136.075,338.25 135.355,338.73L135.355,326.37ZM139.115,353.69C137.355,353.69 136.275,353.33 135.355,352.97L135.355,340.33C136.315,339.69 137.955,339.09 139.595,339.09C142.995,339.09 144.555,342.13 144.555,346.49C144.555,352.01 142.515,353.69 139.115,353.69Z" style="fill:rgb(135,32,84);fill-rule:nonzero;"/>
            <path d="M158.875,336.57C156.555,336.57 153.635,337.77 151.955,339.13L152.475,340.53C153.795,339.81 155.235,339.05 157.635,339.05C160.835,339.05 161.195,340.45 161.195,343.61L161.195,344.73L158.515,345.17C154.195,345.89 150.835,347.73 150.835,351.37C150.835,354.05 152.675,355.97 155.755,355.97C158.195,355.97 160.435,354.41 161.355,353.69C161.675,355.21 162.355,355.97 163.915,355.97C165.515,355.97 166.875,355.29 166.875,355.29L166.715,354.37C166.715,354.37 166.315,354.41 166.155,354.41C164.435,354.41 164.115,353.61 164.115,351.01L164.155,342.29C164.155,339.17 163.355,336.57 158.875,336.57ZM156.995,353.45C155.155,353.45 153.995,352.61 153.995,350.69C153.995,348.05 157.195,347.29 159.675,346.73L161.195,346.37L161.155,350.69C161.155,351.29 161.155,351.85 161.195,352.33C160.115,352.97 158.755,353.45 156.995,353.45Z" style="fill:rgb(135,32,84);fill-rule:nonzero;"/>
            <path d="M169.515,354.93C170.555,355.41 172.955,355.97 174.955,355.97C179.635,355.97 182.195,353.01 182.195,349.97C182.195,347.33 180.515,346.13 177.595,344.81C175.115,343.69 172.595,343.09 172.595,341.13C172.595,339.49 173.875,338.37 176.155,338.37C177.475,338.37 178.315,338.53 178.875,338.73C179.475,339.69 179.795,341.53 179.915,342.25C180.155,342.41 180.435,342.49 180.675,342.49C181.035,342.49 181.395,342.33 181.595,342.05C181.635,341.65 181.635,341.17 181.635,340.69C181.635,339.65 181.555,338.49 181.435,337.53C180.355,337.09 178.515,336.57 176.475,336.57C172.435,336.57 169.595,338.61 169.595,341.85C169.595,344.97 171.955,345.93 174.955,347.17C177.075,348.05 179.035,348.85 179.035,350.89C179.035,352.25 178.195,354.09 175.315,354.09C174.155,354.09 172.955,353.93 172.155,353.65C171.635,352.77 171.235,351.25 170.995,349.81C170.755,349.65 170.515,349.57 170.275,349.57C169.875,349.57 169.515,349.73 169.315,350.01C169.275,350.41 169.275,350.89 169.275,351.41C169.275,352.53 169.355,354.05 169.515,354.93Z" style="fill:rgb(135,32,84);fill-rule:nonzero;"/>
            <path d="M190.435,337.01L190.435,332.49L188.795,332.73L187.035,336.89L184.435,338.29L184.595,339.09L187.395,339.09L187.395,351.21C187.395,354.17 187.715,355.85 190.995,355.85C193.275,355.85 195.355,355.21 196.435,354.73L196.155,353.37C195.515,353.53 194.035,353.69 192.995,353.69C190.635,353.69 190.435,352.65 190.435,350.09L190.435,339.09L195.355,339.09C195.755,338.73 196.315,338.13 196.315,336.89L190.435,337.01Z" style="fill:rgb(135,32,84);fill-rule:nonzero;"/>
            <path d="M204.195,336.77C201.515,337.05 198.475,337.29 198.475,337.29C198.475,337.29 197.835,337.73 197.835,338.45C197.835,338.57 197.875,338.77 197.915,338.85C197.915,338.85 199.715,339.05 201.155,339.29L201.155,353.69L199.035,354.21C199.035,354.21 198.355,354.57 198.355,355.25C198.355,355.41 198.395,355.57 198.435,355.65C198.435,355.65 201.075,355.53 202.715,355.53C204.195,355.53 206.435,355.65 206.435,355.65C206.875,355.09 207.035,354.21 207.035,354.21C207.035,354.21 205.355,354.01 204.195,353.69L204.195,336.77ZM200.035,329.45C200.035,330.65 200.875,331.69 202.155,331.69C203.435,331.69 204.275,330.77 204.275,329.53C204.275,328.21 203.555,327.21 202.195,327.21C200.915,327.21 200.035,328.17 200.035,329.45Z" style="fill:rgb(135,32,84);fill-rule:nonzero;"/>
            <path d="M217.515,336.57C215.195,336.57 212.275,337.77 210.595,339.13L211.115,340.53C212.435,339.81 213.875,339.05 216.275,339.05C219.475,339.05 219.835,340.45 219.835,343.61L219.835,344.73L217.155,345.17C212.835,345.89 209.475,347.73 209.475,351.37C209.475,354.05 211.315,355.97 214.395,355.97C216.835,355.97 219.075,354.41 219.995,353.69C220.315,355.21 220.995,355.97 222.555,355.97C224.155,355.97 225.515,355.29 225.515,355.29L225.355,354.37C225.355,354.37 224.955,354.41 224.795,354.41C223.075,354.41 222.755,353.61 222.755,351.01L222.795,342.29C222.795,339.17 221.995,336.57 217.515,336.57ZM215.635,353.45C213.795,353.45 212.635,352.61 212.635,350.69C212.635,348.05 215.835,347.29 218.315,346.73L219.835,346.37L219.795,350.69C219.795,351.29 219.795,351.85 219.835,352.33C218.755,352.97 217.395,353.45 215.635,353.45Z" style="fill:rgb(135,32,84);fill-rule:nonzero;"/>
            <path d="M227.355,338.85C227.355,338.85 229.155,339.05 230.595,339.29L230.595,353.69L228.475,354.21C228.475,354.21 227.795,354.57 227.795,355.25C227.795,355.41 227.835,355.57 227.875,355.65C227.875,355.65 230.515,355.53 232.155,355.53C233.635,355.53 235.875,355.65 235.875,355.65C236.315,355.09 236.475,354.21 236.475,354.21C236.475,354.21 234.795,354.01 233.635,353.69L233.635,340.33C234.595,339.65 236.395,339.09 238.035,339.09C241.555,339.09 242.115,340.89 242.115,343.61L242.115,353.69L239.995,354.21C239.995,354.21 239.315,354.57 239.315,355.25C239.315,355.37 239.315,355.49 239.355,355.65C239.355,355.65 242.115,355.53 243.755,355.53C245.235,355.53 247.435,355.65 247.435,355.65C247.875,355.09 248.035,354.21 248.035,354.21C248.035,354.21 246.555,354.01 245.155,353.69L245.155,342.81C245.155,339.33 244.235,336.57 239.755,336.57C237.355,336.57 234.995,337.77 233.515,338.81C233.515,338.81 233.475,337.65 233.475,336.77C230.875,337.05 227.915,337.29 227.915,337.29C227.915,337.29 227.275,337.73 227.275,338.45C227.275,338.57 227.315,338.77 227.355,338.85Z" style="fill:rgb(135,32,84);fill-rule:nonzero;"/>
            <path d="M266.555,353.97C264.395,353.97 262.915,353.53 261.955,353.05C261.315,351.89 260.915,349.29 260.795,348.09C260.795,348.09 260.435,347.89 259.955,347.89C259.675,347.89 259.355,347.97 259.075,348.17C258.995,348.97 258.955,349.73 258.955,350.57C258.955,351.81 259.035,353.17 259.235,354.81C260.515,355.29 263.115,355.97 266.195,355.97C272.035,355.97 275.395,352.33 275.395,348.29C275.395,343.97 272.595,342.45 268.715,340.53L268.315,340.33C265.035,338.69 262.675,337.57 262.675,334.89C262.675,332.01 265.355,330.69 267.995,330.69C269.715,330.69 270.995,331.09 271.715,331.45C272.395,332.49 272.795,335.37 272.955,336.49C272.955,336.49 273.315,336.69 273.795,336.69C274.075,336.69 274.395,336.65 274.675,336.45C274.755,335.61 274.795,334.85 274.795,334.01C274.795,332.77 274.715,331.45 274.515,329.77C273.395,329.41 271.035,328.77 268.195,328.77C262.835,328.81 259.475,331.77 259.475,335.85C259.475,339.77 262.755,341.29 266.035,342.81L266.715,343.13C270.315,344.81 272.195,346.17 272.195,349.17C272.195,351.65 270.275,353.97 266.555,353.97Z" style="fill:rgb(135,32,84);fill-rule:nonzero;"/>
            <path d="M287.355,355.97C291.635,355.97 296.075,352.81 296.075,345.57C296.075,339.01 292.235,336.57 287.955,336.57C283.635,336.57 279.195,339.77 279.195,346.97C279.195,353.53 283.075,355.97 287.355,355.97ZM282.475,345.85C282.475,340.37 284.435,338.69 287.475,338.69C291.315,338.69 292.795,342.21 292.795,346.73C292.795,352.21 290.875,353.85 287.835,353.85C283.995,353.85 282.475,350.37 282.475,345.85Z" style="fill:rgb(135,32,84);fill-rule:nonzero;"/>
            <path d="M304.715,339.09L308.995,339.09C308.995,339.09 309.955,338.21 309.955,336.89L304.715,337.01L304.715,333.29C304.715,330.29 305.115,328.89 307.155,328.89C308.835,328.89 310.155,329.45 310.955,329.85C311.395,329.37 311.795,328.53 311.795,327.73C311.795,327.45 311.755,327.21 311.675,326.97C311.315,326.85 310.195,326.65 309.195,326.65C304.475,326.65 301.675,330.45 301.675,334.41L301.675,337.05C301.675,337.05 300.235,337.65 299.155,338.33L299.315,339.09L301.675,339.09L301.675,353.69L299.555,354.21C299.555,354.21 298.875,354.57 298.875,355.25C298.875,355.37 298.915,355.53 298.955,355.65C298.955,355.65 301.715,355.53 303.355,355.53C304.835,355.53 307.755,355.65 307.755,355.65C308.195,355.09 308.355,354.13 308.355,354.13C308.355,354.13 306.115,353.93 304.715,353.61L304.715,339.09Z" style="fill:rgb(135,32,84);fill-rule:nonzero;"/>
            <path d="M317.715,337.01L317.715,332.49L316.075,332.73L314.315,336.89L311.715,338.29L311.875,339.09L314.675,339.09L314.675,351.21C314.675,354.17 314.995,355.85 318.275,355.85C320.555,355.85 322.635,355.21 323.715,354.73L323.435,353.37C322.795,353.53 321.315,353.69 320.275,353.69C317.915,353.69 317.715,352.65 317.715,350.09L317.715,339.09L322.635,339.09C323.035,338.73 323.595,338.13 323.595,336.89L317.715,337.01Z" style="fill:rgb(135,32,84);fill-rule:nonzero;"/>
            <path d="M331.715,355.57L333.995,355.57L339.315,342.01L344.555,355.57L346.755,355.57L352.155,338.93L354.075,338.45C354.515,337.89 354.675,337.05 354.675,337.05L347.555,337.05C347.555,337.05 346.875,337.37 346.875,338.05C346.875,338.17 346.915,338.37 346.955,338.45L349.955,338.93L345.955,351.73L340.515,337.05L339.195,337.05L333.595,351.89L329.515,338.93C330.475,338.77 332.315,338.45 332.315,338.45C332.755,337.89 332.915,337.05 332.915,337.05L324.515,337.05C324.515,337.05 323.835,337.37 323.835,338.05C323.835,338.17 323.875,338.37 323.915,338.45L326.235,338.93L331.715,355.57Z" style="fill:rgb(135,32,84);fill-rule:nonzero;"/>
            <path d="M363.595,336.57C361.275,336.57 358.355,337.77 356.675,339.13L357.195,340.53C358.515,339.81 359.955,339.05 362.355,339.05C365.555,339.05 365.915,340.45 365.915,343.61L365.915,344.73L363.235,345.17C358.915,345.89 355.555,347.73 355.555,351.37C355.555,354.05 357.395,355.97 360.475,355.97C362.915,355.97 365.155,354.41 366.075,353.69C366.395,355.21 367.075,355.97 368.635,355.97C370.235,355.97 371.595,355.29 371.595,355.29L371.435,354.37C371.435,354.37 371.035,354.41 370.875,354.41C369.155,354.41 368.835,353.61 368.835,351.01L368.875,342.29C368.875,339.17 368.075,336.57 363.595,336.57ZM361.715,353.45C359.875,353.45 358.715,352.61 358.715,350.69C358.715,348.05 361.915,347.29 364.395,346.73L365.915,346.37L365.875,350.69C365.875,351.29 365.875,351.85 365.915,352.33C364.835,352.97 363.475,353.45 361.715,353.45Z" style="fill:rgb(135,32,84);fill-rule:nonzero;"/>
            <path d="M379.555,336.77C376.955,337.05 373.995,337.29 373.995,337.29C373.995,337.29 373.355,337.73 373.355,338.45C373.355,338.57 373.395,338.77 373.435,338.85C373.435,338.85 375.235,339.05 376.675,339.29L376.675,353.69L374.555,354.21C374.555,354.21 373.875,354.57 373.875,355.25C373.875,355.41 373.915,355.57 373.955,355.65C373.955,355.65 376.595,355.53 378.235,355.53C379.715,355.53 382.755,355.65 382.755,355.65C383.195,355.09 383.355,354.17 383.355,354.17C383.355,354.17 381.075,353.97 379.715,353.65L379.715,341.77C381.115,340.13 382.395,339.73 384.595,339.73C385.355,339.73 385.955,339.81 386.395,339.89C386.675,339.37 386.915,338.53 386.915,337.81C386.915,337.53 386.875,337.25 386.795,337.01C386.475,336.89 385.995,336.77 385.075,336.77C382.515,336.77 380.795,338.85 379.555,340.45L379.555,336.77Z" style="fill:rgb(135,32,84);fill-rule:nonzero;"/>
            <path d="M402.755,352.41C401.755,352.97 399.875,353.53 398.355,353.53C394.315,353.53 391.675,351.61 391.675,346.17L391.675,345.57L402.915,345.65C403.195,344.69 403.315,343.73 403.315,342.85C403.315,339.33 401.235,336.57 397.275,336.57C392.795,336.57 388.515,339.73 388.515,346.97C388.515,353.89 392.755,355.97 396.475,355.97C399.995,355.97 402.715,354.17 403.235,353.73L402.755,352.41ZM396.435,338.61C399.035,338.61 400.155,340.21 400.155,342.29C400.155,342.69 400.115,343.09 400.035,343.49L391.755,343.93C392.115,340.29 393.835,338.61 396.435,338.61Z" style="fill:rgb(135,32,84);fill-rule:nonzero;"/>
        </g>
        <g transform="matrix(0.24,0,0,0.24,-12.432,-16.6114)">
            <path d="M122.988,408.614L122.988,423.734L131.535,423.734C131.619,423.524 131.661,423.293 131.661,423.062C131.661,422.831 131.619,422.621 131.535,422.432L124.542,422.432L124.542,416.72L130.275,416.72C130.359,416.51 130.401,416.3 130.401,416.048C130.401,415.838 130.359,415.628 130.275,415.439L124.542,415.439L124.542,409.916L131.325,409.916C131.409,409.727 131.451,409.496 131.451,409.244C131.451,408.992 131.409,408.803 131.325,408.614L122.988,408.614Z" style="fill:rgb(74,34,51);fill-rule:nonzero;"/>
            <path d="M135.819,414.515L135.819,412.793C135.819,412.793 135.588,412.688 135.063,412.688C134.538,412.688 134.307,412.793 134.307,412.793L134.307,423.629C134.307,423.629 134.538,423.734 135.063,423.734C135.588,423.734 135.819,423.629 135.819,423.629L135.819,415.964C136.449,414.704 137.373,413.864 138.339,413.864C138.906,413.864 139.305,413.99 139.767,414.284C140.187,413.948 140.397,413.549 140.46,413.003C140.166,412.814 139.557,412.499 138.654,412.499C137.793,412.499 136.701,412.898 135.819,414.515Z" style="fill:rgb(74,34,51);fill-rule:nonzero;"/>
            <path d="M143.022,411.428L143.022,412.688L141.594,412.688C141.552,412.814 141.51,413.003 141.51,413.276C141.51,413.549 141.552,413.738 141.594,413.885L143.022,413.885L143.022,423.629C143.022,423.629 143.253,423.734 143.778,423.734C144.303,423.734 144.534,423.629 144.534,423.629L144.534,413.885L147.495,413.885C147.537,413.738 147.6,413.549 147.6,413.297C147.6,413.024 147.537,412.835 147.495,412.688L144.534,412.688L144.534,411.323C144.534,409.958 144.912,409.223 146.466,409.223C147.432,409.223 148.083,409.454 148.083,409.454C148.356,409.16 148.482,408.782 148.482,408.341C148.482,408.341 147.6,407.984 146.34,407.984C143.778,407.984 143.022,409.391 143.022,411.428Z" style="fill:rgb(74,34,51);fill-rule:nonzero;"/>
            <path d="M149.805,413.192C149.805,413.255 149.784,413.528 149.91,413.843C150.036,414.137 150.225,414.284 150.267,414.305C150.267,414.305 151.632,413.78 153.207,413.78C154.929,413.78 155.685,414.557 155.685,416.342L155.685,417.476C155.16,417.413 154.11,417.308 152.934,417.308C150.288,417.308 148.965,418.379 148.965,420.584C148.965,422.789 150.267,423.944 152.22,423.944C153.9,423.944 155.16,423.272 155.748,422.054L155.979,423.629C155.979,423.629 156.21,423.734 156.588,423.734C157.008,423.734 157.197,423.629 157.197,423.629L157.197,416.72C157.197,413.927 156.399,412.478 153.396,412.478C151.401,412.478 149.805,413.192 149.805,413.192ZM155.685,418.568L155.685,419.408C155.685,421.298 154.551,422.726 152.703,422.726C151.38,422.726 150.54,422.096 150.54,420.584C150.54,419.03 151.401,418.4 153.144,418.4C154.152,418.4 155.202,418.526 155.685,418.568Z" style="fill:rgb(74,34,51);fill-rule:nonzero;"/>
            <path d="M168.726,415.628C168.726,413.738 167.55,412.478 165.492,412.478C164.022,412.478 162.825,413.087 162.006,414.116L162.006,408.089C162.006,408.089 161.754,407.984 161.25,407.984C160.725,407.984 160.494,408.089 160.494,408.089L160.494,423.629C160.494,423.629 160.725,423.734 161.25,423.734C161.754,423.734 162.006,423.629 162.006,423.629L162.006,415.649C162.636,414.452 163.791,413.738 164.946,413.738C166.458,413.738 167.214,414.473 167.214,415.922L167.214,423.629C167.214,423.629 167.445,423.734 167.97,423.734C168.453,423.734 168.726,423.629 168.726,423.629L168.726,415.628Z" style="fill:rgb(74,34,51);fill-rule:nonzero;"/>
            <path d="M173.535,414.515L173.535,412.793C173.535,412.793 173.304,412.688 172.779,412.688C172.254,412.688 172.023,412.793 172.023,412.793L172.023,423.629C172.023,423.629 172.254,423.734 172.779,423.734C173.304,423.734 173.535,423.629 173.535,423.629L173.535,415.964C174.165,414.704 175.089,413.864 176.055,413.864C176.622,413.864 177.021,413.99 177.483,414.284C177.903,413.948 178.113,413.549 178.176,413.003C177.882,412.814 177.273,412.499 176.37,412.499C175.509,412.499 174.417,412.898 173.535,414.515Z" style="fill:rgb(74,34,51);fill-rule:nonzero;"/>
            <path d="M180.15,420.794C180.15,422.684 181.326,423.944 183.384,423.944C184.833,423.944 186.051,423.335 186.87,422.306L186.87,423.629C186.87,423.629 187.122,423.734 187.626,423.734C188.151,423.734 188.382,423.629 188.382,423.629L188.382,412.793C188.382,412.793 188.151,412.688 187.626,412.688C187.122,412.688 186.87,412.793 186.87,412.793L186.87,420.773C186.219,421.991 185.064,422.684 183.951,422.684C182.418,422.684 181.662,421.949 181.662,420.5L181.662,412.793C181.662,412.793 181.431,412.688 180.906,412.688C180.423,412.688 180.15,412.793 180.15,412.793L180.15,420.794Z" style="fill:rgb(74,34,51);fill-rule:nonzero;"/>
            <path d="M199.974,415.628C199.974,413.738 198.798,412.478 196.74,412.478C195.27,412.478 194.073,413.087 193.254,414.116L193.254,412.793C193.254,412.793 193.002,412.688 192.498,412.688C191.973,412.688 191.742,412.793 191.742,412.793L191.742,423.629C191.742,423.629 191.973,423.734 192.498,423.734C193.002,423.734 193.254,423.629 193.254,423.629L193.254,415.649C193.884,414.452 195.039,413.738 196.194,413.738C197.706,413.738 198.462,414.473 198.462,415.922L198.462,423.629C198.462,423.629 198.693,423.734 199.218,423.734C199.701,423.734 199.974,423.629 199.974,423.629L199.974,415.628Z" style="fill:rgb(74,34,51);fill-rule:nonzero;"/>
            <path d="M209.067,412.982C208.458,412.667 207.702,412.478 206.799,412.478C204.258,412.478 202.83,413.885 202.83,416.174C202.83,417.728 203.481,418.883 204.699,419.45C204.258,419.996 203.712,420.857 203.712,421.76C203.712,422.306 203.901,422.684 204.195,422.978C203.67,423.314 202.347,424.343 202.347,426.002C202.347,427.682 203.628,428.984 206.652,428.984C210.054,428.984 211.902,427.43 211.902,425.477C211.902,421.235 205.266,423.44 205.119,421.298C205.098,420.647 205.413,420.101 205.686,419.744C206.001,419.828 206.4,419.849 206.799,419.849C209.382,419.849 210.768,418.463 210.768,416.174C210.768,415.208 210.516,414.41 210.033,413.822L211.923,413.78C212.07,413.402 212.07,412.856 211.923,412.499L209.067,412.982ZM209.277,416.153C209.277,417.896 208.29,418.736 206.799,418.736C205.329,418.736 204.321,417.896 204.321,416.153C204.321,414.431 205.329,413.591 206.799,413.591C208.29,413.591 209.277,414.431 209.277,416.153ZM210.432,425.645C210.432,426.947 209.025,427.85 206.694,427.85C204.783,427.85 203.859,426.968 203.859,425.708C203.859,424.847 204.342,423.986 205.119,423.44C207.051,424.091 210.432,423.503 210.432,425.645Z" style="fill:rgb(74,34,51);fill-rule:nonzero;"/>
            <path d="M220.722,417.077C220.722,417.077 220.449,416.972 219.945,416.972C219.42,416.972 219.168,417.077 219.168,417.077L219.168,418.442C219.168,418.442 219.42,418.568 219.945,418.568C220.449,418.568 220.722,418.442 220.722,418.442L220.722,417.077Z" style="fill:rgb(74,34,51);fill-rule:nonzero;"/>
            <path d="M232.986,415.229L230.844,415.229L230.844,408.74C230.844,408.74 230.592,408.614 230.088,408.614C229.563,408.614 229.29,408.74 229.29,408.74L229.29,423.608C229.29,423.608 229.563,423.734 230.067,423.734C230.613,423.734 230.844,423.608 230.844,423.608L230.844,416.531L233.007,416.531L237.942,423.608C237.942,423.608 238.299,423.734 238.866,423.734C239.475,423.734 239.769,423.608 239.769,423.608L234.288,415.712L239.16,408.74C238.992,408.677 238.677,408.614 238.32,408.614C237.963,408.614 237.69,408.677 237.522,408.74L232.986,415.229Z" style="fill:rgb(74,34,51);fill-rule:nonzero;"/>
            <path d="M243.444,408.089C243.444,408.089 243.192,407.984 242.688,407.984C242.142,407.984 241.932,408.089 241.932,408.089L241.932,423.629C241.932,423.629 242.142,423.734 242.688,423.734C243.192,423.734 243.444,423.629 243.444,423.629L243.444,408.089Z" style="fill:rgb(74,34,51);fill-rule:nonzero;"/>
            <path d="M247.035,413.192C247.035,413.255 247.014,413.528 247.14,413.843C247.266,414.137 247.455,414.284 247.497,414.305C247.497,414.305 248.862,413.78 250.437,413.78C252.159,413.78 252.915,414.557 252.915,416.342L252.915,417.476C252.39,417.413 251.34,417.308 250.164,417.308C247.518,417.308 246.195,418.379 246.195,420.584C246.195,422.789 247.497,423.944 249.45,423.944C251.13,423.944 252.39,423.272 252.978,422.054L253.209,423.629C253.209,423.629 253.44,423.734 253.818,423.734C254.238,423.734 254.427,423.629 254.427,423.629L254.427,416.72C254.427,413.927 253.629,412.478 250.626,412.478C248.631,412.478 247.035,413.192 247.035,413.192ZM252.915,418.568L252.915,419.408C252.915,421.298 251.781,422.726 249.933,422.726C248.61,422.726 247.77,422.096 247.77,420.584C247.77,419.03 248.631,418.4 250.374,418.4C251.382,418.4 252.432,418.526 252.915,418.568Z" style="fill:rgb(74,34,51);fill-rule:nonzero;"/>
            <path d="M259.236,414.515L259.236,412.793C259.236,412.793 259.005,412.688 258.48,412.688C257.955,412.688 257.724,412.793 257.724,412.793L257.724,423.629C257.724,423.629 257.955,423.734 258.48,423.734C259.005,423.734 259.236,423.629 259.236,423.629L259.236,415.964C259.866,414.704 260.79,413.864 261.756,413.864C262.323,413.864 262.722,413.99 263.184,414.284C263.604,413.948 263.814,413.549 263.877,413.003C263.583,412.814 262.974,412.499 262.071,412.499C261.21,412.499 260.118,412.898 259.236,414.515Z" style="fill:rgb(74,34,51);fill-rule:nonzero;"/>
            <path d="M274.167,415.628C274.167,413.738 272.991,412.478 270.933,412.478C269.463,412.478 268.266,413.087 267.447,414.116L267.447,408.089C267.447,408.089 267.195,407.984 266.691,407.984C266.166,407.984 265.935,408.089 265.935,408.089L265.935,423.629C265.935,423.629 266.166,423.734 266.691,423.734C267.195,423.734 267.447,423.629 267.447,423.629L267.447,415.649C268.077,414.452 269.232,413.738 270.387,413.738C271.899,413.738 272.655,414.473 272.655,415.922L272.655,423.629C272.655,423.629 272.886,423.734 273.411,423.734C273.894,423.734 274.167,423.629 274.167,423.629L274.167,415.628Z" style="fill:rgb(74,34,51);fill-rule:nonzero;"/>
            <path d="M285.192,418.694C285.192,418.694 285.423,417.833 285.423,416.531C285.423,413.99 284.016,412.478 281.475,412.478C278.787,412.478 276.96,414.179 276.96,418.148C276.96,421.949 278.472,423.944 281.496,423.944C283.743,423.944 284.898,423.02 284.898,423.02C284.877,422.579 284.646,422.138 284.352,421.907C284.352,421.907 283.386,422.6 281.79,422.6C279.753,422.6 278.682,421.571 278.535,418.694L285.192,418.694ZM283.932,416.363C283.932,417.014 283.89,417.413 283.869,417.56L278.535,417.56C278.661,414.83 279.795,413.717 281.475,413.717C283.281,413.717 283.932,414.935 283.932,416.363Z" style="fill:rgb(74,34,51);fill-rule:nonzero;"/>
            <path d="M289.896,408.761C289.896,408.761 289.602,408.656 289.035,408.656C288.447,408.656 288.174,408.761 288.174,408.761L288.174,410.294C288.174,410.294 288.447,410.399 289.035,410.399C289.602,410.399 289.896,410.294 289.896,410.294L289.896,408.761ZM289.791,412.793C289.791,412.793 289.539,412.688 289.035,412.688C288.489,412.688 288.279,412.793 288.279,412.793L288.279,423.629C288.279,423.629 288.489,423.734 289.035,423.734C289.539,423.734 289.791,423.629 289.791,423.629L289.791,412.793Z" style="fill:rgb(74,34,51);fill-rule:nonzero;"/>
            <path d="M295.377,413.885L298.38,413.885C298.38,413.885 298.485,413.654 298.485,413.276C298.485,412.898 298.38,412.688 298.38,412.688L295.377,412.688L295.377,410.357C294.831,410.315 294.264,410.42 293.865,410.693L293.865,412.688L292.227,412.688C292.227,412.688 292.122,412.877 292.122,413.297C292.122,413.675 292.227,413.885 292.227,413.885L293.865,413.885L293.865,419.975C293.865,422.537 294.726,423.944 297.204,423.944C297.897,423.944 298.464,423.839 298.674,423.776C298.674,423.776 298.758,423.566 298.758,423.209C298.758,422.831 298.632,422.579 298.632,422.579C298.632,422.579 298.128,422.684 297.603,422.684C295.944,422.684 295.377,421.928 295.377,419.912L295.377,413.885Z" style="fill:rgb(74,34,51);fill-rule:nonzero;"/>
            <path d="M307.368,417.077C307.368,417.077 307.095,416.972 306.591,416.972C306.066,416.972 305.814,417.077 305.814,417.077L305.814,418.442C305.814,418.442 306.066,418.568 306.591,418.568C307.095,418.568 307.368,418.442 307.368,418.442L307.368,417.077Z" style="fill:rgb(74,34,51);fill-rule:nonzero;"/>
            <path d="M315.936,408.614L315.936,423.734L321.354,423.734C324.357,423.734 325.827,422.075 325.827,419.576C325.827,417.035 324.105,416.279 323.538,416.006C324.063,415.691 325.344,414.83 325.344,412.667C325.344,410.441 324.147,408.614 321.27,408.614L315.936,408.614ZM317.49,415.481L317.49,409.874L320.913,409.874C323.013,409.874 323.748,410.987 323.748,412.667C323.748,414.326 322.992,415.481 320.934,415.481L317.49,415.481ZM317.49,422.474L317.49,416.699L321.081,416.699C323.223,416.699 324.21,417.602 324.21,419.597C324.21,421.403 323.37,422.474 321.081,422.474L317.49,422.474Z" style="fill:rgb(74,34,51);fill-rule:nonzero;"/>
            <path d="M336.495,418.694C336.495,418.694 336.726,417.833 336.726,416.531C336.726,413.99 335.319,412.478 332.778,412.478C330.09,412.478 328.263,414.179 328.263,418.148C328.263,421.949 329.775,423.944 332.799,423.944C335.046,423.944 336.201,423.02 336.201,423.02C336.18,422.579 335.949,422.138 335.655,421.907C335.655,421.907 334.689,422.6 333.093,422.6C331.056,422.6 329.985,421.571 329.838,418.694L336.495,418.694ZM335.235,416.363C335.235,417.014 335.193,417.413 335.172,417.56L329.838,417.56C329.964,414.83 331.098,413.717 332.778,413.717C334.584,413.717 335.235,414.935 335.235,416.363Z" style="fill:rgb(74,34,51);fill-rule:nonzero;"/>
            <path d="M345.315,412.982C344.706,412.667 343.95,412.478 343.047,412.478C340.506,412.478 339.078,413.885 339.078,416.174C339.078,417.728 339.729,418.883 340.947,419.45C340.506,419.996 339.96,420.857 339.96,421.76C339.96,422.306 340.149,422.684 340.443,422.978C339.918,423.314 338.595,424.343 338.595,426.002C338.595,427.682 339.876,428.984 342.9,428.984C346.302,428.984 348.15,427.43 348.15,425.477C348.15,421.235 341.514,423.44 341.367,421.298C341.346,420.647 341.661,420.101 341.934,419.744C342.249,419.828 342.648,419.849 343.047,419.849C345.63,419.849 347.016,418.463 347.016,416.174C347.016,415.208 346.764,414.41 346.281,413.822L348.171,413.78C348.318,413.402 348.318,412.856 348.171,412.499L345.315,412.982ZM345.525,416.153C345.525,417.896 344.538,418.736 343.047,418.736C341.577,418.736 340.569,417.896 340.569,416.153C340.569,414.431 341.577,413.591 343.047,413.591C344.538,413.591 345.525,414.431 345.525,416.153ZM346.68,425.645C346.68,426.947 345.273,427.85 342.942,427.85C341.031,427.85 340.107,426.968 340.107,425.708C340.107,424.847 340.59,423.986 341.367,423.44C343.299,424.091 346.68,423.503 346.68,425.645Z" style="fill:rgb(74,34,51);fill-rule:nonzero;"/>
            <path d="M358.146,418.694C358.146,418.694 358.377,417.833 358.377,416.531C358.377,413.99 356.97,412.478 354.429,412.478C351.741,412.478 349.914,414.179 349.914,418.148C349.914,421.949 351.426,423.944 354.45,423.944C356.697,423.944 357.852,423.02 357.852,423.02C357.831,422.579 357.6,422.138 357.306,421.907C357.306,421.907 356.34,422.6 354.744,422.6C352.707,422.6 351.636,421.571 351.489,418.694L358.146,418.694ZM356.886,416.363C356.886,417.014 356.844,417.413 356.823,417.56L351.489,417.56C351.615,414.83 352.749,413.717 354.429,413.717C356.235,413.717 356.886,414.935 356.886,416.363Z" style="fill:rgb(74,34,51);fill-rule:nonzero;"/>
            <path d="M362.85,408.761C362.85,408.761 362.556,408.656 361.989,408.656C361.401,408.656 361.128,408.761 361.128,408.761L361.128,410.294C361.128,410.294 361.401,410.399 361.989,410.399C362.556,410.399 362.85,410.294 362.85,410.294L362.85,408.761ZM362.745,412.793C362.745,412.793 362.493,412.688 361.989,412.688C361.443,412.688 361.233,412.793 361.233,412.793L361.233,423.629C361.233,423.629 361.443,423.734 361.989,423.734C362.493,423.734 362.745,423.629 362.745,423.629L362.745,412.793Z" style="fill:rgb(74,34,51);fill-rule:nonzero;"/>
            <path d="M365.643,415.67C365.643,417.665 367.218,418.274 368.688,418.694C370.011,419.072 371.313,419.366 371.313,420.752C371.313,422.054 370.326,422.621 368.898,422.621C367.407,422.621 366.042,422.096 366.042,422.096C365.748,422.348 365.601,422.789 365.622,423.23C365.622,423.23 366.882,423.944 368.982,423.944C371.544,423.944 372.825,422.726 372.825,420.71C372.825,418.547 371.229,418.001 369.738,417.539C368.415,417.14 367.113,416.804 367.113,415.607C367.113,414.41 367.974,413.759 369.612,413.759C370.851,413.759 371.859,414.116 371.859,414.116C372.153,413.864 372.3,413.402 372.279,413.003C372.279,413.003 371.313,412.478 369.444,412.478C366.882,412.478 365.643,413.78 365.643,415.67Z" style="fill:rgb(74,34,51);fill-rule:nonzero;"/>
            <path d="M377.655,413.885L380.658,413.885C380.658,413.885 380.763,413.654 380.763,413.276C380.763,412.898 380.658,412.688 380.658,412.688L377.655,412.688L377.655,410.357C377.109,410.315 376.542,410.42 376.143,410.693L376.143,412.688L374.505,412.688C374.505,412.688 374.4,412.877 374.4,413.297C374.4,413.675 374.505,413.885 374.505,413.885L376.143,413.885L376.143,419.975C376.143,422.537 377.004,423.944 379.482,423.944C380.175,423.944 380.742,423.839 380.952,423.776C380.952,423.776 381.036,423.566 381.036,423.209C381.036,422.831 380.91,422.579 380.91,422.579C380.91,422.579 380.406,422.684 379.881,422.684C378.222,422.684 377.655,421.928 377.655,419.912L377.655,413.885Z" style="fill:rgb(74,34,51);fill-rule:nonzero;"/>
            <path d="M390.948,418.694C390.948,418.694 391.179,417.833 391.179,416.531C391.179,413.99 389.772,412.478 387.231,412.478C384.543,412.478 382.716,414.179 382.716,418.148C382.716,421.949 384.228,423.944 387.252,423.944C389.499,423.944 390.654,423.02 390.654,423.02C390.633,422.579 390.402,422.138 390.108,421.907C390.108,421.907 389.142,422.6 387.546,422.6C385.509,422.6 384.438,421.571 384.291,418.694L390.948,418.694ZM389.688,416.363C389.688,417.014 389.646,417.413 389.625,417.56L384.291,417.56C384.417,414.83 385.551,413.717 387.231,413.717C389.037,413.717 389.688,414.935 389.688,416.363Z" style="fill:rgb(74,34,51);fill-rule:nonzero;"/>
            <path d="M395.484,414.515L395.484,412.793C395.484,412.793 395.253,412.688 394.728,412.688C394.203,412.688 393.972,412.793 393.972,412.793L393.972,423.629C393.972,423.629 394.203,423.734 394.728,423.734C395.253,423.734 395.484,423.629 395.484,423.629L395.484,415.964C396.114,414.704 397.038,413.864 398.004,413.864C398.571,413.864 398.97,413.99 399.432,414.284C399.852,413.948 400.062,413.549 400.125,413.003C399.831,412.814 399.222,412.499 398.319,412.499C397.458,412.499 396.366,412.898 395.484,414.515Z" style="fill:rgb(74,34,51);fill-rule:nonzero;"/>
            <path d="M402.099,420.794C402.099,422.684 403.275,423.944 405.333,423.944C406.782,423.944 408,423.335 408.819,422.306L408.819,423.629C408.819,423.629 409.071,423.734 409.575,423.734C410.1,423.734 410.331,423.629 410.331,423.629L410.331,412.793C410.331,412.793 410.1,412.688 409.575,412.688C409.071,412.688 408.819,412.793 408.819,412.793L408.819,420.773C408.168,421.991 407.013,422.684 405.9,422.684C404.367,422.684 403.611,421.949 403.611,420.5L403.611,412.793C403.611,412.793 403.38,412.688 402.855,412.688C402.372,412.688 402.099,412.793 402.099,412.793L402.099,420.794Z" style="fill:rgb(74,34,51);fill-rule:nonzero;"/>
            <path d="M421.923,415.628C421.923,413.738 420.747,412.478 418.689,412.478C417.219,412.478 416.022,413.087 415.203,414.116L415.203,412.793C415.203,412.793 414.951,412.688 414.447,412.688C413.922,412.688 413.691,412.793 413.691,412.793L413.691,423.629C413.691,423.629 413.922,423.734 414.447,423.734C414.951,423.734 415.203,423.629 415.203,423.629L415.203,415.649C415.833,414.452 416.988,413.738 418.143,413.738C419.655,413.738 420.411,414.473 420.411,415.922L420.411,423.629C420.411,423.629 420.642,423.734 421.167,423.734C421.65,423.734 421.923,423.629 421.923,423.629L421.923,415.628Z" style="fill:rgb(74,34,51);fill-rule:nonzero;"/>
            <path d="M431.016,412.982C430.407,412.667 429.651,412.478 428.748,412.478C426.207,412.478 424.779,413.885 424.779,416.174C424.779,417.728 425.43,418.883 426.648,419.45C426.207,419.996 425.661,420.857 425.661,421.76C425.661,422.306 425.85,422.684 426.144,422.978C425.619,423.314 424.296,424.343 424.296,426.002C424.296,427.682 425.577,428.984 428.601,428.984C432.003,428.984 433.851,427.43 433.851,425.477C433.851,421.235 427.215,423.44 427.068,421.298C427.047,420.647 427.362,420.101 427.635,419.744C427.95,419.828 428.349,419.849 428.748,419.849C431.331,419.849 432.717,418.463 432.717,416.174C432.717,415.208 432.465,414.41 431.982,413.822L433.872,413.78C434.019,413.402 434.019,412.856 433.872,412.499L431.016,412.982ZM431.226,416.153C431.226,417.896 430.239,418.736 428.748,418.736C427.278,418.736 426.27,417.896 426.27,416.153C426.27,414.431 427.278,413.591 428.748,413.591C430.239,413.591 431.226,414.431 431.226,416.153ZM432.381,425.645C432.381,426.947 430.974,427.85 428.643,427.85C426.732,427.85 425.808,426.968 425.808,425.708C425.808,424.847 426.291,423.986 427.068,423.44C429,424.091 432.381,423.503 432.381,425.645Z" style="fill:rgb(74,34,51);fill-rule:nonzero;"/>
        </g>
        <g transform="matrix(0.565241,-5.109e-19,-5.42192e-19,0.602075,22.0832,19.0179)">
            <g>
                <path d="M35.648,38.639C35.644,38.211 35.66,37.679 35.713,37.573C35.735,37.586 35.752,37.593 35.779,37.903C35.876,38.965 35.881,41.053 35.789,41.181C35.689,41.046 35.64,39.427 35.648,38.639" style="fill:rgb(135,32,84);fill-rule:nonzero;"/>
                <path d="M36.11,41.29C36.099,40.575 36.191,40.16 36.328,40.282C36.372,40.323 36.408,40.413 36.447,40.499C36.78,41.549 36.764,43.612 36.503,43.439C36.318,43.322 36.128,42.26 36.11,41.29" style="fill:rgb(135,32,84);fill-rule:nonzero;"/>
                <path d="M38.678,45.164C38.637,44.465 38.836,44.064 39.124,44.305C39.14,44.318 39.16,44.34 39.172,44.353C39.741,45.04 39.775,46.714 39.345,46.699C39.063,46.688 38.732,45.929 38.678,45.164" style="fill:rgb(135,32,84);fill-rule:nonzero;"/>
                <path d="M40.439,46.501C40.391,45.991 40.537,45.433 40.942,45.716C41.552,46.258 41.61,47.736 41.16,47.775C40.858,47.804 40.506,47.183 40.439,46.501" style="fill:rgb(135,32,84);fill-rule:nonzero;"/>
                <path d="M42.368,47.52C42.312,47.072 42.443,46.56 42.853,46.769C43.472,47.188 43.552,48.499 43.096,48.577C42.798,48.63 42.441,48.116 42.368,47.52" style="fill:rgb(135,32,84);fill-rule:nonzero;"/>
                <path d="M44.384,48.267C44.321,47.87 44.444,47.4 44.846,47.548C45.471,47.876 45.565,49.04 45.114,49.151C44.822,49.222 44.464,48.792 44.384,48.267" style="fill:rgb(135,32,84);fill-rule:nonzero;"/>
                <path d="M46.461,48.792C46.388,48.409 46.526,48.052 46.878,48.144C47.413,48.361 47.55,49.297 47.179,49.477C46.911,49.611 46.55,49.264 46.461,48.792" style="fill:rgb(135,32,84);fill-rule:nonzero;"/>
                <path d="M48.516,49.124C48.453,48.832 48.551,48.46 48.901,48.525C49.411,48.684 49.551,49.502 49.205,49.685C48.954,49.814 48.607,49.53 48.516,49.124" style="fill:rgb(135,32,84);fill-rule:nonzero;"/>
                <path d="M50.576,49.299C50.514,49.051 50.597,48.725 50.912,48.762C51.376,48.872 51.508,49.569 51.2,49.741C50.98,49.872 50.662,49.647 50.576,49.299" style="fill:rgb(135,32,84);fill-rule:nonzero;"/>
                <path d="M52.556,49.343C52.503,49.14 52.567,48.864 52.829,48.876C53.225,48.945 53.346,49.526 53.092,49.689C52.907,49.804 52.638,49.627 52.556,49.343" style="fill:rgb(135,32,84);fill-rule:nonzero;"/>
                <path d="M54.403,49.282C54.353,49.118 54.401,48.889 54.618,48.89C54.937,48.931 55.048,49.405 54.847,49.545C54.697,49.642 54.474,49.512 54.403,49.282" style="fill:rgb(135,32,84);fill-rule:nonzero;"/>
                <path d="M56.119,49.15C56.081,49.017 56.115,48.833 56.288,48.826C56.529,48.847 56.64,49.19 56.492,49.327C56.382,49.435 56.182,49.338 56.119,49.15" style="fill:rgb(135,32,84);fill-rule:nonzero;"/>
                <path d="M57.712,48.955C57.681,48.858 57.706,48.726 57.833,48.713C58.007,48.725 58.09,48.975 57.989,49.073C57.904,49.154 57.764,49.092 57.712,48.955" style="fill:rgb(135,32,84);fill-rule:nonzero;"/>
                <path d="M37.38,50.521C37.306,50.235 37.052,49.287 37.123,49.18C37.149,49.185 37.181,49.228 37.244,49.368C37.618,50.253 38.243,52.534 38.176,52.757C38.026,52.711 37.589,51.281 37.38,50.521" style="fill:rgb(135,32,84);fill-rule:nonzero;"/>
                <path d="M38.482,52.405C38.255,51.616 38.22,51.085 38.405,51.169C38.444,51.19 38.496,51.253 38.53,51.291C39.138,52.14 39.679,54.378 39.359,54.273C39.161,54.206 38.742,53.317 38.482,52.405" style="fill:rgb(135,32,84);fill-rule:nonzero;"/>
                <path d="M40.025,53.851C39.8,53.113 39.833,52.607 40.094,52.721C40.127,52.737 40.171,52.769 40.196,52.79C40.89,53.459 41.358,55.439 40.956,55.406C40.704,55.384 40.265,54.645 40.025,53.851" style="fill:rgb(135,32,84);fill-rule:nonzero;"/>
                <path d="M41.855,54.922C41.644,54.237 41.729,53.764 42.043,53.9C42.058,53.91 42.085,53.923 42.1,53.93C42.83,54.443 43.234,56.178 42.78,56.2C42.51,56.215 42.08,55.616 41.855,54.922" style="fill:rgb(135,32,84);fill-rule:nonzero;"/>
                <path d="M43.862,55.68C43.697,55.191 43.703,54.598 44.136,54.763C44.823,55.125 45.216,56.563 44.805,56.727C44.534,56.832 44.075,56.326 43.862,55.68" style="fill:rgb(135,32,84);fill-rule:nonzero;"/>
                <path d="M45.965,56.19C45.805,55.759 45.83,55.221 46.26,55.333C46.937,55.603 47.29,56.874 46.87,57.058C46.602,57.174 46.162,56.752 45.965,56.19" style="fill:rgb(135,32,84);fill-rule:nonzero;"/>
                <path d="M48.122,56.49C47.971,56.074 48.039,55.668 48.409,55.729C49.039,55.919 49.336,56.993 48.949,57.176C48.697,57.296 48.297,56.961 48.122,56.49" style="fill:rgb(135,32,84);fill-rule:nonzero;"/>
                <path d="M50.265,56.618C50.14,56.307 50.174,55.893 50.545,55.928C51.095,56.051 51.386,56.931 51.069,57.159C50.84,57.326 50.428,57.053 50.265,56.618" style="fill:rgb(135,32,84);fill-rule:nonzero;"/>
                <path d="M52.404,56.612C52.299,56.345 52.329,55.986 52.666,55.995C53.164,56.074 53.414,56.82 53.124,57.04C52.916,57.195 52.55,56.981 52.404,56.612" style="fill:rgb(135,32,84);fill-rule:nonzero;"/>
                <path d="M54.466,56.49C54.374,56.274 54.399,55.967 54.681,55.965C55.105,56.011 55.319,56.628 55.07,56.825C54.903,56.961 54.591,56.793 54.466,56.49" style="fill:rgb(135,32,84);fill-rule:nonzero;"/>
                <path d="M56.385,56.289C56.309,56.113 56.329,55.864 56.561,55.847C56.896,55.871 57.081,56.377 56.888,56.54C56.744,56.661 56.488,56.536 56.385,56.289" style="fill:rgb(135,32,84);fill-rule:nonzero;"/>
                <path d="M58.174,56.028C58.11,55.893 58.128,55.695 58.307,55.677C58.587,55.684 58.732,56.079 58.575,56.218C58.46,56.314 58.259,56.221 58.174,56.028" style="fill:rgb(135,32,84);fill-rule:nonzero;"/>
                <path d="M59.828,55.73C59.789,55.632 59.799,55.482 59.933,55.466C60.128,55.468 60.236,55.753 60.122,55.857C60.043,55.931 59.891,55.869 59.828,55.73" style="fill:rgb(135,32,84);fill-rule:nonzero;"/>
                <path d="M58.244,16.608C57.905,15.503 56.473,14.842 54.655,15.666C52.414,16.886 52.567,19.088 54.348,19.663C56.39,20.317 58.789,18.432 58.244,16.608" style="fill:rgb(135,32,84);fill-rule:nonzero;"/>
                <path d="M51.236,19.652C51.057,18.549 49.912,17.983 48.392,18.992C46.392,20.518 46.441,22.893 48.018,23.159C49.63,23.437 51.521,21.37 51.236,19.652" style="fill:rgb(135,32,84);fill-rule:nonzero;"/>
                <path d="M45.292,23.42C45.221,22.31 44.399,21.798 43.209,22.911C41.564,24.67 41.577,27.154 42.862,27.141C44.042,27.132 45.405,25.045 45.292,23.42" style="fill:rgb(135,32,84);fill-rule:nonzero;"/>
                <path d="M40.688,27.591C40.681,26.572 40.246,26.204 39.673,26.738C39.544,26.863 39.424,27.025 39.339,27.141C38.176,28.953 38.163,31.501 39.077,31.256C39.833,31.057 40.704,29.069 40.688,27.591" style="fill:rgb(135,32,84);fill-rule:nonzero;"/>
                <path d="M37.607,31.758C37.619,30.931 37.466,30.521 37.223,30.741C37.099,30.846 37.001,31.095 36.939,31.225C36.338,32.808 36.289,35.189 36.74,35.052C37.118,34.94 37.584,33.155 37.607,31.758" style="fill:rgb(135,32,84);fill-rule:nonzero;"/>
                <path d="M36.046,35.45C36.054,34.845 36.033,34.481 35.988,34.369C35.988,34.369 35.97,34.367 35.958,34.367C35.92,34.428 35.9,34.516 35.857,34.795C35.681,36.046 35.611,38.167 35.74,38.395C35.753,38.391 35.763,38.388 35.773,38.388C35.91,38.083 36.029,36.445 36.046,35.45" style="fill:rgb(135,32,84);fill-rule:nonzero;"/>
                <path d="M70.383,23.327C69.716,21.583 67.685,20.118 65.576,20.791C62.741,22.065 64.018,25.976 66.889,26.957C69.406,27.816 71.337,25.816 70.383,23.327" style="fill:rgb(135,32,84);fill-rule:nonzero;"/>
                <path d="M62.242,25.689C61.661,23.939 59.784,22.656 57.774,23.621C55.123,25.268 56.209,29.168 58.827,29.848C61.175,30.464 63.057,28.17 62.242,25.689" style="fill:rgb(135,32,84);fill-rule:nonzero;"/>
                <path d="M54.494,29.076C54.009,27.388 52.414,26.27 50.698,27.414C48.329,29.381 49.451,33.293 51.829,33.491C53.717,33.647 55.139,31.297 54.494,29.076" style="fill:rgb(135,32,84);fill-rule:nonzero;"/>
                <path d="M47.874,33.099C47.458,31.477 46.17,30.489 44.833,31.709C42.93,33.856 44.131,37.715 46.05,37.496C47.484,37.337 48.403,35.115 47.874,33.099" style="fill:rgb(135,32,84);fill-rule:nonzero;"/>
                <path d="M42.724,37.394C42.352,35.885 41.387,34.996 40.473,36.196C39.22,38.232 40.238,41.804 41.582,41.556C42.601,41.369 43.177,39.271 42.724,37.394" style="fill:rgb(135,32,84);fill-rule:nonzero;"/>
                <path d="M39.246,41.555C38.92,40.211 38.333,39.582 37.933,40.143C37.882,40.213 37.836,40.32 37.798,40.395C37.155,42.234 38.129,45.548 38.922,45.157C39.461,44.891 39.618,43.107 39.246,41.555" style="fill:rgb(135,32,84);fill-rule:nonzero;"/>
                <path d="M37.455,45.125C37.176,43.984 36.834,43.354 36.659,43.659C36.623,43.729 36.605,43.856 36.59,43.937C36.435,45.549 37.267,48.545 37.653,48.279C37.901,48.11 37.809,46.545 37.455,45.125" style="fill:rgb(135,32,84);fill-rule:nonzero;"/>
                <path d="M36.943,48.116C36.822,47.645 36.609,46.833 36.506,46.678C36.506,46.678 36.497,46.685 36.487,46.685C36.485,46.744 36.487,46.773 36.508,46.938C36.686,48.079 37.335,50.637 37.492,50.794C37.555,50.643 37.141,48.892 36.943,48.116" style="fill:rgb(135,32,84);fill-rule:nonzero;"/>
                <path d="M65.704,14.648C65.276,13.743 63.72,12.732 61.598,13.308C59.373,14.107 59.651,16.075 61.482,16.909C63.712,17.931 66.368,16.662 65.782,14.856C65.762,14.791 65.73,14.709 65.704,14.648" style="fill:rgb(135,32,84);fill-rule:nonzero;"/>
            </g>
            <g>
                <path d="M78.106,51.421C78.108,51.846 78.09,52.381 78.043,52.488C78.019,52.473 78.007,52.464 77.973,52.16C77.878,51.094 77.875,49.012 77.963,48.877C78.065,49.012 78.114,50.631 78.106,51.421" style="fill:rgb(74,34,51);fill-rule:nonzero;"/>
                <path d="M77.64,48.769C77.653,49.486 77.563,49.899 77.424,49.779C77.378,49.738 77.34,49.647 77.307,49.559C76.974,48.511 76.99,46.446 77.259,46.615C77.436,46.735 77.626,47.799 77.64,48.769" style="fill:rgb(74,34,51);fill-rule:nonzero;"/>
                <path d="M75.079,44.894C75.122,45.595 74.919,45.999 74.631,45.755C74.615,45.742 74.598,45.718 74.583,45.708C74.016,45.019 73.98,43.347 74.41,43.362C74.694,43.372 75.019,44.128 75.079,44.894" style="fill:rgb(74,34,51);fill-rule:nonzero;"/>
                <path d="M73.318,43.558C73.366,44.068 73.218,44.623 72.811,44.345C72.203,43.803 72.145,42.323 72.6,42.285C72.897,42.255 73.251,42.876 73.318,43.558" style="fill:rgb(74,34,51);fill-rule:nonzero;"/>
                <path d="M71.385,42.539C71.447,42.99 71.31,43.498 70.906,43.29C70.283,42.873 70.204,41.565 70.662,41.484C70.955,41.431 71.312,41.943 71.385,42.539" style="fill:rgb(74,34,51);fill-rule:nonzero;"/>
                <path d="M69.375,41.793C69.44,42.19 69.31,42.66 68.907,42.511C68.292,42.185 68.195,41.02 68.643,40.909C68.935,40.839 69.291,41.267 69.375,41.793" style="fill:rgb(74,34,51);fill-rule:nonzero;"/>
                <path d="M67.296,41.268C67.367,41.655 67.229,42.01 66.877,41.916C66.34,41.699 66.209,40.762 66.574,40.583C66.842,40.447 67.207,40.797 67.296,41.268" style="fill:rgb(74,34,51);fill-rule:nonzero;"/>
                <path d="M65.238,40.936C65.301,41.228 65.203,41.601 64.854,41.536C64.348,41.378 64.21,40.556 64.551,40.377C64.806,40.246 65.148,40.526 65.238,40.936" style="fill:rgb(74,34,51);fill-rule:nonzero;"/>
                <path d="M63.181,40.762C63.244,41.009 63.163,41.335 62.845,41.298C62.381,41.188 62.245,40.49 62.559,40.317C62.781,40.188 63.095,40.412 63.181,40.762" style="fill:rgb(74,34,51);fill-rule:nonzero;"/>
                <path d="M61.196,40.716C61.256,40.921 61.19,41.196 60.929,41.184C60.53,41.114 60.407,40.532 60.667,40.373C60.85,40.252 61.119,40.43 61.196,40.716" style="fill:rgb(74,34,51);fill-rule:nonzero;"/>
                <path d="M59.351,40.776C59.403,40.943 59.357,41.171 59.14,41.168C58.823,41.13 58.708,40.654 58.913,40.515C59.061,40.418 59.284,40.547 59.351,40.776" style="fill:rgb(74,34,51);fill-rule:nonzero;"/>
                <path d="M57.637,40.912C57.679,41.043 57.645,41.227 57.472,41.23C57.227,41.212 57.119,40.872 57.264,40.734C57.379,40.625 57.572,40.719 57.637,40.912" style="fill:rgb(74,34,51);fill-rule:nonzero;"/>
                <path d="M56.044,41.105C56.075,41.2 56.054,41.334 55.927,41.343C55.747,41.336 55.669,41.088 55.769,40.983C55.849,40.905 55.998,40.969 56.044,41.105" style="fill:rgb(74,34,51);fill-rule:nonzero;"/>
                <path d="M76.371,39.539C76.447,39.825 76.696,40.776 76.633,40.879C76.607,40.873 76.579,40.835 76.516,40.691C76.139,39.808 75.514,37.527 75.581,37.299C75.725,37.349 76.168,38.784 76.371,39.539" style="fill:rgb(74,34,51);fill-rule:nonzero;"/>
                <path d="M75.273,37.651C75.5,38.443 75.531,38.972 75.348,38.889C75.311,38.871 75.255,38.808 75.221,38.771C74.615,37.917 74.078,35.678 74.396,35.789C74.597,35.853 75.013,36.745 75.273,37.651" style="fill:rgb(74,34,51);fill-rule:nonzero;"/>
                <path d="M73.73,36.21C73.955,36.945 73.918,37.454 73.665,37.34C73.625,37.322 73.586,37.292 73.557,37.27C72.863,36.602 72.401,34.621 72.803,34.656C73.047,34.674 73.494,35.416 73.73,36.21" style="fill:rgb(74,34,51);fill-rule:nonzero;"/>
                <path d="M71.898,35.138C72.117,35.823 72.026,36.297 71.71,36.16C71.693,36.15 71.673,36.137 71.655,36.128C70.927,35.615 70.526,33.884 70.971,33.861C71.241,33.844 71.675,34.441 71.898,35.138" style="fill:rgb(74,34,51);fill-rule:nonzero;"/>
                <path d="M69.897,34.379C70.059,34.872 70.055,35.461 69.62,35.298C68.931,34.935 68.543,33.496 68.958,33.333C69.218,33.226 69.677,33.735 69.897,34.379" style="fill:rgb(74,34,51);fill-rule:nonzero;"/>
                <path d="M67.794,33.871C67.946,34.301 67.927,34.838 67.495,34.725C66.818,34.455 66.469,33.184 66.885,33.003C67.151,32.886 67.591,33.308 67.794,33.871" style="fill:rgb(74,34,51);fill-rule:nonzero;"/>
                <path d="M65.632,33.569C65.785,33.982 65.717,34.391 65.343,34.328C64.72,34.14 64.415,33.066 64.81,32.88C65.06,32.763 65.459,33.098 65.632,33.569" style="fill:rgb(74,34,51);fill-rule:nonzero;"/>
                <path d="M63.492,33.441C63.615,33.753 63.581,34.166 63.214,34.132C62.66,34.008 62.371,33.129 62.69,32.9C62.917,32.732 63.327,33.007 63.492,33.441" style="fill:rgb(74,34,51);fill-rule:nonzero;"/>
                <path d="M61.351,33.449C61.462,33.713 61.426,34.072 61.093,34.061C60.597,33.982 60.343,33.24 60.631,33.02C60.837,32.864 61.205,33.079 61.351,33.449" style="fill:rgb(74,34,51);fill-rule:nonzero;"/>
                <path d="M59.29,33.569C59.382,33.788 59.357,34.09 59.073,34.093C58.653,34.048 58.436,33.431 58.684,33.235C58.859,33.098 59.169,33.266 59.29,33.569" style="fill:rgb(74,34,51);fill-rule:nonzero;"/>
                <path d="M57.372,33.771C57.448,33.946 57.424,34.195 57.196,34.212C56.861,34.189 56.679,33.683 56.871,33.521C57.016,33.402 57.268,33.525 57.372,33.771" style="fill:rgb(74,34,51);fill-rule:nonzero;"/>
                <path d="M55.585,34.032C55.643,34.165 55.631,34.368 55.448,34.384C55.168,34.375 55.025,33.982 55.186,33.842C55.305,33.742 55.498,33.838 55.585,34.032" style="fill:rgb(74,34,51);fill-rule:nonzero;"/>
                <path d="M53.925,34.329C53.968,34.43 53.958,34.578 53.827,34.594C53.629,34.592 53.521,34.305 53.635,34.203C53.718,34.127 53.862,34.192 53.925,34.329" style="fill:rgb(74,34,51);fill-rule:nonzero;"/>
                <path d="M55.514,73.447C55.848,74.56 57.283,75.216 59.103,74.394C61.339,73.173 61.192,70.972 59.407,70.402C57.364,69.746 54.962,71.625 55.514,73.447" style="fill:rgb(74,34,51);fill-rule:nonzero;"/>
                <path d="M62.519,70.407C62.704,71.51 63.84,72.074 65.362,71.071C67.362,69.542 67.311,67.167 65.734,66.899C64.127,66.624 62.242,68.691 62.519,70.407" style="fill:rgb(74,34,51);fill-rule:nonzero;"/>
                <path d="M68.462,66.64C68.537,67.748 69.357,68.262 70.551,67.149C72.194,65.39 72.178,62.905 70.889,62.919C69.714,62.928 68.351,65.015 68.462,66.64" style="fill:rgb(74,34,51);fill-rule:nonzero;"/>
                <path d="M73.067,62.469C73.078,63.487 73.511,63.854 74.08,63.319C74.214,63.196 74.327,63.038 74.416,62.918C75.581,61.103 75.59,58.558 74.68,58.802C73.922,59.002 73.055,60.989 73.067,62.469" style="fill:rgb(74,34,51);fill-rule:nonzero;"/>
                <path d="M76.15,58.299C76.132,59.126 76.291,59.539 76.529,59.317C76.652,59.214 76.755,58.966 76.809,58.834C77.416,57.252 77.462,54.869 77.01,55.006C76.632,55.119 76.168,56.904 76.15,58.299" style="fill:rgb(74,34,51);fill-rule:nonzero;"/>
                <path d="M77.71,54.611C77.7,55.215 77.717,55.578 77.764,55.691C77.764,55.691 77.784,55.692 77.794,55.691C77.832,55.629 77.852,55.542 77.896,55.265C78.071,54.013 78.141,51.893 78.014,51.665C78.008,51.668 77.997,51.673 77.981,51.673C77.84,51.979 77.727,53.614 77.71,54.611" style="fill:rgb(74,34,51);fill-rule:nonzero;"/>
                <path d="M43.375,66.734C44.037,68.477 46.063,69.943 48.182,69.27C51.014,67.995 49.729,64.084 46.866,63.1C44.351,62.248 42.426,64.245 43.375,66.734" style="fill:rgb(74,34,51);fill-rule:nonzero;"/>
                <path d="M51.521,64.371C52.098,66.12 53.968,67.403 55.986,66.439C58.635,64.789 57.549,60.892 54.933,60.207C52.581,59.597 50.7,61.89 51.521,64.371" style="fill:rgb(74,34,51);fill-rule:nonzero;"/>
                <path d="M59.268,60.984C59.752,62.675 61.343,63.79 63.057,62.645C65.427,60.68 64.306,56.769 61.93,56.573C60.042,56.415 58.618,58.764 59.268,60.984" style="fill:rgb(74,34,51);fill-rule:nonzero;"/>
                <path d="M65.878,56.961C66.3,58.579 67.587,59.57 68.921,58.351C70.83,56.206 69.625,52.342 67.708,52.563C66.274,52.723 65.351,54.943 65.878,56.961" style="fill:rgb(74,34,51);fill-rule:nonzero;"/>
                <path d="M71.035,52.667C71.407,54.175 72.366,55.065 73.278,53.865C74.531,51.828 73.521,48.259 72.173,48.505C71.154,48.689 70.579,50.792 71.035,52.667" style="fill:rgb(74,34,51);fill-rule:nonzero;"/>
                <path d="M74.509,48.506C74.833,49.848 75.42,50.477 75.822,49.916C75.869,49.847 75.921,49.739 75.955,49.665C76.595,47.829 75.624,44.511 74.828,44.905C74.296,45.167 74.139,46.953 74.509,48.506" style="fill:rgb(74,34,51);fill-rule:nonzero;"/>
                <path d="M76.296,44.932C76.578,46.076 76.918,46.707 77.091,46.4C77.129,46.328 77.152,46.203 77.162,46.123C77.317,44.513 76.49,41.514 76.104,41.779C75.852,41.951 75.946,43.512 76.296,44.932" style="fill:rgb(74,34,51);fill-rule:nonzero;"/>
                <path d="M76.807,41.943C76.932,42.414 77.145,43.226 77.247,43.381C77.253,43.379 77.257,43.378 77.261,43.373C77.269,43.317 77.267,43.287 77.244,43.122C77.066,41.981 76.413,39.421 76.269,39.267C76.198,39.416 76.609,41.165 76.807,41.943" style="fill:rgb(74,34,51);fill-rule:nonzero;"/>
                <path d="M48.058,75.409C48.482,76.315 50.036,77.329 52.16,76.749C54.385,75.957 54.102,73.983 52.279,73.149C50.047,72.13 47.392,73.399 47.97,75.208C47.993,75.268 48.028,75.348 48.058,75.409" style="fill:rgb(74,34,51);fill-rule:nonzero;"/>
            </g>
        </g>
    </g>
</svg>
