<svg clip-rule="evenodd" fill-rule="evenodd" stroke-linejoin="round" stroke-miterlimit="1.41421" viewBox="0 0 652 227" xmlns="http://www.w3.org/2000/svg"><g fill="#442230"><path d="m233.559 107.572c-7.164-1.693-11.196-4.464-12.131-8.317-.109-.538-.18-1.043-.18-1.51 0-1.765.863-3.421 2.628-4.969 1.979-1.728 4.643-2.808 7.956-3.239.756-.109 1.656-.144 2.736-.144 3.275 0 7.235.899 11.952 2.699l2.087-5.328c-5.327-2.088-10.008-3.131-14.076-3.131-.899 0-2.124.071-3.672.214-4.211.577-7.775 2.126-10.727 4.645-3.096 2.772-4.644 5.832-4.644 9.216 0 1.08.108 2.052.36 2.952 1.511 6.084 6.948 10.259 16.344 12.528 7.092 1.693 11.124 4.464 12.132 8.387.107.685.179 1.153.179 1.44 0 1.837-.935 3.565-2.808 5.149-2.123 1.763-4.932 2.845-8.351 3.168-.756.072-1.441.108-2.124.108-3.529 0-7.884-1.081-13.068-3.204l-2.233 5.256c5.832 2.448 10.944 3.672 15.301 3.672 5.723 0 10.439-1.547 14.148-4.644 3.275-2.881 4.896-6.049 4.896-9.468 0-.936-.109-1.872-.325-2.808-1.764-6.227-7.2-10.44-16.38-12.672m31.565 28.584h34.379v-5.832h-28.583v-18.179h22.139v-5.76h-22.139v-16.021l28.583.037v-5.797l-34.379-.036zm75.952-8.533c-1.8 1.765-3.996 2.665-6.624 2.701l-13.716.035v-18.683h13.32c2.772 0 5.112.936 7.02 2.772 1.8 1.836 2.7 3.996 2.7 6.551 0 2.557-.9 4.789-2.7 6.624m-20.34-37.366h12.492c2.196 0 4.032.755 5.544 2.267 1.548 1.548 2.304 3.419 2.304 5.544 0 2.16-.756 3.996-2.304 5.544v-.037c-1.548 1.514-3.348 2.269-5.472 2.304h-12.564zm20.088 17.963c4.032-2.341 6.048-5.723 6.048-10.152 0-3.672-1.26-6.804-3.816-9.432-2.556-2.664-5.652-4.032-9.324-4.139l-18.828-.037v51.696h19.584l.036-.037c4.14-.035 7.704-1.51 10.656-4.427 2.952-2.988 4.428-6.552 4.428-10.693 0-5.939-2.916-10.187-8.784-12.779m39.017-23.688-22.248 51.624h6.187l18.254-42.155.002.003.001-.003 8.999 20.88h-.014l2.479 5.76h.02l6.66 15.515h6.264l-22.248-51.624zm55.108 23.04c-7.164-1.693-11.195-4.464-12.132-8.317-.108-.538-.18-1.043-.18-1.51 0-1.765.865-3.421 2.628-4.969 1.981-1.728 4.644-2.808 7.956-3.239.756-.109 1.657-.144 2.736-.144 3.276 0 7.236.899 11.953 2.699l2.087-5.328c-5.327-2.088-10.008-3.131-14.077-3.131-.899 0-2.123.071-3.671.214-4.211.577-7.775 2.126-10.728 4.645-3.095 2.772-4.643 5.832-4.643 9.216 0 1.08.108 2.052.36 2.952 1.511 6.084 6.947 10.259 16.344 12.528 7.091 1.693 11.123 4.464 12.131 8.387.108.685.18 1.153.18 1.44 0 1.837-.936 3.565-2.808 5.149-2.125 1.763-4.932 2.845-8.351 3.168-.757.072-1.441.108-2.125.108-3.528 0-7.883-1.081-13.068-3.204l-2.231 5.256c5.831 2.448 10.943 3.672 15.299 3.672 5.724 0 10.44-1.547 14.148-4.644 3.276-2.881 4.896-6.049 4.896-9.468 0-.936-.108-1.872-.325-2.808-1.762-6.227-7.2-10.44-16.379-12.672m26.668-17.208h16.957v45.792h5.795v-45.792h16.957v-5.796h-39.709z" fill-rule="nonzero"/><path d="m514.17 84.906h5.797v51.25h-5.797z"/><path d="m552.575 84.532-22.249 51.624h6.189l18.255-42.155 8.999 20.88h-.012l2.479 5.76h.018l6.66 15.515h6.263l-22.247-51.624zm74.691 0v41.112l-29.987-41.147h-5.185v51.201h5.761v-40.654l29.952 41.076h5.219v-51.588z" fill-rule="nonzero"/><path d="m99.8 4.001-79.887 79.888 17.49 17.489 79.887-79.887z"/></g><path d="m158.31 62.826-79.887 79.887 17.49 17.489 79.887-79.887z" fill="#c41e54"/><path d="m97.878 64.223-79.887 79.887 17.49 17.49 79.887-79.887zm58.071 58.372-79.888 79.887 17.49 17.49 79.887-79.888z" fill="#442230"/><text fill="#c71e55" font-family="'GloberBook', 'Glober'" font-size="24" x="304.32" y="166.636">E<tspan x="317.184 326.016 333.672 345.48 358.176 367.008 379.68 392.352 404.376 409.128 414.576 428.736 433.824 445.632 454.464 467.16 478.896 483.888 492.024 496.776 502.224 516.768 528.504 540.384 552.12 557.112 567.264 575.4 587.136 595.968 608.64 621.312 633.336" y="166.636 166.636 166.636 166.636 166.636 166.636 166.636 166.636 166.636 166.636 166.636 166.636 166.636 166.636 166.636 166.636 166.636 166.636 166.636 166.636 166.636 166.636 166.636 166.636 166.636 166.636 166.636 166.636 166.636 166.636 166.636 166.636 166.636">rfahrung. Klarheit. Begeisterung.</tspan></text></svg>