<svg viewBox="0 0 652 227" xmlns="http://www.w3.org/2000/svg" xmlns:serif="http://www.serif.com/" fill-rule="evenodd" clip-rule="evenodd" stroke-linejoin="round" stroke-miterlimit="1.41421"><g serif:id="Layer 1"><path d="M233.559 107.572c-7.164-1.693-11.196-4.464-12.131-8.317-.109-.538-.18-1.043-.18-1.51 0-1.765.863-3.421 2.628-4.969 1.979-1.728 4.643-2.808 7.956-3.239.756-.109 1.656-.144 2.736-.144 3.275 0 7.235.899 11.952 2.699l2.087-5.328c-5.327-2.088-10.008-3.131-14.076-3.131-.899 0-2.124.071-3.672.214-4.211.577-7.775 2.126-10.727 4.645-3.096 2.772-4.644 5.832-4.644 9.216 0 1.08.108 2.052.36 2.952 1.511 6.084 6.948 10.259 16.344 12.528 7.092 1.693 11.124 4.464 12.132 8.387.107.685.179 1.153.179 1.44 0 1.837-.935 3.565-2.808 5.149-2.123 1.763-4.932 2.845-8.351 3.168-.756.072-1.441.108-2.124.108-3.529 0-7.884-1.081-13.068-3.204l-2.233 5.256c5.832 2.448 10.944 3.672 15.301 3.672 5.723 0 10.439-1.547 14.148-4.644 3.275-2.881 4.896-6.049 4.896-9.468 0-.936-.109-1.872-.325-2.808-1.764-6.227-7.2-10.44-16.38-12.672m31.565 28.584h34.379v-5.832H270.92v-18.179h22.139v-5.76H270.92V90.364l28.583.037v-5.797l-34.379-.036v51.588zm75.952-8.533c-1.8 1.765-3.996 2.665-6.624 2.701l-13.716.035v-18.683h13.32c2.772 0 5.112.936 7.02 2.772 1.8 1.836 2.7 3.996 2.7 6.551 0 2.557-.9 4.789-2.7 6.624m-20.34-37.366h12.492c2.196 0 4.032.755 5.544 2.267 1.548 1.548 2.304 3.419 2.304 5.544 0 2.16-.756 3.996-2.304 5.544v-.037c-1.548 1.514-3.348 2.269-5.472 2.304h-12.564V90.257zm20.088 17.963c4.032-2.341 6.048-5.723 6.048-10.152 0-3.672-1.26-6.804-3.816-9.432-2.556-2.664-5.652-4.032-9.324-4.139l-18.828-.037v51.696h19.584l.036-.037c4.14-.035 7.704-1.51 10.656-4.427 2.952-2.988 4.428-6.552 4.428-10.693 0-5.939-2.916-10.187-8.784-12.779m39.017-23.688l-22.248 51.624h6.187l18.254-42.155.002.003.001-.003 8.999 20.88h-.014l2.479 5.76h.02l6.66 15.515h6.264l-22.248-51.624h-4.356zm55.108 23.04c-7.164-1.693-11.195-4.464-12.132-8.317-.108-.538-.18-1.043-.18-1.51 0-1.765.865-3.421 2.628-4.969 1.981-1.728 4.644-2.808 7.956-3.239.756-.109 1.657-.144 2.736-.144 3.276 0 7.236.899 11.953 2.699l2.087-5.328c-5.327-2.088-10.008-3.131-14.077-3.131-.899 0-2.123.071-3.671.214-4.211.577-7.775 2.126-10.728 4.645-3.095 2.772-4.643 5.832-4.643 9.216 0 1.08.108 2.052.36 2.952 1.511 6.084 6.947 10.259 16.344 12.528 7.091 1.693 11.123 4.464 12.131 8.387.108.685.18 1.153.18 1.44 0 1.837-.936 3.565-2.808 5.149-2.125 1.763-4.932 2.845-8.351 3.168-.757.072-1.441.108-2.125.108-3.528 0-7.883-1.081-13.068-3.204l-2.231 5.256c5.831 2.448 10.943 3.672 15.299 3.672 5.724 0 10.44-1.547 14.148-4.644 3.276-2.881 4.896-6.049 4.896-9.468 0-.936-.108-1.872-.325-2.808-1.762-6.227-7.2-10.44-16.379-12.672m26.668-17.208h16.957v45.792h5.795V90.364h16.957v-5.796h-39.709v5.796z" fill="#442230" fill-rule="nonzero"/><path fill="#442230" d="M514.17 84.906H519.967V136.156H514.17z"/><path d="M552.575 84.532l-22.249 51.624h6.189l18.255-42.155 8.999 20.88h-.012l2.479 5.76h.018l6.66 15.515h6.263L556.93 84.532h-4.355zm74.691 0v41.112l-29.987-41.147h-5.185v51.201h5.761V95.044l29.952 41.076h5.219V84.532h-5.76z" fill="#442230" fill-rule="nonzero"/><path d="M99.8 4.001L19.913 83.889l17.49 17.489 79.887-79.887L99.8 4.001z" fill="#442230"/><path d="M158.31 62.826l-79.887 79.887 17.49 17.489L175.8 80.315l-17.49-17.489z" fill="#c41e54"/><path d="M97.878 64.223L17.991 144.11l17.49 17.49 79.887-79.887-17.49-17.49zm58.071 58.372l-79.888 79.887 17.49 17.49 79.887-79.888-17.489-17.489z" fill="#442230"/><path d="M306.768 149.356v17.28h9.624c.072-.168.096-.36.096-.576 0-.192-.048-.36-.096-.528h-8.376v-7.128h6.936c.072-.168.096-.336.096-.552 0-.192-.048-.36-.096-.528h-6.936v-6.864h8.136c.072-.168.096-.336.096-.576 0-.216-.048-.384-.096-.528h-9.384zm13.68 6.96v-2.208s-.168-.096-.6-.096c-.432 0-.6.096-.6.096v12.432s.168.096.6.096c.432 0 .6-.096.6-.096v-8.76c.768-1.704 1.944-2.856 3.192-2.856.72 0 1.176.144 1.728.432.36-.216.552-.576.576-1.008-.144-.096-.864-.552-2.016-.552-1.008 0-2.4.384-3.48 2.52zm8.184-3.744v1.44h-1.68c-.024.072-.096.216-.096.504 0 .288.072.432.096.504h1.68v11.52s.168.096.6.096c.432 0 .6-.096.6-.096v-11.52h3.696c.024-.072.096-.24.096-.504 0-.288-.072-.432-.096-.504h-3.696v-1.56c0-1.776.456-2.784 2.568-2.784 1.056 0 1.8.264 1.8.264.24-.24.36-.6.336-.96 0 0-.984-.336-2.28-.336-2.88 0-3.624 1.608-3.624 3.936zm7.2 1.944c-.024.096-.024.312.072.552.096.216.24.336.312.384 0 0 1.608-.624 3.456-.624 2.088 0 3.12.84 3.12 3.216v1.632a28.296 28.296 0 0 0-3.456-.216c-3.024 0-4.464 1.248-4.464 3.696 0 2.424 1.512 3.72 3.72 3.72 1.992 0 3.504-.84 4.224-2.352l.192 2.016s.192.096.504.096c.336 0 .48-.096.48-.096v-7.776c0-3.24-.744-4.992-4.176-4.992-2.136 0-3.984.744-3.984.744zm6.96 6.096v1.056c0 2.52-1.608 4.176-3.888 4.176-1.68 0-2.76-.816-2.76-2.688 0-1.968 1.08-2.76 3.384-2.76 1.344 0 2.736.168 3.264.216zm13.872-3.264c0-2.16-1.368-3.576-3.648-3.576-1.848 0-3.312.816-4.272 2.184v-7.224s-.192-.096-.6-.096-.6.096-.6.096v17.808s.192.096.6.096.6-.096.6-.096v-9.024c.792-1.704 2.328-2.712 3.84-2.712 1.896 0 2.88.888 2.88 2.808v8.928s.168.096.6.096c.408 0 .6-.096.6-.096v-9.192zm4.776-1.032v-2.208s-.168-.096-.6-.096c-.432 0-.6.096-.6.096v12.432s.168.096.6.096c.432 0 .6-.096.6-.096v-8.76c.768-1.704 1.944-2.856 3.192-2.856.72 0 1.176.144 1.728.432.36-.216.552-.576.576-1.008-.144-.096-.864-.552-2.016-.552-1.008 0-2.4.384-3.48 2.52zm7.536 6.984c0 2.16 1.368 3.576 3.648 3.576 1.824 0 3.288-.84 4.272-2.184v1.848s.192.096.6.096.6-.096.6-.096v-12.432s-.192-.096-.6-.096-.6.096-.6.096v9.024c-.792 1.728-2.352 2.712-3.84 2.712-1.896 0-2.88-.888-2.88-2.808v-8.928s-.168-.096-.6-.096c-.408 0-.6.096-.6.096v9.192zm21.888-5.952c0-2.16-1.368-3.576-3.648-3.576-1.848 0-3.312.816-4.272 2.184v-1.848s-.192-.096-.6-.096-.6.096-.6.096v12.432s.192.096.6.096.6-.096.6-.096v-9.024c.792-1.704 2.328-2.712 3.84-2.712 1.896 0 2.88.888 2.88 2.808v8.928s.168.096.6.096c.408 0 .6-.096.6-.096v-9.192zm9.984-3c-.672-.36-1.536-.576-2.544-.576-2.784 0-4.392 1.56-4.392 4.152 0 1.752.72 3.024 2.088 3.672-.48.6-1.128 1.584-1.128 2.616 0 .624.24 1.08.6 1.392-.6.408-2.112 1.632-2.112 3.576 0 1.92 1.416 3.456 4.776 3.456 3.888 0 5.856-1.8 5.856-3.912 0-4.776-7.848-2.136-7.92-4.8 0-.888.432-1.608.792-2.04.408.096.912.168 1.44.168 2.832 0 4.392-1.584 4.392-4.128 0-1.176-.336-2.136-.96-2.832l2.28-.144a1.59 1.59 0 0 0 0-1.152l-3.168.552zm.624 3.552c0 2.136-1.272 3.192-3.168 3.192-1.872 0-3.168-1.056-3.168-3.192 0-2.112 1.296-3.168 3.168-3.168 1.896 0 3.168 1.056 3.168 3.168zm1.32 10.944c0 1.68-1.8 2.808-4.632 2.808-2.352 0-3.552-1.056-3.552-2.688 0-1.056.624-2.208 1.704-2.928 2.256.816 6.48 0 6.48 2.808zm4.968-3.648s-.264-.096-.768-.096-.768.096-.768.096v1.344s.264.096.768.096.768-.096.768-.096v-1.344zm13.512-8.088h-3v-7.656s-.192-.096-.6-.096c-.432 0-.648.096-.648.096v17.088s.216.096.624.096c.432 0 .624-.096.624-.096v-8.328h3.024l5.904 8.328s.288.096.768.096c.48 0 .72-.096.72-.096l-6.36-9 5.664-8.088c-.096-.024-.336-.096-.672-.096-.36 0-.6.072-.672.096l-5.376 7.656zm10.848-8.376s-.168-.096-.6-.096c-.432 0-.6.096-.6.096v17.808s.168.096.6.096c.432 0 .6-.096.6-.096v-17.808zm3.864 5.784c-.024.096-.024.312.072.552.096.216.24.336.312.384 0 0 1.608-.624 3.456-.624 2.088 0 3.12.84 3.12 3.216v1.632a28.296 28.296 0 0 0-3.456-.216c-3.024 0-4.464 1.248-4.464 3.696 0 2.424 1.512 3.72 3.72 3.72 1.992 0 3.504-.84 4.224-2.352l.192 2.016s.192.096.504.096c.336 0 .48-.096.48-.096v-7.776c0-3.24-.744-4.992-4.176-4.992-2.136 0-3.984.744-3.984.744zm6.96 6.096v1.056c0 2.52-1.608 4.176-3.888 4.176-1.68 0-2.76-.816-2.76-2.688 0-1.968 1.08-2.76 3.384-2.76 1.344 0 2.736.168 3.264.216zm5.952-4.296v-2.208s-.168-.096-.6-.096c-.432 0-.6.096-.6.096v12.432s.168.096.6.096c.432 0 .6-.096.6-.096v-8.76c.768-1.704 1.944-2.856 3.192-2.856.72 0 1.176.144 1.728.432.36-.216.552-.576.576-1.008-.144-.096-.864-.552-2.016-.552-1.008 0-2.4.384-3.48 2.52zm16.752 1.032c0-2.16-1.368-3.576-3.648-3.576-1.848 0-3.312.816-4.272 2.184v-7.224s-.192-.096-.6-.096-.6.096-.6.096v17.808s.192.096.6.096.6-.096.6-.096v-9.024c.792-1.704 2.328-2.712 3.84-2.712 1.896 0 2.88.888 2.88 2.808v8.928s.168.096.6.096c.408 0 .6-.096.6-.096v-9.192zm12.144 3.36s.264-.936.264-2.424c0-2.688-1.536-4.512-4.416-4.512-2.976 0-5.016 1.944-5.016 6.48 0 4.344 1.728 6.624 4.992 6.624 2.52 0 3.816-1.08 3.816-1.08a1.3 1.3 0 0 0-.504-.936s-1.128.888-3.024.888c-2.592 0-3.864-1.392-4.032-5.04h7.92zm-.984-2.568c0 .96-.12 1.536-.12 1.584h-6.816c.12-3.432 1.584-4.92 3.768-4.92 2.28 0 3.168 1.56 3.168 3.336zm5.592-8.448s-.264-.096-.768-.096-.768.096-.768.096v1.344s.264.096.768.096.768-.096.768-.096v-1.344zm-.168 4.416s-.168-.096-.6-.096c-.432 0-.6.096-.6.096v12.432s.168.096.6.096c.432 0 .6-.096.6-.096v-12.432zm5.616.912h3.672s.12-.168.12-.504c0-.336-.12-.504-.12-.504h-3.672v-2.664a1.835 1.835 0 0 0-1.2.288v2.376h-1.92s-.096.144-.096.504.096.504.096.504h1.92v7.416c0 2.832.84 4.44 3.576 4.44.864 0 1.512-.168 1.632-.192 0 0 .072-.144.072-.456 0-.336-.12-.528-.12-.528s-.6.12-1.296.12c-2.04 0-2.664-1.032-2.664-3.408v-7.392zm7.56 10.176s-.264-.096-.768-.096-.768.096-.768.096v1.344s.264.096.768.096.768-.096.768-.096v-1.344zm9.264-15.84v17.28h5.904c3.576 0 5.112-1.872 5.112-4.632 0-3.336-2.424-4.008-2.736-4.152.384-.216 2.184-1.104 2.184-3.96 0-2.424-1.2-4.536-4.656-4.536h-5.808zm1.248 8.016v-6.936h4.272c2.76 0 3.648 1.368 3.648 3.456s-.96 3.48-3.6 3.48h-4.32zm0 8.184v-7.128h4.488c2.736 0 3.96 1.128 3.96 3.576 0 2.232-1.008 3.552-3.936 3.552h-4.512zm21.48-4.848s.264-.936.264-2.424c0-2.688-1.536-4.512-4.416-4.512-2.976 0-5.016 1.944-5.016 6.48 0 4.344 1.728 6.624 4.992 6.624 2.52 0 3.816-1.08 3.816-1.08a1.3 1.3 0 0 0-.504-.936s-1.128.888-3.024.888c-2.592 0-3.864-1.392-4.032-5.04h7.92zm-.984-2.568c0 .96-.12 1.536-.12 1.584h-6.816c.12-3.432 1.584-4.92 3.768-4.92 2.28 0 3.168 1.56 3.168 3.336zM537 154.348c-.672-.36-1.536-.576-2.544-.576-2.784 0-4.392 1.56-4.392 4.152 0 1.752.72 3.024 2.088 3.672-.48.6-1.128 1.584-1.128 2.616 0 .624.24 1.08.6 1.392-.6.408-2.112 1.632-2.112 3.576 0 1.92 1.416 3.456 4.776 3.456 3.888 0 5.856-1.8 5.856-3.912 0-4.776-7.848-2.136-7.92-4.8 0-.888.432-1.608.792-2.04.408.096.912.168 1.44.168 2.832 0 4.392-1.584 4.392-4.128 0-1.176-.336-2.136-.96-2.832l2.28-.144a1.59 1.59 0 0 0 0-1.152l-3.168.552zm.624 3.552c0 2.136-1.272 3.192-3.168 3.192-1.872 0-3.168-1.056-3.168-3.192 0-2.112 1.296-3.168 3.168-3.168 1.896 0 3.168 1.056 3.168 3.168zm1.32 10.944c0 1.68-1.8 2.808-4.632 2.808-2.352 0-3.552-1.056-3.552-2.688 0-1.056.624-2.208 1.704-2.928 2.256.816 6.48 0 6.48 2.808zm12.072-8.136s.264-.936.264-2.424c0-2.688-1.536-4.512-4.416-4.512-2.976 0-5.016 1.944-5.016 6.48 0 4.344 1.728 6.624 4.992 6.624 2.52 0 3.816-1.08 3.816-1.08a1.3 1.3 0 0 0-.504-.936s-1.128.888-3.024.888c-2.592 0-3.864-1.392-4.032-5.04h7.92zm-.984-2.568c0 .96-.12 1.536-.12 1.584h-6.816c.12-3.432 1.584-4.92 3.768-4.92 2.28 0 3.168 1.56 3.168 3.336zm5.592-8.448s-.264-.096-.768-.096-.768.096-.768.096v1.344s.264.096.768.096.768-.096.768-.096v-1.344zm-.168 4.416s-.168-.096-.6-.096c-.432 0-.6.096-.6.096v12.432s.168.096.6.096c.432 0 .6-.096.6-.096v-12.432zm3.072 3.216c0 2.208 1.848 2.904 3.528 3.384 1.632.456 3.216.816 3.216 2.64 0 1.728-1.32 2.448-3.12 2.448-1.728 0-3.288-.624-3.288-.624-.24.216-.36.576-.336.936 0 0 1.392.768 3.72.768 2.856 0 4.272-1.368 4.272-3.576 0-2.544-2.016-3.096-3.792-3.624-1.512-.432-2.976-.936-2.976-2.4 0-1.584 1.08-2.448 3.144-2.448 1.464 0 2.64.432 2.64.432.24-.192.384-.6.36-.936 0 0-1.176-.552-3.12-.552-2.856 0-4.248 1.44-4.248 3.552zm12.696-2.304h3.672s.12-.168.12-.504c0-.336-.12-.504-.12-.504h-3.672v-2.664a1.835 1.835 0 0 0-1.2.288v2.376h-1.92s-.096.144-.096.504.096.504.096.504h1.92v7.416c0 2.832.84 4.44 3.576 4.44.864 0 1.512-.168 1.632-.192 0 0 .072-.144.072-.456 0-.336-.12-.528-.12-.528s-.6.12-1.296.12c-2.04 0-2.664-1.032-2.664-3.408v-7.392zm14.808 5.688s.264-.936.264-2.424c0-2.688-1.536-4.512-4.416-4.512-2.976 0-5.016 1.944-5.016 6.48 0 4.344 1.728 6.624 4.992 6.624 2.52 0 3.816-1.08 3.816-1.08a1.3 1.3 0 0 0-.504-.936s-1.128.888-3.024.888c-2.592 0-3.864-1.392-4.032-5.04h7.92zm-.984-2.568c0 .96-.12 1.536-.12 1.584h-6.816c.12-3.432 1.584-4.92 3.768-4.92 2.28 0 3.168 1.56 3.168 3.336zm5.352-1.824v-2.208s-.168-.096-.6-.096c-.432 0-.6.096-.6.096v12.432s.168.096.6.096c.432 0 .6-.096.6-.096v-8.76c.768-1.704 1.944-2.856 3.192-2.856.72 0 1.176.144 1.728.432.36-.216.552-.576.576-1.008-.144-.096-.864-.552-2.016-.552-1.008 0-2.4.384-3.48 2.52zm7.536 6.984c0 2.16 1.368 3.576 3.648 3.576 1.824 0 3.288-.84 4.272-2.184v1.848s.192.096.6.096.6-.096.6-.096v-12.432s-.192-.096-.6-.096-.6.096-.6.096v9.024c-.792 1.728-2.352 2.712-3.84 2.712-1.896 0-2.88-.888-2.88-2.808v-8.928s-.168-.096-.6-.096c-.408 0-.6.096-.6.096v9.192zm21.888-5.952c0-2.16-1.368-3.576-3.648-3.576-1.848 0-3.312.816-4.272 2.184v-1.848s-.192-.096-.6-.096-.6.096-.6.096v12.432s.192.096.6.096.6-.096.6-.096v-9.024c.792-1.704 2.328-2.712 3.84-2.712 1.896 0 2.88.888 2.88 2.808v8.928s.168.096.6.096c.408 0 .6-.096.6-.096v-9.192zm9.984-3c-.672-.36-1.536-.576-2.544-.576-2.784 0-4.392 1.56-4.392 4.152 0 1.752.72 3.024 2.088 3.672-.48.6-1.128 1.584-1.128 2.616 0 .624.24 1.08.6 1.392-.6.408-2.112 1.632-2.112 3.576 0 1.92 1.416 3.456 4.776 3.456 3.888 0 5.856-1.8 5.856-3.912 0-4.776-7.848-2.136-7.92-4.8 0-.888.432-1.608.792-2.04.408.096.912.168 1.44.168 2.832 0 4.392-1.584 4.392-4.128 0-1.176-.336-2.136-.96-2.832l2.28-.144a1.59 1.59 0 0 0 0-1.152l-3.168.552zm.624 3.552c0 2.136-1.272 3.192-3.168 3.192-1.872 0-3.168-1.056-3.168-3.192 0-2.112 1.296-3.168 3.168-3.168 1.896 0 3.168 1.056 3.168 3.168zm1.32 10.944c0 1.68-1.8 2.808-4.632 2.808-2.352 0-3.552-1.056-3.552-2.688 0-1.056.624-2.208 1.704-2.928 2.256.816 6.48 0 6.48 2.808zm4.968-3.648s-.264-.096-.768-.096-.768.096-.768.096v1.344s.264.096.768.096.768-.096.768-.096v-1.344z" fill="#c71e55" fill-rule="nonzero"/></g></svg>