<?xml version="1.0" encoding="UTF-8" standalone="no"?>
<!DOCTYPE svg PUBLIC "-//W3C//DTD SVG 1.1//EN" "http://www.w3.org/Graphics/SVG/1.1/DTD/svg11.dtd">
<svg width="100%" height="100%" viewBox="0 0 450 300" version="1.1" xmlns="http://www.w3.org/2000/svg" xmlns:xlink="http://www.w3.org/1999/xlink" xml:space="preserve" xmlns:serif="http://www.serif.com/" style="fill-rule:evenodd;clip-rule:evenodd;stroke-linejoin:round;stroke-miterlimit:1.41421;">
    <g transform="matrix(0.437351,0,0,0.518312,125.288,117.221)">
        <g id="Hintergrund">
            <rect x="-367.355" y="-298.463" width="1191.25" height="722.052" style="fill:rgb(255,247,239);"/>
        </g>
    </g>
    <g id="Ebene-1" serif:id="Ebene 1" transform="matrix(4.16667,0,0,4.16667,0,-86.2042)">
        <g transform="matrix(0.240031,7.47971e-21,7.47971e-21,0.24,-5.23637,-6.73598)">
            <path d="M100.075,353.97C97.915,353.97 96.435,353.53 95.475,353.05C94.835,351.89 94.435,349.29 94.315,348.09C94.315,348.09 93.955,347.89 93.475,347.89C93.195,347.89 92.875,347.97 92.595,348.17C92.515,348.97 92.475,349.73 92.475,350.57C92.475,351.81 92.555,353.17 92.755,354.81C94.035,355.29 96.635,355.97 99.715,355.97C105.555,355.97 108.915,352.33 108.915,348.29C108.915,343.97 106.115,342.45 102.235,340.53L101.835,340.33C98.555,338.69 96.195,337.57 96.195,334.89C96.195,332.01 98.875,330.69 101.515,330.69C103.235,330.69 104.515,331.09 105.235,331.45C105.915,332.49 106.315,335.37 106.475,336.49C106.475,336.49 106.835,336.69 107.315,336.69C107.595,336.69 107.915,336.65 108.195,336.45C108.275,335.61 108.315,334.85 108.315,334.01C108.315,332.77 108.235,331.45 108.035,329.77C106.915,329.41 104.555,328.77 101.715,328.77C96.355,328.81 92.995,331.77 92.995,335.85C92.995,339.77 96.275,341.29 99.555,342.81L100.235,343.13C103.835,344.81 105.715,346.17 105.715,349.17C105.715,351.65 103.795,353.97 100.075,353.97Z" style="fill:rgb(135,32,84);fill-rule:nonzero;"/>
            <path d="M126.955,352.41C125.955,352.97 124.075,353.53 122.555,353.53C118.515,353.53 115.875,351.61 115.875,346.17L115.875,345.57L127.115,345.65C127.395,344.69 127.515,343.73 127.515,342.85C127.515,339.33 125.435,336.57 121.475,336.57C116.995,336.57 112.715,339.73 112.715,346.97C112.715,353.89 116.955,355.97 120.675,355.97C124.195,355.97 126.915,354.17 127.435,353.73L126.955,352.41ZM120.635,338.61C123.235,338.61 124.355,340.21 124.355,342.29C124.355,342.69 124.315,343.09 124.235,343.49L115.955,343.93C116.315,340.29 118.035,338.61 120.635,338.61Z" style="fill:rgb(135,32,84);fill-rule:nonzero;"/>
            <path d="M135.355,326.37C132.755,326.65 129.995,326.89 129.995,326.89C129.995,326.89 129.355,327.29 129.355,328.01C129.355,328.17 129.395,328.33 129.435,328.41C129.435,328.41 130.875,328.53 132.315,328.77L132.315,354.93C134.395,355.65 136.755,355.81 138.515,355.81C143.075,355.81 147.795,352.61 147.795,345.37C147.795,338.73 144.435,336.57 141.075,336.57C138.555,336.57 136.075,338.25 135.355,338.73L135.355,326.37ZM139.115,353.69C137.355,353.69 136.275,353.33 135.355,352.97L135.355,340.33C136.315,339.69 137.955,339.09 139.595,339.09C142.995,339.09 144.555,342.13 144.555,346.49C144.555,352.01 142.515,353.69 139.115,353.69Z" style="fill:rgb(135,32,84);fill-rule:nonzero;"/>
            <path d="M158.875,336.57C156.555,336.57 153.635,337.77 151.955,339.13L152.475,340.53C153.795,339.81 155.235,339.05 157.635,339.05C160.835,339.05 161.195,340.45 161.195,343.61L161.195,344.73L158.515,345.17C154.195,345.89 150.835,347.73 150.835,351.37C150.835,354.05 152.675,355.97 155.755,355.97C158.195,355.97 160.435,354.41 161.355,353.69C161.675,355.21 162.355,355.97 163.915,355.97C165.515,355.97 166.875,355.29 166.875,355.29L166.715,354.37C166.715,354.37 166.315,354.41 166.155,354.41C164.435,354.41 164.115,353.61 164.115,351.01L164.155,342.29C164.155,339.17 163.355,336.57 158.875,336.57ZM156.995,353.45C155.155,353.45 153.995,352.61 153.995,350.69C153.995,348.05 157.195,347.29 159.675,346.73L161.195,346.37L161.155,350.69C161.155,351.29 161.155,351.85 161.195,352.33C160.115,352.97 158.755,353.45 156.995,353.45Z" style="fill:rgb(135,32,84);fill-rule:nonzero;"/>
            <path d="M169.515,354.93C170.555,355.41 172.955,355.97 174.955,355.97C179.635,355.97 182.195,353.01 182.195,349.97C182.195,347.33 180.515,346.13 177.595,344.81C175.115,343.69 172.595,343.09 172.595,341.13C172.595,339.49 173.875,338.37 176.155,338.37C177.475,338.37 178.315,338.53 178.875,338.73C179.475,339.69 179.795,341.53 179.915,342.25C180.155,342.41 180.435,342.49 180.675,342.49C181.035,342.49 181.395,342.33 181.595,342.05C181.635,341.65 181.635,341.17 181.635,340.69C181.635,339.65 181.555,338.49 181.435,337.53C180.355,337.09 178.515,336.57 176.475,336.57C172.435,336.57 169.595,338.61 169.595,341.85C169.595,344.97 171.955,345.93 174.955,347.17C177.075,348.05 179.035,348.85 179.035,350.89C179.035,352.25 178.195,354.09 175.315,354.09C174.155,354.09 172.955,353.93 172.155,353.65C171.635,352.77 171.235,351.25 170.995,349.81C170.755,349.65 170.515,349.57 170.275,349.57C169.875,349.57 169.515,349.73 169.315,350.01C169.275,350.41 169.275,350.89 169.275,351.41C169.275,352.53 169.355,354.05 169.515,354.93Z" style="fill:rgb(135,32,84);fill-rule:nonzero;"/>
            <path d="M190.435,337.01L190.435,332.49L188.795,332.73L187.035,336.89L184.435,338.29L184.595,339.09L187.395,339.09L187.395,351.21C187.395,354.17 187.715,355.85 190.995,355.85C193.275,355.85 195.355,355.21 196.435,354.73L196.155,353.37C195.515,353.53 194.035,353.69 192.995,353.69C190.635,353.69 190.435,352.65 190.435,350.09L190.435,339.09L195.355,339.09C195.755,338.73 196.315,338.13 196.315,336.89L190.435,337.01Z" style="fill:rgb(135,32,84);fill-rule:nonzero;"/>
            <path d="M204.195,336.77C201.515,337.05 198.475,337.29 198.475,337.29C198.475,337.29 197.835,337.73 197.835,338.45C197.835,338.57 197.875,338.77 197.915,338.85C197.915,338.85 199.715,339.05 201.155,339.29L201.155,353.69L199.035,354.21C199.035,354.21 198.355,354.57 198.355,355.25C198.355,355.41 198.395,355.57 198.435,355.65C198.435,355.65 201.075,355.53 202.715,355.53C204.195,355.53 206.435,355.65 206.435,355.65C206.875,355.09 207.035,354.21 207.035,354.21C207.035,354.21 205.355,354.01 204.195,353.69L204.195,336.77ZM200.035,329.45C200.035,330.65 200.875,331.69 202.155,331.69C203.435,331.69 204.275,330.77 204.275,329.53C204.275,328.21 203.555,327.21 202.195,327.21C200.915,327.21 200.035,328.17 200.035,329.45Z" style="fill:rgb(135,32,84);fill-rule:nonzero;"/>
            <path d="M217.515,336.57C215.195,336.57 212.275,337.77 210.595,339.13L211.115,340.53C212.435,339.81 213.875,339.05 216.275,339.05C219.475,339.05 219.835,340.45 219.835,343.61L219.835,344.73L217.155,345.17C212.835,345.89 209.475,347.73 209.475,351.37C209.475,354.05 211.315,355.97 214.395,355.97C216.835,355.97 219.075,354.41 219.995,353.69C220.315,355.21 220.995,355.97 222.555,355.97C224.155,355.97 225.515,355.29 225.515,355.29L225.355,354.37C225.355,354.37 224.955,354.41 224.795,354.41C223.075,354.41 222.755,353.61 222.755,351.01L222.795,342.29C222.795,339.17 221.995,336.57 217.515,336.57ZM215.635,353.45C213.795,353.45 212.635,352.61 212.635,350.69C212.635,348.05 215.835,347.29 218.315,346.73L219.835,346.37L219.795,350.69C219.795,351.29 219.795,351.85 219.835,352.33C218.755,352.97 217.395,353.45 215.635,353.45Z" style="fill:rgb(135,32,84);fill-rule:nonzero;"/>
            <path d="M227.355,338.85C227.355,338.85 229.155,339.05 230.595,339.29L230.595,353.69L228.475,354.21C228.475,354.21 227.795,354.57 227.795,355.25C227.795,355.41 227.835,355.57 227.875,355.65C227.875,355.65 230.515,355.53 232.155,355.53C233.635,355.53 235.875,355.65 235.875,355.65C236.315,355.09 236.475,354.21 236.475,354.21C236.475,354.21 234.795,354.01 233.635,353.69L233.635,340.33C234.595,339.65 236.395,339.09 238.035,339.09C241.555,339.09 242.115,340.89 242.115,343.61L242.115,353.69L239.995,354.21C239.995,354.21 239.315,354.57 239.315,355.25C239.315,355.37 239.315,355.49 239.355,355.65C239.355,355.65 242.115,355.53 243.755,355.53C245.235,355.53 247.435,355.65 247.435,355.65C247.875,355.09 248.035,354.21 248.035,354.21C248.035,354.21 246.555,354.01 245.155,353.69L245.155,342.81C245.155,339.33 244.235,336.57 239.755,336.57C237.355,336.57 234.995,337.77 233.515,338.81C233.515,338.81 233.475,337.65 233.475,336.77C230.875,337.05 227.915,337.29 227.915,337.29C227.915,337.29 227.275,337.73 227.275,338.45C227.275,338.57 227.315,338.77 227.355,338.85Z" style="fill:rgb(135,32,84);fill-rule:nonzero;"/>
            <path d="M266.555,353.97C264.395,353.97 262.915,353.53 261.955,353.05C261.315,351.89 260.915,349.29 260.795,348.09C260.795,348.09 260.435,347.89 259.955,347.89C259.675,347.89 259.355,347.97 259.075,348.17C258.995,348.97 258.955,349.73 258.955,350.57C258.955,351.81 259.035,353.17 259.235,354.81C260.515,355.29 263.115,355.97 266.195,355.97C272.035,355.97 275.395,352.33 275.395,348.29C275.395,343.97 272.595,342.45 268.715,340.53L268.315,340.33C265.035,338.69 262.675,337.57 262.675,334.89C262.675,332.01 265.355,330.69 267.995,330.69C269.715,330.69 270.995,331.09 271.715,331.45C272.395,332.49 272.795,335.37 272.955,336.49C272.955,336.49 273.315,336.69 273.795,336.69C274.075,336.69 274.395,336.65 274.675,336.45C274.755,335.61 274.795,334.85 274.795,334.01C274.795,332.77 274.715,331.45 274.515,329.77C273.395,329.41 271.035,328.77 268.195,328.77C262.835,328.81 259.475,331.77 259.475,335.85C259.475,339.77 262.755,341.29 266.035,342.81L266.715,343.13C270.315,344.81 272.195,346.17 272.195,349.17C272.195,351.65 270.275,353.97 266.555,353.97Z" style="fill:rgb(135,32,84);fill-rule:nonzero;"/>
            <path d="M287.355,355.97C291.635,355.97 296.075,352.81 296.075,345.57C296.075,339.01 292.235,336.57 287.955,336.57C283.635,336.57 279.195,339.77 279.195,346.97C279.195,353.53 283.075,355.97 287.355,355.97ZM282.475,345.85C282.475,340.37 284.435,338.69 287.475,338.69C291.315,338.69 292.795,342.21 292.795,346.73C292.795,352.21 290.875,353.85 287.835,353.85C283.995,353.85 282.475,350.37 282.475,345.85Z" style="fill:rgb(135,32,84);fill-rule:nonzero;"/>
            <path d="M304.715,339.09L308.995,339.09C308.995,339.09 309.955,338.21 309.955,336.89L304.715,337.01L304.715,333.29C304.715,330.29 305.115,328.89 307.155,328.89C308.835,328.89 310.155,329.45 310.955,329.85C311.395,329.37 311.795,328.53 311.795,327.73C311.795,327.45 311.755,327.21 311.675,326.97C311.315,326.85 310.195,326.65 309.195,326.65C304.475,326.65 301.675,330.45 301.675,334.41L301.675,337.05C301.675,337.05 300.235,337.65 299.155,338.33L299.315,339.09L301.675,339.09L301.675,353.69L299.555,354.21C299.555,354.21 298.875,354.57 298.875,355.25C298.875,355.37 298.915,355.53 298.955,355.65C298.955,355.65 301.715,355.53 303.355,355.53C304.835,355.53 307.755,355.65 307.755,355.65C308.195,355.09 308.355,354.13 308.355,354.13C308.355,354.13 306.115,353.93 304.715,353.61L304.715,339.09Z" style="fill:rgb(135,32,84);fill-rule:nonzero;"/>
            <path d="M317.715,337.01L317.715,332.49L316.075,332.73L314.315,336.89L311.715,338.29L311.875,339.09L314.675,339.09L314.675,351.21C314.675,354.17 314.995,355.85 318.275,355.85C320.555,355.85 322.635,355.21 323.715,354.73L323.435,353.37C322.795,353.53 321.315,353.69 320.275,353.69C317.915,353.69 317.715,352.65 317.715,350.09L317.715,339.09L322.635,339.09C323.035,338.73 323.595,338.13 323.595,336.89L317.715,337.01Z" style="fill:rgb(135,32,84);fill-rule:nonzero;"/>
            <path d="M331.715,355.57L333.995,355.57L339.315,342.01L344.555,355.57L346.755,355.57L352.155,338.93L354.075,338.45C354.515,337.89 354.675,337.05 354.675,337.05L347.555,337.05C347.555,337.05 346.875,337.37 346.875,338.05C346.875,338.17 346.915,338.37 346.955,338.45L349.955,338.93L345.955,351.73L340.515,337.05L339.195,337.05L333.595,351.89L329.515,338.93C330.475,338.77 332.315,338.45 332.315,338.45C332.755,337.89 332.915,337.05 332.915,337.05L324.515,337.05C324.515,337.05 323.835,337.37 323.835,338.05C323.835,338.17 323.875,338.37 323.915,338.45L326.235,338.93L331.715,355.57Z" style="fill:rgb(135,32,84);fill-rule:nonzero;"/>
            <path d="M363.595,336.57C361.275,336.57 358.355,337.77 356.675,339.13L357.195,340.53C358.515,339.81 359.955,339.05 362.355,339.05C365.555,339.05 365.915,340.45 365.915,343.61L365.915,344.73L363.235,345.17C358.915,345.89 355.555,347.73 355.555,351.37C355.555,354.05 357.395,355.97 360.475,355.97C362.915,355.97 365.155,354.41 366.075,353.69C366.395,355.21 367.075,355.97 368.635,355.97C370.235,355.97 371.595,355.29 371.595,355.29L371.435,354.37C371.435,354.37 371.035,354.41 370.875,354.41C369.155,354.41 368.835,353.61 368.835,351.01L368.875,342.29C368.875,339.17 368.075,336.57 363.595,336.57ZM361.715,353.45C359.875,353.45 358.715,352.61 358.715,350.69C358.715,348.05 361.915,347.29 364.395,346.73L365.915,346.37L365.875,350.69C365.875,351.29 365.875,351.85 365.915,352.33C364.835,352.97 363.475,353.45 361.715,353.45Z" style="fill:rgb(135,32,84);fill-rule:nonzero;"/>
            <path d="M379.555,336.77C376.955,337.05 373.995,337.29 373.995,337.29C373.995,337.29 373.355,337.73 373.355,338.45C373.355,338.57 373.395,338.77 373.435,338.85C373.435,338.85 375.235,339.05 376.675,339.29L376.675,353.69L374.555,354.21C374.555,354.21 373.875,354.57 373.875,355.25C373.875,355.41 373.915,355.57 373.955,355.65C373.955,355.65 376.595,355.53 378.235,355.53C379.715,355.53 382.755,355.65 382.755,355.65C383.195,355.09 383.355,354.17 383.355,354.17C383.355,354.17 381.075,353.97 379.715,353.65L379.715,341.77C381.115,340.13 382.395,339.73 384.595,339.73C385.355,339.73 385.955,339.81 386.395,339.89C386.675,339.37 386.915,338.53 386.915,337.81C386.915,337.53 386.875,337.25 386.795,337.01C386.475,336.89 385.995,336.77 385.075,336.77C382.515,336.77 380.795,338.85 379.555,340.45L379.555,336.77Z" style="fill:rgb(135,32,84);fill-rule:nonzero;"/>
            <path d="M402.755,352.41C401.755,352.97 399.875,353.53 398.355,353.53C394.315,353.53 391.675,351.61 391.675,346.17L391.675,345.57L402.915,345.65C403.195,344.69 403.315,343.73 403.315,342.85C403.315,339.33 401.235,336.57 397.275,336.57C392.795,336.57 388.515,339.73 388.515,346.97C388.515,353.89 392.755,355.97 396.475,355.97C399.995,355.97 402.715,354.17 403.235,353.73L402.755,352.41ZM396.435,338.61C399.035,338.61 400.155,340.21 400.155,342.29C400.155,342.69 400.115,343.09 400.035,343.49L391.755,343.93C392.115,340.29 393.835,338.61 396.435,338.61Z" style="fill:rgb(135,32,84);fill-rule:nonzero;"/>
        </g>
        <g transform="matrix(0.255068,0,0,0.255068,-14.344,-22.9989)">
            <path d="M126.684,415.229L124.542,415.229L124.542,408.74C124.542,408.74 124.29,408.614 123.786,408.614C123.261,408.614 122.988,408.74 122.988,408.74L122.988,423.608C122.988,423.608 123.261,423.734 123.765,423.734C124.311,423.734 124.542,423.608 124.542,423.608L124.542,416.531L126.705,416.531L131.64,423.608C131.64,423.608 131.997,423.734 132.564,423.734C133.173,423.734 133.467,423.608 133.467,423.608L127.986,415.712L132.858,408.74C132.69,408.677 132.375,408.614 132.018,408.614C131.661,408.614 131.388,408.677 131.22,408.74L126.684,415.229Z" style="fill:rgb(74,34,51);fill-rule:nonzero;"/>
            <path d="M143.757,415.628C143.757,413.738 142.581,412.478 140.523,412.478C139.053,412.478 137.856,413.087 137.037,414.116L137.037,412.793C137.037,412.793 136.785,412.688 136.281,412.688C135.756,412.688 135.525,412.793 135.525,412.793L135.525,423.629C135.525,423.629 135.756,423.734 136.281,423.734C136.785,423.734 137.037,423.629 137.037,423.629L137.037,415.649C137.667,414.452 138.822,413.738 139.977,413.738C141.489,413.738 142.245,414.473 142.245,415.922L142.245,423.629C142.245,423.629 142.476,423.734 143.001,423.734C143.484,423.734 143.757,423.629 143.757,423.629L143.757,415.628Z" style="fill:rgb(74,34,51);fill-rule:nonzero;"/>
            <path d="M146.571,418.211C146.571,422.369 148.251,423.944 151.065,423.944C153.879,423.944 155.559,422.369 155.559,418.211C155.559,414.053 153.879,412.478 151.065,412.478C148.251,412.478 146.571,414.053 146.571,418.211ZM154.005,418.211C154.005,421.718 152.871,422.747 151.065,422.747C149.259,422.747 148.125,421.718 148.125,418.211C148.125,414.704 149.259,413.675 151.065,413.675C152.871,413.675 154.005,414.704 154.005,418.211Z" style="fill:rgb(74,34,51);fill-rule:nonzero;"/>
            <path d="M167.676,423.629C167.907,423.671 168.159,423.734 168.495,423.734C168.831,423.734 169.083,423.671 169.314,423.629L172.674,412.793C172.674,412.793 172.485,412.688 172.002,412.688C171.561,412.688 171.309,412.793 171.309,412.793L169.02,420.122C168.705,421.151 168.579,421.781 168.537,422.054L168.474,422.054C168.432,421.781 168.369,421.109 168.054,420.101L165.786,412.793C165.786,412.793 165.534,412.688 165.03,412.688C164.568,412.688 164.232,412.793 164.232,412.793L161.922,420.143C161.607,421.109 161.502,421.781 161.46,422.054L161.397,422.054C161.355,421.781 161.271,421.13 160.977,420.143L158.667,412.793C158.667,412.793 158.499,412.688 157.974,412.688C157.47,412.688 157.218,412.793 157.218,412.793L160.578,423.629C160.788,423.671 161.061,423.734 161.418,423.734C161.754,423.734 162.027,423.671 162.216,423.629L164.253,417.182C164.778,415.586 164.904,414.767 164.946,414.389L165.009,414.389C165.03,414.767 165.156,415.565 165.639,417.182L167.676,423.629Z" style="fill:rgb(74,34,51);fill-rule:nonzero;"/>
            <path d="M176.58,408.089C176.58,408.089 176.328,407.984 175.824,407.984C175.278,407.984 175.068,408.089 175.068,408.089L175.068,423.629C175.068,423.629 175.278,423.734 175.824,423.734C176.328,423.734 176.58,423.629 176.58,423.629L176.58,408.089Z" style="fill:rgb(74,34,51);fill-rule:nonzero;"/>
            <path d="M187.773,418.694C187.773,418.694 188.004,417.833 188.004,416.531C188.004,413.99 186.597,412.478 184.056,412.478C181.368,412.478 179.541,414.179 179.541,418.148C179.541,421.949 181.053,423.944 184.077,423.944C186.324,423.944 187.479,423.02 187.479,423.02C187.458,422.579 187.227,422.138 186.933,421.907C186.933,421.907 185.967,422.6 184.371,422.6C182.334,422.6 181.263,421.571 181.116,418.694L187.773,418.694ZM186.513,416.363C186.513,417.014 186.471,417.413 186.45,417.56L181.116,417.56C181.242,414.83 182.376,413.717 184.056,413.717C185.862,413.717 186.513,414.935 186.513,416.363Z" style="fill:rgb(74,34,51);fill-rule:nonzero;"/>
            <path d="M197.58,408.089L197.58,414.116C196.95,413.087 195.942,412.478 194.346,412.478C191.889,412.478 190.314,413.927 190.314,418.211C190.314,422.495 191.889,423.944 194.346,423.944C196.005,423.944 197.034,423.272 197.643,422.222L197.79,423.629C197.79,423.629 198.063,423.734 198.462,423.734C198.84,423.734 199.092,423.629 199.092,423.629L199.092,408.089C199.092,408.089 198.861,407.984 198.336,407.984C197.811,407.984 197.58,408.089 197.58,408.089ZM197.58,416.846L197.58,419.534C197.58,421.088 196.635,422.663 194.85,422.663C192.813,422.663 191.889,421.529 191.889,418.211C191.889,414.893 192.813,413.759 194.85,413.759C196.614,413.759 197.559,415.313 197.58,416.846Z" style="fill:rgb(74,34,51);fill-rule:nonzero;"/>
            <path d="M208.248,412.982C207.639,412.667 206.883,412.478 205.98,412.478C203.439,412.478 202.011,413.885 202.011,416.174C202.011,417.728 202.662,418.883 203.88,419.45C203.439,419.996 202.893,420.857 202.893,421.76C202.893,422.306 203.082,422.684 203.376,422.978C202.851,423.314 201.528,424.343 201.528,426.002C201.528,427.682 202.809,428.984 205.833,428.984C209.235,428.984 211.083,427.43 211.083,425.477C211.083,421.235 204.447,423.44 204.3,421.298C204.279,420.647 204.594,420.101 204.867,419.744C205.182,419.828 205.581,419.849 205.98,419.849C208.563,419.849 209.949,418.463 209.949,416.174C209.949,415.208 209.697,414.41 209.214,413.822L211.104,413.78C211.251,413.402 211.251,412.856 211.104,412.499L208.248,412.982ZM208.458,416.153C208.458,417.896 207.471,418.736 205.98,418.736C204.51,418.736 203.502,417.896 203.502,416.153C203.502,414.431 204.51,413.591 205.98,413.591C207.471,413.591 208.458,414.431 208.458,416.153ZM209.613,425.645C209.613,426.947 208.206,427.85 205.875,427.85C203.964,427.85 203.04,426.968 203.04,425.708C203.04,424.847 203.523,423.986 204.3,423.44C206.232,424.091 209.613,423.503 209.613,425.645Z" style="fill:rgb(74,34,51);fill-rule:nonzero;"/>
            <path d="M221.079,418.694C221.079,418.694 221.31,417.833 221.31,416.531C221.31,413.99 219.903,412.478 217.362,412.478C214.674,412.478 212.847,414.179 212.847,418.148C212.847,421.949 214.359,423.944 217.383,423.944C219.63,423.944 220.785,423.02 220.785,423.02C220.764,422.579 220.533,422.138 220.239,421.907C220.239,421.907 219.273,422.6 217.677,422.6C215.64,422.6 214.569,421.571 214.422,418.694L221.079,418.694ZM219.819,416.363C219.819,417.014 219.777,417.413 219.756,417.56L214.422,417.56C214.548,414.83 215.682,413.717 217.362,413.717C219.168,413.717 219.819,414.935 219.819,416.363Z" style="fill:rgb(74,34,51);fill-rule:nonzero;"/>
            <path d="M230.529,417.077C230.529,417.077 230.256,416.972 229.752,416.972C229.227,416.972 228.975,417.077 228.975,417.077L228.975,418.442C228.975,418.442 229.227,418.568 229.752,418.568C230.256,418.568 230.529,418.442 230.529,418.442L230.529,417.077Z" style="fill:rgb(74,34,51);fill-rule:nonzero;"/>
            <path d="M238.446,416.174C238.446,421.361 240.42,423.944 244.326,423.944C246.783,423.944 248.085,423.23 248.085,423.23C248.064,422.789 247.896,422.327 247.602,422.033C247.602,422.033 246.342,422.558 244.494,422.558C241.869,422.558 240.084,421.214 240.084,416.195C240.084,411.176 241.869,409.748 244.494,409.748C246.174,409.748 247.371,410.273 247.371,410.273C247.665,409.979 247.875,409.601 247.854,409.097C247.854,409.097 246.615,408.404 244.326,408.404C240.42,408.404 238.446,411.05 238.446,416.174Z" style="fill:rgb(74,34,51);fill-rule:nonzero;"/>
            <path d="M252.138,408.089C252.138,408.089 251.886,407.984 251.382,407.984C250.836,407.984 250.626,408.089 250.626,408.089L250.626,423.629C250.626,423.629 250.836,423.734 251.382,423.734C251.886,423.734 252.138,423.629 252.138,423.629L252.138,408.089Z" style="fill:rgb(74,34,51);fill-rule:nonzero;"/>
            <path d="M255.729,413.192C255.729,413.255 255.708,413.528 255.834,413.843C255.96,414.137 256.149,414.284 256.191,414.305C256.191,414.305 257.556,413.78 259.131,413.78C260.853,413.78 261.609,414.557 261.609,416.342L261.609,417.476C261.084,417.413 260.034,417.308 258.858,417.308C256.212,417.308 254.889,418.379 254.889,420.584C254.889,422.789 256.191,423.944 258.144,423.944C259.824,423.944 261.084,423.272 261.672,422.054L261.903,423.629C261.903,423.629 262.134,423.734 262.512,423.734C262.932,423.734 263.121,423.629 263.121,423.629L263.121,416.72C263.121,413.927 262.323,412.478 259.32,412.478C257.325,412.478 255.729,413.192 255.729,413.192ZM261.609,418.568L261.609,419.408C261.609,421.298 260.475,422.726 258.627,422.726C257.304,422.726 256.464,422.096 256.464,420.584C256.464,419.03 257.325,418.4 259.068,418.4C260.076,418.4 261.126,418.526 261.609,418.568Z" style="fill:rgb(74,34,51);fill-rule:nonzero;"/>
            <path d="M267.93,414.515L267.93,412.793C267.93,412.793 267.699,412.688 267.174,412.688C266.649,412.688 266.418,412.793 266.418,412.793L266.418,423.629C266.418,423.629 266.649,423.734 267.174,423.734C267.699,423.734 267.93,423.629 267.93,423.629L267.93,415.964C268.56,414.704 269.484,413.864 270.45,413.864C271.017,413.864 271.416,413.99 271.878,414.284C272.298,413.948 272.508,413.549 272.571,413.003C272.277,412.814 271.668,412.499 270.765,412.499C269.904,412.499 268.812,412.898 267.93,414.515Z" style="fill:rgb(74,34,51);fill-rule:nonzero;"/>
            <path d="M276.309,408.761C276.309,408.761 276.015,408.656 275.448,408.656C274.86,408.656 274.587,408.761 274.587,408.761L274.587,410.294C274.587,410.294 274.86,410.399 275.448,410.399C276.015,410.399 276.309,410.294 276.309,410.294L276.309,408.761ZM276.204,412.793C276.204,412.793 275.952,412.688 275.448,412.688C274.902,412.688 274.692,412.793 274.692,412.793L274.692,423.629C274.692,423.629 274.902,423.734 275.448,423.734C275.952,423.734 276.204,423.629 276.204,423.629L276.204,412.793Z" style="fill:rgb(74,34,51);fill-rule:nonzero;"/>
            <path d="M281.79,413.885L284.793,413.885C284.793,413.885 284.898,413.654 284.898,413.276C284.898,412.898 284.793,412.688 284.793,412.688L281.79,412.688L281.79,410.357C281.244,410.315 280.677,410.42 280.278,410.693L280.278,412.688L278.64,412.688C278.64,412.688 278.535,412.877 278.535,413.297C278.535,413.675 278.64,413.885 278.64,413.885L280.278,413.885L280.278,419.975C280.278,422.537 281.139,423.944 283.617,423.944C284.31,423.944 284.877,423.839 285.087,423.776C285.087,423.776 285.171,423.566 285.171,423.209C285.171,422.831 285.045,422.579 285.045,422.579C285.045,422.579 284.541,422.684 284.016,422.684C282.357,422.684 281.79,421.928 281.79,419.912L281.79,413.885Z" style="fill:rgb(74,34,51);fill-rule:nonzero;"/>
            <path d="M296.112,412.793C296.112,412.793 295.839,412.688 295.356,412.688C294.831,412.688 294.6,412.793 294.6,412.793L292.122,419.996C291.681,421.319 291.45,422.243 291.45,422.243L291.387,422.243C291.387,422.243 291.135,421.298 290.631,419.996L287.796,412.793C287.796,412.793 287.523,412.688 286.998,412.688C286.473,412.688 286.2,412.793 286.2,412.793L290.4,423.608C290.568,423.671 290.736,423.713 290.904,423.713L290.274,425.477C289.665,427.304 289.161,427.703 288.258,427.703C287.754,427.703 287.355,427.598 287.355,427.598C287.313,427.64 287.208,427.913 287.208,428.228C287.208,428.522 287.313,428.774 287.334,428.816C287.334,428.816 287.775,428.984 288.405,428.984C290.295,428.984 290.988,427.787 291.66,425.771L296.112,412.793Z" style="fill:rgb(74,34,51);fill-rule:nonzero;"/>
            <path d="M304.323,417.077C304.323,417.077 304.05,416.972 303.546,416.972C303.021,416.972 302.769,417.077 302.769,417.077L302.769,418.442C302.769,418.442 303.021,418.568 303.546,418.568C304.05,418.568 304.323,418.442 304.323,418.442L304.323,417.077Z" style="fill:rgb(74,34,51);fill-rule:nonzero;"/>
            <path d="M312.891,408.614L312.891,423.734L321.438,423.734C321.522,423.524 321.564,423.293 321.564,423.062C321.564,422.831 321.522,422.621 321.438,422.432L314.445,422.432L314.445,416.72L320.178,416.72C320.262,416.51 320.304,416.3 320.304,416.048C320.304,415.838 320.262,415.628 320.178,415.439L314.445,415.439L314.445,409.916L321.228,409.916C321.312,409.727 321.354,409.496 321.354,409.244C321.354,408.992 321.312,408.803 321.228,408.614L312.891,408.614Z" style="fill:rgb(74,34,51);fill-rule:nonzero;"/>
            <path d="M332.442,415.628C332.442,413.738 331.266,412.478 329.208,412.478C327.738,412.478 326.541,413.087 325.722,414.116L325.722,412.793C325.722,412.793 325.47,412.688 324.966,412.688C324.441,412.688 324.21,412.793 324.21,412.793L324.21,423.629C324.21,423.629 324.441,423.734 324.966,423.734C325.47,423.734 325.722,423.629 325.722,423.629L325.722,415.649C326.352,414.452 327.507,413.738 328.662,413.738C330.174,413.738 330.93,414.473 330.93,415.922L330.93,423.629C330.93,423.629 331.161,423.734 331.686,423.734C332.169,423.734 332.442,423.629 332.442,423.629L332.442,415.628Z" style="fill:rgb(74,34,51);fill-rule:nonzero;"/>
            <path d="M337.902,413.885L340.905,413.885C340.905,413.885 341.01,413.654 341.01,413.276C341.01,412.898 340.905,412.688 340.905,412.688L337.902,412.688L337.902,410.357C337.356,410.315 336.789,410.42 336.39,410.693L336.39,412.688L334.752,412.688C334.752,412.688 334.647,412.877 334.647,413.297C334.647,413.675 334.752,413.885 334.752,413.885L336.39,413.885L336.39,419.975C336.39,422.537 337.251,423.944 339.729,423.944C340.422,423.944 340.989,423.839 341.199,423.776C341.199,423.776 341.283,423.566 341.283,423.209C341.283,422.831 341.157,422.579 341.157,422.579C341.157,422.579 340.653,422.684 340.128,422.684C338.469,422.684 337.902,421.928 337.902,419.912L337.902,413.885Z" style="fill:rgb(74,34,51);fill-rule:nonzero;"/>
            <path d="M351.699,415.628C351.699,413.738 350.523,412.478 348.465,412.478C346.995,412.478 345.798,413.087 344.979,414.116L344.979,408.089C344.979,408.089 344.727,407.984 344.223,407.984C343.698,407.984 343.467,408.089 343.467,408.089L343.467,423.629C343.467,423.629 343.698,423.734 344.223,423.734C344.727,423.734 344.979,423.629 344.979,423.629L344.979,415.649C345.609,414.452 346.764,413.738 347.919,413.738C349.431,413.738 350.187,414.473 350.187,415.922L350.187,423.629C350.187,423.629 350.418,423.734 350.943,423.734C351.426,423.734 351.699,423.629 351.699,423.629L351.699,415.628Z" style="fill:rgb(74,34,51);fill-rule:nonzero;"/>
            <path d="M354.912,420.794C354.912,422.684 356.088,423.944 358.146,423.944C359.595,423.944 360.813,423.335 361.632,422.306L361.632,423.629C361.632,423.629 361.884,423.734 362.388,423.734C362.913,423.734 363.144,423.629 363.144,423.629L363.144,412.793C363.144,412.793 362.913,412.688 362.388,412.688C361.884,412.688 361.632,412.793 361.632,412.793L361.632,420.773C360.981,421.991 359.826,422.684 358.713,422.684C357.18,422.684 356.424,421.949 356.424,420.5L356.424,412.793C356.424,412.793 356.193,412.688 355.668,412.688C355.185,412.688 354.912,412.793 354.912,412.793L354.912,420.794Z" style="fill:rgb(74,34,51);fill-rule:nonzero;"/>
            <path d="M365.979,415.67C365.979,417.665 367.554,418.274 369.024,418.694C370.347,419.072 371.649,419.366 371.649,420.752C371.649,422.054 370.662,422.621 369.234,422.621C367.743,422.621 366.378,422.096 366.378,422.096C366.084,422.348 365.937,422.789 365.958,423.23C365.958,423.23 367.218,423.944 369.318,423.944C371.88,423.944 373.161,422.726 373.161,420.71C373.161,418.547 371.565,418.001 370.074,417.539C368.751,417.14 367.449,416.804 367.449,415.607C367.449,414.41 368.31,413.759 369.948,413.759C371.187,413.759 372.195,414.116 372.195,414.116C372.489,413.864 372.636,413.402 372.615,413.003C372.615,413.003 371.649,412.478 369.78,412.478C367.218,412.478 365.979,413.78 365.979,415.67Z" style="fill:rgb(74,34,51);fill-rule:nonzero;"/>
            <path d="M377.508,408.761C377.508,408.761 377.214,408.656 376.647,408.656C376.059,408.656 375.786,408.761 375.786,408.761L375.786,410.294C375.786,410.294 376.059,410.399 376.647,410.399C377.214,410.399 377.508,410.294 377.508,410.294L377.508,408.761ZM377.403,412.793C377.403,412.793 377.151,412.688 376.647,412.688C376.101,412.688 375.891,412.793 375.891,412.793L375.891,423.629C375.891,423.629 376.101,423.734 376.647,423.734C377.151,423.734 377.403,423.629 377.403,423.629L377.403,412.793Z" style="fill:rgb(74,34,51);fill-rule:nonzero;"/>
            <path d="M380.952,413.192C380.952,413.255 380.931,413.528 381.057,413.843C381.183,414.137 381.372,414.284 381.414,414.305C381.414,414.305 382.779,413.78 384.354,413.78C386.076,413.78 386.832,414.557 386.832,416.342L386.832,417.476C386.307,417.413 385.257,417.308 384.081,417.308C381.435,417.308 380.112,418.379 380.112,420.584C380.112,422.789 381.414,423.944 383.367,423.944C385.047,423.944 386.307,423.272 386.895,422.054L387.126,423.629C387.126,423.629 387.357,423.734 387.735,423.734C388.155,423.734 388.344,423.629 388.344,423.629L388.344,416.72C388.344,413.927 387.546,412.478 384.543,412.478C382.548,412.478 380.952,413.192 380.952,413.192ZM386.832,418.568L386.832,419.408C386.832,421.298 385.698,422.726 383.85,422.726C382.527,422.726 381.687,422.096 381.687,420.584C381.687,419.03 382.548,418.4 384.291,418.4C385.299,418.4 386.349,418.526 386.832,418.568Z" style="fill:rgb(74,34,51);fill-rule:nonzero;"/>
            <path d="M391.116,415.67C391.116,417.665 392.691,418.274 394.161,418.694C395.484,419.072 396.786,419.366 396.786,420.752C396.786,422.054 395.799,422.621 394.371,422.621C392.88,422.621 391.515,422.096 391.515,422.096C391.221,422.348 391.074,422.789 391.095,423.23C391.095,423.23 392.355,423.944 394.455,423.944C397.017,423.944 398.298,422.726 398.298,420.71C398.298,418.547 396.702,418.001 395.211,417.539C393.888,417.14 392.586,416.804 392.586,415.607C392.586,414.41 393.447,413.759 395.085,413.759C396.324,413.759 397.332,414.116 397.332,414.116C397.626,413.864 397.773,413.402 397.752,413.003C397.752,413.003 396.786,412.478 394.917,412.478C392.355,412.478 391.116,413.78 391.116,415.67Z" style="fill:rgb(74,34,51);fill-rule:nonzero;"/>
            <path d="M408.546,414.305C408.084,413.024 407.055,412.478 405.774,412.478C404.388,412.478 403.233,413.087 402.477,414.095L402.477,412.793C402.477,412.793 402.225,412.688 401.721,412.688C401.196,412.688 400.965,412.793 400.965,412.793L400.965,423.629C400.965,423.629 401.196,423.734 401.721,423.734C402.225,423.734 402.477,423.629 402.477,423.629L402.477,415.649C403.065,414.452 404.157,413.738 405.228,413.738C406.635,413.738 407.307,414.452 407.307,415.922L407.307,423.629C407.307,423.629 407.538,423.734 408.063,423.734C408.567,423.734 408.819,423.629 408.819,423.629L408.819,415.67C409.428,414.389 410.499,413.738 411.591,413.738C412.998,413.738 413.67,414.452 413.67,415.922L413.67,423.629C413.67,423.629 413.901,423.734 414.426,423.734C414.93,423.734 415.182,423.629 415.182,423.629L415.182,415.628C415.182,413.738 414.09,412.478 412.137,412.478C410.583,412.478 409.386,413.129 408.546,414.305Z" style="fill:rgb(74,34,51);fill-rule:nonzero;"/>
        </g>
        <g transform="matrix(0.565241,-5.109e-19,-5.42192e-19,0.602075,22.0832,19.0179)">
            <g>
                <path d="M35.648,38.639C35.644,38.211 35.66,37.679 35.713,37.573C35.735,37.586 35.752,37.593 35.779,37.903C35.876,38.965 35.881,41.053 35.789,41.181C35.689,41.046 35.64,39.427 35.648,38.639" style="fill:rgb(135,32,84);fill-rule:nonzero;"/>
                <path d="M36.11,41.29C36.099,40.575 36.191,40.16 36.328,40.282C36.372,40.323 36.408,40.413 36.447,40.499C36.78,41.549 36.764,43.612 36.503,43.439C36.318,43.322 36.128,42.26 36.11,41.29" style="fill:rgb(135,32,84);fill-rule:nonzero;"/>
                <path d="M38.678,45.164C38.637,44.465 38.836,44.064 39.124,44.305C39.14,44.318 39.16,44.34 39.172,44.353C39.741,45.04 39.775,46.714 39.345,46.699C39.063,46.688 38.732,45.929 38.678,45.164" style="fill:rgb(135,32,84);fill-rule:nonzero;"/>
                <path d="M40.439,46.501C40.391,45.991 40.537,45.433 40.942,45.716C41.552,46.258 41.61,47.736 41.16,47.775C40.858,47.804 40.506,47.183 40.439,46.501" style="fill:rgb(135,32,84);fill-rule:nonzero;"/>
                <path d="M42.368,47.52C42.312,47.072 42.443,46.56 42.853,46.769C43.472,47.188 43.552,48.499 43.096,48.577C42.798,48.63 42.441,48.116 42.368,47.52" style="fill:rgb(135,32,84);fill-rule:nonzero;"/>
                <path d="M44.384,48.267C44.321,47.87 44.444,47.4 44.846,47.548C45.471,47.876 45.565,49.04 45.114,49.151C44.822,49.222 44.464,48.792 44.384,48.267" style="fill:rgb(135,32,84);fill-rule:nonzero;"/>
                <path d="M46.461,48.792C46.388,48.409 46.526,48.052 46.878,48.144C47.413,48.361 47.55,49.297 47.179,49.477C46.911,49.611 46.55,49.264 46.461,48.792" style="fill:rgb(135,32,84);fill-rule:nonzero;"/>
                <path d="M48.516,49.124C48.453,48.832 48.551,48.46 48.901,48.525C49.411,48.684 49.551,49.502 49.205,49.685C48.954,49.814 48.607,49.53 48.516,49.124" style="fill:rgb(135,32,84);fill-rule:nonzero;"/>
                <path d="M50.576,49.299C50.514,49.051 50.597,48.725 50.912,48.762C51.376,48.872 51.508,49.569 51.2,49.741C50.98,49.872 50.662,49.647 50.576,49.299" style="fill:rgb(135,32,84);fill-rule:nonzero;"/>
                <path d="M52.556,49.343C52.503,49.14 52.567,48.864 52.829,48.876C53.225,48.945 53.346,49.526 53.092,49.689C52.907,49.804 52.638,49.627 52.556,49.343" style="fill:rgb(135,32,84);fill-rule:nonzero;"/>
                <path d="M54.403,49.282C54.353,49.118 54.401,48.889 54.618,48.89C54.937,48.931 55.048,49.405 54.847,49.545C54.697,49.642 54.474,49.512 54.403,49.282" style="fill:rgb(135,32,84);fill-rule:nonzero;"/>
                <path d="M56.119,49.15C56.081,49.017 56.115,48.833 56.288,48.826C56.529,48.847 56.64,49.19 56.492,49.327C56.382,49.435 56.182,49.338 56.119,49.15" style="fill:rgb(135,32,84);fill-rule:nonzero;"/>
                <path d="M57.712,48.955C57.681,48.858 57.706,48.726 57.833,48.713C58.007,48.725 58.09,48.975 57.989,49.073C57.904,49.154 57.764,49.092 57.712,48.955" style="fill:rgb(135,32,84);fill-rule:nonzero;"/>
                <path d="M37.38,50.521C37.306,50.235 37.052,49.287 37.123,49.18C37.149,49.185 37.181,49.228 37.244,49.368C37.618,50.253 38.243,52.534 38.176,52.757C38.026,52.711 37.589,51.281 37.38,50.521" style="fill:rgb(135,32,84);fill-rule:nonzero;"/>
                <path d="M38.482,52.405C38.255,51.616 38.22,51.085 38.405,51.169C38.444,51.19 38.496,51.253 38.53,51.291C39.138,52.14 39.679,54.378 39.359,54.273C39.161,54.206 38.742,53.317 38.482,52.405" style="fill:rgb(135,32,84);fill-rule:nonzero;"/>
                <path d="M40.025,53.851C39.8,53.113 39.833,52.607 40.094,52.721C40.127,52.737 40.171,52.769 40.196,52.79C40.89,53.459 41.358,55.439 40.956,55.406C40.704,55.384 40.265,54.645 40.025,53.851" style="fill:rgb(135,32,84);fill-rule:nonzero;"/>
                <path d="M41.855,54.922C41.644,54.237 41.729,53.764 42.043,53.9C42.058,53.91 42.085,53.923 42.1,53.93C42.83,54.443 43.234,56.178 42.78,56.2C42.51,56.215 42.08,55.616 41.855,54.922" style="fill:rgb(135,32,84);fill-rule:nonzero;"/>
                <path d="M43.862,55.68C43.697,55.191 43.703,54.598 44.136,54.763C44.823,55.125 45.216,56.563 44.805,56.727C44.534,56.832 44.075,56.326 43.862,55.68" style="fill:rgb(135,32,84);fill-rule:nonzero;"/>
                <path d="M45.965,56.19C45.805,55.759 45.83,55.221 46.26,55.333C46.937,55.603 47.29,56.874 46.87,57.058C46.602,57.174 46.162,56.752 45.965,56.19" style="fill:rgb(135,32,84);fill-rule:nonzero;"/>
                <path d="M48.122,56.49C47.971,56.074 48.039,55.668 48.409,55.729C49.039,55.919 49.336,56.993 48.949,57.176C48.697,57.296 48.297,56.961 48.122,56.49" style="fill:rgb(135,32,84);fill-rule:nonzero;"/>
                <path d="M50.265,56.618C50.14,56.307 50.174,55.893 50.545,55.928C51.095,56.051 51.386,56.931 51.069,57.159C50.84,57.326 50.428,57.053 50.265,56.618" style="fill:rgb(135,32,84);fill-rule:nonzero;"/>
                <path d="M52.404,56.612C52.299,56.345 52.329,55.986 52.666,55.995C53.164,56.074 53.414,56.82 53.124,57.04C52.916,57.195 52.55,56.981 52.404,56.612" style="fill:rgb(135,32,84);fill-rule:nonzero;"/>
                <path d="M54.466,56.49C54.374,56.274 54.399,55.967 54.681,55.965C55.105,56.011 55.319,56.628 55.07,56.825C54.903,56.961 54.591,56.793 54.466,56.49" style="fill:rgb(135,32,84);fill-rule:nonzero;"/>
                <path d="M56.385,56.289C56.309,56.113 56.329,55.864 56.561,55.847C56.896,55.871 57.081,56.377 56.888,56.54C56.744,56.661 56.488,56.536 56.385,56.289" style="fill:rgb(135,32,84);fill-rule:nonzero;"/>
                <path d="M58.174,56.028C58.11,55.893 58.128,55.695 58.307,55.677C58.587,55.684 58.732,56.079 58.575,56.218C58.46,56.314 58.259,56.221 58.174,56.028" style="fill:rgb(135,32,84);fill-rule:nonzero;"/>
                <path d="M59.828,55.73C59.789,55.632 59.799,55.482 59.933,55.466C60.128,55.468 60.236,55.753 60.122,55.857C60.043,55.931 59.891,55.869 59.828,55.73" style="fill:rgb(135,32,84);fill-rule:nonzero;"/>
                <path d="M58.244,16.608C57.905,15.503 56.473,14.842 54.655,15.666C52.414,16.886 52.567,19.088 54.348,19.663C56.39,20.317 58.789,18.432 58.244,16.608" style="fill:rgb(135,32,84);fill-rule:nonzero;"/>
                <path d="M51.236,19.652C51.057,18.549 49.912,17.983 48.392,18.992C46.392,20.518 46.441,22.893 48.018,23.159C49.63,23.437 51.521,21.37 51.236,19.652" style="fill:rgb(135,32,84);fill-rule:nonzero;"/>
                <path d="M45.292,23.42C45.221,22.31 44.399,21.798 43.209,22.911C41.564,24.67 41.577,27.154 42.862,27.141C44.042,27.132 45.405,25.045 45.292,23.42" style="fill:rgb(135,32,84);fill-rule:nonzero;"/>
                <path d="M40.688,27.591C40.681,26.572 40.246,26.204 39.673,26.738C39.544,26.863 39.424,27.025 39.339,27.141C38.176,28.953 38.163,31.501 39.077,31.256C39.833,31.057 40.704,29.069 40.688,27.591" style="fill:rgb(135,32,84);fill-rule:nonzero;"/>
                <path d="M37.607,31.758C37.619,30.931 37.466,30.521 37.223,30.741C37.099,30.846 37.001,31.095 36.939,31.225C36.338,32.808 36.289,35.189 36.74,35.052C37.118,34.94 37.584,33.155 37.607,31.758" style="fill:rgb(135,32,84);fill-rule:nonzero;"/>
                <path d="M36.046,35.45C36.054,34.845 36.033,34.481 35.988,34.369C35.988,34.369 35.97,34.367 35.958,34.367C35.92,34.428 35.9,34.516 35.857,34.795C35.681,36.046 35.611,38.167 35.74,38.395C35.753,38.391 35.763,38.388 35.773,38.388C35.91,38.083 36.029,36.445 36.046,35.45" style="fill:rgb(135,32,84);fill-rule:nonzero;"/>
                <path d="M70.383,23.327C69.716,21.583 67.685,20.118 65.576,20.791C62.741,22.065 64.018,25.976 66.889,26.957C69.406,27.816 71.337,25.816 70.383,23.327" style="fill:rgb(135,32,84);fill-rule:nonzero;"/>
                <path d="M62.242,25.689C61.661,23.939 59.784,22.656 57.774,23.621C55.123,25.268 56.209,29.168 58.827,29.848C61.175,30.464 63.057,28.17 62.242,25.689" style="fill:rgb(135,32,84);fill-rule:nonzero;"/>
                <path d="M54.494,29.076C54.009,27.388 52.414,26.27 50.698,27.414C48.329,29.381 49.451,33.293 51.829,33.491C53.717,33.647 55.139,31.297 54.494,29.076" style="fill:rgb(135,32,84);fill-rule:nonzero;"/>
                <path d="M47.874,33.099C47.458,31.477 46.17,30.489 44.833,31.709C42.93,33.856 44.131,37.715 46.05,37.496C47.484,37.337 48.403,35.115 47.874,33.099" style="fill:rgb(135,32,84);fill-rule:nonzero;"/>
                <path d="M42.724,37.394C42.352,35.885 41.387,34.996 40.473,36.196C39.22,38.232 40.238,41.804 41.582,41.556C42.601,41.369 43.177,39.271 42.724,37.394" style="fill:rgb(135,32,84);fill-rule:nonzero;"/>
                <path d="M39.246,41.555C38.92,40.211 38.333,39.582 37.933,40.143C37.882,40.213 37.836,40.32 37.798,40.395C37.155,42.234 38.129,45.548 38.922,45.157C39.461,44.891 39.618,43.107 39.246,41.555" style="fill:rgb(135,32,84);fill-rule:nonzero;"/>
                <path d="M37.455,45.125C37.176,43.984 36.834,43.354 36.659,43.659C36.623,43.729 36.605,43.856 36.59,43.937C36.435,45.549 37.267,48.545 37.653,48.279C37.901,48.11 37.809,46.545 37.455,45.125" style="fill:rgb(135,32,84);fill-rule:nonzero;"/>
                <path d="M36.943,48.116C36.822,47.645 36.609,46.833 36.506,46.678C36.506,46.678 36.497,46.685 36.487,46.685C36.485,46.744 36.487,46.773 36.508,46.938C36.686,48.079 37.335,50.637 37.492,50.794C37.555,50.643 37.141,48.892 36.943,48.116" style="fill:rgb(135,32,84);fill-rule:nonzero;"/>
                <path d="M65.704,14.648C65.276,13.743 63.72,12.732 61.598,13.308C59.373,14.107 59.651,16.075 61.482,16.909C63.712,17.931 66.368,16.662 65.782,14.856C65.762,14.791 65.73,14.709 65.704,14.648" style="fill:rgb(135,32,84);fill-rule:nonzero;"/>
            </g>
            <g>
                <path d="M78.106,51.421C78.108,51.846 78.09,52.381 78.043,52.488C78.019,52.473 78.007,52.464 77.973,52.16C77.878,51.094 77.875,49.012 77.963,48.877C78.065,49.012 78.114,50.631 78.106,51.421" style="fill:rgb(74,34,51);fill-rule:nonzero;"/>
                <path d="M77.64,48.769C77.653,49.486 77.563,49.899 77.424,49.779C77.378,49.738 77.34,49.647 77.307,49.559C76.974,48.511 76.99,46.446 77.259,46.615C77.436,46.735 77.626,47.799 77.64,48.769" style="fill:rgb(74,34,51);fill-rule:nonzero;"/>
                <path d="M75.079,44.894C75.122,45.595 74.919,45.999 74.631,45.755C74.615,45.742 74.598,45.718 74.583,45.708C74.016,45.019 73.98,43.347 74.41,43.362C74.694,43.372 75.019,44.128 75.079,44.894" style="fill:rgb(74,34,51);fill-rule:nonzero;"/>
                <path d="M73.318,43.558C73.366,44.068 73.218,44.623 72.811,44.345C72.203,43.803 72.145,42.323 72.6,42.285C72.897,42.255 73.251,42.876 73.318,43.558" style="fill:rgb(74,34,51);fill-rule:nonzero;"/>
                <path d="M71.385,42.539C71.447,42.99 71.31,43.498 70.906,43.29C70.283,42.873 70.204,41.565 70.662,41.484C70.955,41.431 71.312,41.943 71.385,42.539" style="fill:rgb(74,34,51);fill-rule:nonzero;"/>
                <path d="M69.375,41.793C69.44,42.19 69.31,42.66 68.907,42.511C68.292,42.185 68.195,41.02 68.643,40.909C68.935,40.839 69.291,41.267 69.375,41.793" style="fill:rgb(74,34,51);fill-rule:nonzero;"/>
                <path d="M67.296,41.268C67.367,41.655 67.229,42.01 66.877,41.916C66.34,41.699 66.209,40.762 66.574,40.583C66.842,40.447 67.207,40.797 67.296,41.268" style="fill:rgb(74,34,51);fill-rule:nonzero;"/>
                <path d="M65.238,40.936C65.301,41.228 65.203,41.601 64.854,41.536C64.348,41.378 64.21,40.556 64.551,40.377C64.806,40.246 65.148,40.526 65.238,40.936" style="fill:rgb(74,34,51);fill-rule:nonzero;"/>
                <path d="M63.181,40.762C63.244,41.009 63.163,41.335 62.845,41.298C62.381,41.188 62.245,40.49 62.559,40.317C62.781,40.188 63.095,40.412 63.181,40.762" style="fill:rgb(74,34,51);fill-rule:nonzero;"/>
                <path d="M61.196,40.716C61.256,40.921 61.19,41.196 60.929,41.184C60.53,41.114 60.407,40.532 60.667,40.373C60.85,40.252 61.119,40.43 61.196,40.716" style="fill:rgb(74,34,51);fill-rule:nonzero;"/>
                <path d="M59.351,40.776C59.403,40.943 59.357,41.171 59.14,41.168C58.823,41.13 58.708,40.654 58.913,40.515C59.061,40.418 59.284,40.547 59.351,40.776" style="fill:rgb(74,34,51);fill-rule:nonzero;"/>
                <path d="M57.637,40.912C57.679,41.043 57.645,41.227 57.472,41.23C57.227,41.212 57.119,40.872 57.264,40.734C57.379,40.625 57.572,40.719 57.637,40.912" style="fill:rgb(74,34,51);fill-rule:nonzero;"/>
                <path d="M56.044,41.105C56.075,41.2 56.054,41.334 55.927,41.343C55.747,41.336 55.669,41.088 55.769,40.983C55.849,40.905 55.998,40.969 56.044,41.105" style="fill:rgb(74,34,51);fill-rule:nonzero;"/>
                <path d="M76.371,39.539C76.447,39.825 76.696,40.776 76.633,40.879C76.607,40.873 76.579,40.835 76.516,40.691C76.139,39.808 75.514,37.527 75.581,37.299C75.725,37.349 76.168,38.784 76.371,39.539" style="fill:rgb(74,34,51);fill-rule:nonzero;"/>
                <path d="M75.273,37.651C75.5,38.443 75.531,38.972 75.348,38.889C75.311,38.871 75.255,38.808 75.221,38.771C74.615,37.917 74.078,35.678 74.396,35.789C74.597,35.853 75.013,36.745 75.273,37.651" style="fill:rgb(74,34,51);fill-rule:nonzero;"/>
                <path d="M73.73,36.21C73.955,36.945 73.918,37.454 73.665,37.34C73.625,37.322 73.586,37.292 73.557,37.27C72.863,36.602 72.401,34.621 72.803,34.656C73.047,34.674 73.494,35.416 73.73,36.21" style="fill:rgb(74,34,51);fill-rule:nonzero;"/>
                <path d="M71.898,35.138C72.117,35.823 72.026,36.297 71.71,36.16C71.693,36.15 71.673,36.137 71.655,36.128C70.927,35.615 70.526,33.884 70.971,33.861C71.241,33.844 71.675,34.441 71.898,35.138" style="fill:rgb(74,34,51);fill-rule:nonzero;"/>
                <path d="M69.897,34.379C70.059,34.872 70.055,35.461 69.62,35.298C68.931,34.935 68.543,33.496 68.958,33.333C69.218,33.226 69.677,33.735 69.897,34.379" style="fill:rgb(74,34,51);fill-rule:nonzero;"/>
                <path d="M67.794,33.871C67.946,34.301 67.927,34.838 67.495,34.725C66.818,34.455 66.469,33.184 66.885,33.003C67.151,32.886 67.591,33.308 67.794,33.871" style="fill:rgb(74,34,51);fill-rule:nonzero;"/>
                <path d="M65.632,33.569C65.785,33.982 65.717,34.391 65.343,34.328C64.72,34.14 64.415,33.066 64.81,32.88C65.06,32.763 65.459,33.098 65.632,33.569" style="fill:rgb(74,34,51);fill-rule:nonzero;"/>
                <path d="M63.492,33.441C63.615,33.753 63.581,34.166 63.214,34.132C62.66,34.008 62.371,33.129 62.69,32.9C62.917,32.732 63.327,33.007 63.492,33.441" style="fill:rgb(74,34,51);fill-rule:nonzero;"/>
                <path d="M61.351,33.449C61.462,33.713 61.426,34.072 61.093,34.061C60.597,33.982 60.343,33.24 60.631,33.02C60.837,32.864 61.205,33.079 61.351,33.449" style="fill:rgb(74,34,51);fill-rule:nonzero;"/>
                <path d="M59.29,33.569C59.382,33.788 59.357,34.09 59.073,34.093C58.653,34.048 58.436,33.431 58.684,33.235C58.859,33.098 59.169,33.266 59.29,33.569" style="fill:rgb(74,34,51);fill-rule:nonzero;"/>
                <path d="M57.372,33.771C57.448,33.946 57.424,34.195 57.196,34.212C56.861,34.189 56.679,33.683 56.871,33.521C57.016,33.402 57.268,33.525 57.372,33.771" style="fill:rgb(74,34,51);fill-rule:nonzero;"/>
                <path d="M55.585,34.032C55.643,34.165 55.631,34.368 55.448,34.384C55.168,34.375 55.025,33.982 55.186,33.842C55.305,33.742 55.498,33.838 55.585,34.032" style="fill:rgb(74,34,51);fill-rule:nonzero;"/>
                <path d="M53.925,34.329C53.968,34.43 53.958,34.578 53.827,34.594C53.629,34.592 53.521,34.305 53.635,34.203C53.718,34.127 53.862,34.192 53.925,34.329" style="fill:rgb(74,34,51);fill-rule:nonzero;"/>
                <path d="M55.514,73.447C55.848,74.56 57.283,75.216 59.103,74.394C61.339,73.173 61.192,70.972 59.407,70.402C57.364,69.746 54.962,71.625 55.514,73.447" style="fill:rgb(74,34,51);fill-rule:nonzero;"/>
                <path d="M62.519,70.407C62.704,71.51 63.84,72.074 65.362,71.071C67.362,69.542 67.311,67.167 65.734,66.899C64.127,66.624 62.242,68.691 62.519,70.407" style="fill:rgb(74,34,51);fill-rule:nonzero;"/>
                <path d="M68.462,66.64C68.537,67.748 69.357,68.262 70.551,67.149C72.194,65.39 72.178,62.905 70.889,62.919C69.714,62.928 68.351,65.015 68.462,66.64" style="fill:rgb(74,34,51);fill-rule:nonzero;"/>
                <path d="M73.067,62.469C73.078,63.487 73.511,63.854 74.08,63.319C74.214,63.196 74.327,63.038 74.416,62.918C75.581,61.103 75.59,58.558 74.68,58.802C73.922,59.002 73.055,60.989 73.067,62.469" style="fill:rgb(74,34,51);fill-rule:nonzero;"/>
                <path d="M76.15,58.299C76.132,59.126 76.291,59.539 76.529,59.317C76.652,59.214 76.755,58.966 76.809,58.834C77.416,57.252 77.462,54.869 77.01,55.006C76.632,55.119 76.168,56.904 76.15,58.299" style="fill:rgb(74,34,51);fill-rule:nonzero;"/>
                <path d="M77.71,54.611C77.7,55.215 77.717,55.578 77.764,55.691C77.764,55.691 77.784,55.692 77.794,55.691C77.832,55.629 77.852,55.542 77.896,55.265C78.071,54.013 78.141,51.893 78.014,51.665C78.008,51.668 77.997,51.673 77.981,51.673C77.84,51.979 77.727,53.614 77.71,54.611" style="fill:rgb(74,34,51);fill-rule:nonzero;"/>
                <path d="M43.375,66.734C44.037,68.477 46.063,69.943 48.182,69.27C51.014,67.995 49.729,64.084 46.866,63.1C44.351,62.248 42.426,64.245 43.375,66.734" style="fill:rgb(74,34,51);fill-rule:nonzero;"/>
                <path d="M51.521,64.371C52.098,66.12 53.968,67.403 55.986,66.439C58.635,64.789 57.549,60.892 54.933,60.207C52.581,59.597 50.7,61.89 51.521,64.371" style="fill:rgb(74,34,51);fill-rule:nonzero;"/>
                <path d="M59.268,60.984C59.752,62.675 61.343,63.79 63.057,62.645C65.427,60.68 64.306,56.769 61.93,56.573C60.042,56.415 58.618,58.764 59.268,60.984" style="fill:rgb(74,34,51);fill-rule:nonzero;"/>
                <path d="M65.878,56.961C66.3,58.579 67.587,59.57 68.921,58.351C70.83,56.206 69.625,52.342 67.708,52.563C66.274,52.723 65.351,54.943 65.878,56.961" style="fill:rgb(74,34,51);fill-rule:nonzero;"/>
                <path d="M71.035,52.667C71.407,54.175 72.366,55.065 73.278,53.865C74.531,51.828 73.521,48.259 72.173,48.505C71.154,48.689 70.579,50.792 71.035,52.667" style="fill:rgb(74,34,51);fill-rule:nonzero;"/>
                <path d="M74.509,48.506C74.833,49.848 75.42,50.477 75.822,49.916C75.869,49.847 75.921,49.739 75.955,49.665C76.595,47.829 75.624,44.511 74.828,44.905C74.296,45.167 74.139,46.953 74.509,48.506" style="fill:rgb(74,34,51);fill-rule:nonzero;"/>
                <path d="M76.296,44.932C76.578,46.076 76.918,46.707 77.091,46.4C77.129,46.328 77.152,46.203 77.162,46.123C77.317,44.513 76.49,41.514 76.104,41.779C75.852,41.951 75.946,43.512 76.296,44.932" style="fill:rgb(74,34,51);fill-rule:nonzero;"/>
                <path d="M76.807,41.943C76.932,42.414 77.145,43.226 77.247,43.381C77.253,43.379 77.257,43.378 77.261,43.373C77.269,43.317 77.267,43.287 77.244,43.122C77.066,41.981 76.413,39.421 76.269,39.267C76.198,39.416 76.609,41.165 76.807,41.943" style="fill:rgb(74,34,51);fill-rule:nonzero;"/>
                <path d="M48.058,75.409C48.482,76.315 50.036,77.329 52.16,76.749C54.385,75.957 54.102,73.983 52.279,73.149C50.047,72.13 47.392,73.399 47.97,75.208C47.993,75.268 48.028,75.348 48.058,75.409" style="fill:rgb(74,34,51);fill-rule:nonzero;"/>
            </g>
        </g>
    </g>
</svg>
