<?xml version="1.0" encoding="UTF-8" standalone="no"?><!DOCTYPE svg PUBLIC "-//W3C//DTD SVG 1.1//EN" "http://www.w3.org/Graphics/SVG/1.1/DTD/svg11.dtd"><svg width="100%" height="100%" viewBox="0 0 652 227" version="1.1" xmlns="http://www.w3.org/2000/svg" xmlns:xlink="http://www.w3.org/1999/xlink" xml:space="preserve" xmlns:serif="http://www.serif.com/" style="fill-rule:evenodd;clip-rule:evenodd;stroke-linejoin:round;stroke-miterlimit:1.41421;"><g id="Layer-1" serif:id="Layer 1"><g id="Text"><path d="M233.559,107.572c-7.164,-1.693 -11.196,-4.464 -12.131,-8.317c-0.109,-0.538 -0.18,-1.043 -0.18,-1.51c0,-1.765 0.863,-3.421 2.628,-4.969c1.979,-1.728 4.643,-2.808 7.956,-3.239c0.756,-0.109 1.656,-0.144 2.736,-0.144c3.275,0 7.235,0.899 11.952,2.699l2.087,-5.328c-5.327,-2.088 -10.008,-3.131 -14.076,-3.131c-0.899,0 -2.124,0.071 -3.672,0.214c-4.211,0.577 -7.775,2.126 -10.727,4.645c-3.096,2.772 -4.644,5.832 -4.644,9.216c0,1.08 0.108,2.052 0.36,2.952c1.511,6.084 6.948,10.259 16.344,12.528c7.092,1.693 11.124,4.464 12.132,8.387c0.107,0.685 0.179,1.153 0.179,1.44c0,1.837 -0.935,3.565 -2.808,5.149c-2.123,1.763 -4.932,2.845 -8.351,3.168c-0.756,0.072 -1.441,0.108 -2.124,0.108c-3.529,0 -7.884,-1.081 -13.068,-3.204l-2.233,5.256c5.832,2.448 10.944,3.672 15.301,3.672c5.723,0 10.439,-1.547 14.148,-4.644c3.275,-2.881 4.896,-6.049 4.896,-9.468c0,-0.936 -0.109,-1.872 -0.325,-2.808c-1.764,-6.227 -7.2,-10.44 -16.38,-12.672" style="fill:#442230;fill-rule:nonzero;"/><path d="M265.124,136.156l34.379,0l0,-5.832l-28.583,0l0,-18.179l22.139,0l0,-5.76l-22.139,0l0,-16.021l28.583,0.037l0,-5.797l-34.379,-0.036l0,51.588Z" style="fill:#442230;fill-rule:nonzero;"/><path d="M341.076,127.623c-1.8,1.765 -3.996,2.665 -6.624,2.701l-13.716,0.035l0,-18.683l13.32,0c2.772,0 5.112,0.936 7.02,2.772c1.8,1.836 2.7,3.996 2.7,6.551c0,2.557 -0.9,4.789 -2.7,6.624m-20.34,-37.366l12.492,0c2.196,0 4.032,0.755 5.544,2.267c1.548,1.548 2.304,3.419 2.304,5.544c0,2.16 -0.756,3.996 -2.304,5.544l0,-0.037c-1.548,1.514 -3.348,2.269 -5.472,2.304l-12.564,0l0,-15.622Zm20.088,17.963c4.032,-2.341 6.048,-5.723 6.048,-10.152c0,-3.672 -1.26,-6.804 -3.816,-9.432c-2.556,-2.664 -5.652,-4.032 -9.324,-4.139l-18.828,-0.037l0,51.696l19.584,0l0.036,-0.037c4.14,-0.035 7.704,-1.51 10.656,-4.427c2.952,-2.988 4.428,-6.552 4.428,-10.693c0,-5.939 -2.916,-10.187 -8.784,-12.779" style="fill:#442230;fill-rule:nonzero;"/><path d="M379.841,84.532l-22.248,51.624l6.187,0l18.254,-42.155l0.002,0.003l0.001,-0.003l8.999,20.88l-0.014,0l2.479,5.76l0.02,0l6.66,15.515l6.264,0l-22.248,-51.624l-4.356,0Z" style="fill:#442230;fill-rule:nonzero;"/><path d="M434.949,107.572c-7.164,-1.693 -11.195,-4.464 -12.132,-8.317c-0.108,-0.538 -0.18,-1.043 -0.18,-1.51c0,-1.765 0.865,-3.421 2.628,-4.969c1.981,-1.728 4.644,-2.808 7.956,-3.239c0.756,-0.109 1.657,-0.144 2.736,-0.144c3.276,0 7.236,0.899 11.953,2.699l2.087,-5.328c-5.327,-2.088 -10.008,-3.131 -14.077,-3.131c-0.899,0 -2.123,0.071 -3.671,0.214c-4.211,0.577 -7.775,2.126 -10.728,4.645c-3.095,2.772 -4.643,5.832 -4.643,9.216c0,1.08 0.108,2.052 0.36,2.952c1.511,6.084 6.947,10.259 16.344,12.528c7.091,1.693 11.123,4.464 12.131,8.387c0.108,0.685 0.18,1.153 0.18,1.44c0,1.837 -0.936,3.565 -2.808,5.149c-2.125,1.763 -4.932,2.845 -8.351,3.168c-0.757,0.072 -1.441,0.108 -2.125,0.108c-3.528,0 -7.883,-1.081 -13.068,-3.204l-2.231,5.256c5.831,2.448 10.943,3.672 15.299,3.672c5.724,0 10.44,-1.547 14.148,-4.644c3.276,-2.881 4.896,-6.049 4.896,-9.468c0,-0.936 -0.108,-1.872 -0.325,-2.808c-1.762,-6.227 -7.2,-10.44 -16.379,-12.672" style="fill:#442230;fill-rule:nonzero;"/><path d="M461.617,90.364l16.957,0l0,45.792l5.795,0l0,-45.792l16.957,0l0,-5.796l-39.709,0l0,5.796Z" style="fill:#442230;fill-rule:nonzero;"/><rect x="514.17" y="84.906" width="5.797" height="51.25" style="fill:#442230;"/><path d="M552.575,84.532l-22.249,51.624l6.189,0l18.255,-42.155l8.999,20.88l-0.012,0l2.479,5.76l0.018,0l6.66,15.515l6.263,0l-22.247,-51.624l-4.355,0Z" style="fill:#442230;fill-rule:nonzero;"/><path d="M627.266,84.532l0,41.112l-29.987,-41.147l-5.185,0l0,51.201l5.761,0l0,-40.654l29.952,41.076l5.219,0l0,-51.588l-5.76,0Z" style="fill:#442230;fill-rule:nonzero;"/></g><g id="Logo"><path d="M99.8,4.001l-79.887,79.888l17.49,17.489l79.887,-79.887l-17.49,-17.49Z" style="fill:#442230;"/><path d="M158.31,62.826l-79.887,79.887l17.49,17.489l79.887,-79.887l-17.49,-17.489Z" style="fill:#c41e54;"/><path d="M97.878,64.223l-79.887,79.887l17.49,17.49l79.887,-79.887l-17.49,-17.49Z" style="fill:#442230;"/><path d="M155.949,122.595l-79.888,79.887l17.49,17.49l79.887,-79.888l-17.489,-17.489Z" style="fill:#442230;"/></g><text x="304.32px" y="166.636px" style="font-family:'GloberBook', 'Glober';font-size:24px;fill:#c71e55;">E<tspan x="317.184px 326.016px 333.672px 345.48px 358.176px 367.008px 379.68px 392.352px 404.376px 409.128px 414.576px 428.736px 433.824px 445.632px 454.464px 467.16px 478.896px 483.888px 492.024px 496.776px 502.224px 516.768px 528.504px 540.384px 552.12px 557.112px 567.264px 575.4px 587.136px 595.968px 608.64px 621.312px 633.336px " y="166.636px 166.636px 166.636px 166.636px 166.636px 166.636px 166.636px 166.636px 166.636px 166.636px 166.636px 166.636px 166.636px 166.636px 166.636px 166.636px 166.636px 166.636px 166.636px 166.636px 166.636px 166.636px 166.636px 166.636px 166.636px 166.636px 166.636px 166.636px 166.636px 166.636px 166.636px 166.636px 166.636px ">rfahrung. Klarheit. Begeisterung.</tspan></text></g></svg>