<svg viewBox="0 0 450 300" xmlns="http://www.w3.org/2000/svg" xmlns:serif="http://www.serif.com/" fill-rule="evenodd" clip-rule="evenodd" stroke-linejoin="round" stroke-miterlimit="1.414"><path fill="#fff7ef" d="M-35.375-37.476h520.994v374.248H-35.375z"/><g serif:id="Ebene 1" fill-rule="nonzero"><g fill="#872054"><path d="M78.268 239.7c-2.16 0-3.64-.44-4.6-.92-.64-1.16-1.04-3.76-1.16-4.96 0 0-.36-.2-.84-.2-.28 0-.6.08-.88.28-.08.8-.12 1.56-.12 2.4 0 1.24.08 2.6.28 4.24 1.28.48 3.88 1.16 6.96 1.16 5.84 0 9.2-3.64 9.2-7.68 0-4.32-2.8-5.84-6.68-7.76l-.4-.2c-3.28-1.64-5.64-2.76-5.64-5.44 0-2.88 2.68-4.2 5.32-4.2 1.72 0 3 .4 3.72.76.68 1.04 1.08 3.92 1.24 5.04 0 0 .36.2.84.2.28 0 .6-.04.88-.24.08-.84.12-1.6.12-2.44 0-1.24-.08-2.56-.28-4.24-1.12-.36-3.48-1-6.32-1-5.36.04-8.72 3-8.72 7.08 0 3.92 3.28 5.44 6.56 6.96l.68.32c3.6 1.68 5.48 3.04 5.48 6.04 0 2.48-1.92 4.8-5.64 4.8zM105.148 238.14c-1 .56-2.88 1.12-4.4 1.12-4.04 0-6.68-1.92-6.68-7.36v-.6l11.24.08c.28-.96.4-1.92.4-2.8 0-3.52-2.08-6.28-6.04-6.28-4.48 0-8.76 3.16-8.76 10.4 0 6.92 4.24 9 7.96 9 3.52 0 6.24-1.8 6.76-2.24l-.48-1.32zm-6.32-13.8c2.6 0 3.72 1.6 3.72 3.68 0 .4-.04.8-.12 1.2l-8.28.44c.36-3.64 2.08-5.32 4.68-5.32zM113.548 212.1c-2.6.28-5.36.52-5.36.52s-.64.4-.64 1.12c0 .16.04.32.08.4 0 0 1.44.12 2.88.36v26.16c2.08.72 4.44.88 6.2.88 4.56 0 9.28-3.2 9.28-10.44 0-6.64-3.36-8.8-6.72-8.8-2.52 0-5 1.68-5.72 2.16V212.1zm3.76 27.32c-1.76 0-2.84-.36-3.76-.72v-12.64c.96-.64 2.6-1.24 4.24-1.24 3.4 0 4.96 3.04 4.96 7.4 0 5.52-2.04 7.2-5.44 7.2zM137.068 222.3c-2.32 0-5.24 1.2-6.92 2.56l.52 1.4c1.32-.72 2.76-1.48 5.16-1.48 3.2 0 3.56 1.4 3.56 4.56v1.12l-2.68.44c-4.32.72-7.68 2.56-7.68 6.2 0 2.68 1.84 4.6 4.92 4.6 2.44 0 4.68-1.56 5.6-2.28.32 1.52 1 2.28 2.56 2.28 1.6 0 2.96-.68 2.96-.68l-.16-.92s-.4.04-.56.04c-1.72 0-2.04-.8-2.04-3.4l.04-8.72c0-3.12-.8-5.72-5.28-5.72zm-1.88 16.88c-1.84 0-3-.84-3-2.76 0-2.64 3.2-3.4 5.68-3.96l1.52-.36-.04 4.32c0 .6 0 1.16.04 1.64-1.08.64-2.44 1.12-4.2 1.12zM147.708 240.66c1.04.48 3.44 1.04 5.44 1.04 4.68 0 7.24-2.96 7.24-6 0-2.64-1.68-3.84-4.6-5.16-2.48-1.12-5-1.72-5-3.68 0-1.64 1.28-2.76 3.56-2.76 1.32 0 2.16.16 2.72.36.6.96.92 2.8 1.04 3.52.24.16.52.24.76.24.36 0 .72-.16.92-.44.04-.4.04-.88.04-1.36 0-1.04-.08-2.2-.2-3.16-1.08-.44-2.92-.96-4.96-.96-4.04 0-6.88 2.04-6.88 5.28 0 3.12 2.36 4.08 5.36 5.32 2.12.88 4.08 1.68 4.08 3.72 0 1.36-.84 3.2-3.72 3.2-1.16 0-2.36-.16-3.16-.44-.52-.88-.92-2.4-1.16-3.84a1.29 1.29 0 0 0-.72-.24c-.4 0-.76.16-.96.44-.04.4-.04.88-.04 1.4 0 1.12.08 2.64.24 3.52zM168.628 222.74v-4.52l-1.64.24-1.76 4.16-2.6 1.4.16.8h2.8v12.12c0 2.96.32 4.64 3.6 4.64 2.28 0 4.36-.64 5.44-1.12l-.28-1.36c-.64.16-2.12.32-3.16.32-2.36 0-2.56-1.04-2.56-3.6v-11h4.92c.4-.36.96-.96.96-2.2l-5.88.12zM182.388 222.5c-2.68.28-5.72.52-5.72.52s-.64.44-.64 1.16c0 .12.04.32.08.4 0 0 1.8.2 3.24.44v14.4l-2.12.52s-.68.36-.68 1.04c0 .16.04.32.08.4 0 0 2.64-.12 4.28-.12 1.48 0 3.72.12 3.72.12.44-.56.6-1.44.6-1.44s-1.68-.2-2.84-.52V222.5zm-4.16-7.32c0 1.2.84 2.24 2.12 2.24 1.28 0 2.12-.92 2.12-2.16 0-1.32-.72-2.32-2.08-2.32-1.28 0-2.16.96-2.16 2.24zM195.708 222.3c-2.32 0-5.24 1.2-6.92 2.56l.52 1.4c1.32-.72 2.76-1.48 5.16-1.48 3.2 0 3.56 1.4 3.56 4.56v1.12l-2.68.44c-4.32.72-7.68 2.56-7.68 6.2 0 2.68 1.84 4.6 4.92 4.6 2.44 0 4.68-1.56 5.6-2.28.32 1.52 1 2.28 2.56 2.28 1.6 0 2.96-.68 2.96-.68l-.16-.92s-.4.04-.56.04c-1.72 0-2.04-.8-2.04-3.4l.04-8.72c0-3.12-.8-5.72-5.28-5.72zm-1.88 16.88c-1.84 0-3-.84-3-2.76 0-2.64 3.2-3.4 5.68-3.96l1.52-.36-.04 4.32c0 .6 0 1.16.04 1.64-1.08.64-2.44 1.12-4.2 1.12zM205.548 224.58s1.8.2 3.24.44v14.4l-2.12.52s-.68.36-.68 1.04c0 .16.04.32.08.4 0 0 2.64-.12 4.28-.12 1.48 0 3.72.12 3.72.12.44-.56.6-1.44.6-1.44s-1.68-.2-2.84-.52v-13.36c.96-.68 2.76-1.24 4.4-1.24 3.52 0 4.08 1.8 4.08 4.52v10.08l-2.12.52s-.68.36-.68 1.04c0 .12 0 .24.04.4 0 0 2.76-.12 4.4-.12 1.48 0 3.68.12 3.68.12.44-.56.6-1.44.6-1.44s-1.48-.2-2.88-.52v-10.88c0-3.48-.92-6.24-5.4-6.24-2.4 0-4.76 1.2-6.24 2.24 0 0-.04-1.16-.04-2.04-2.6.28-5.56.52-5.56.52s-.64.44-.64 1.16c0 .12.04.32.08.4zM244.749 239.7c-2.16 0-3.64-.44-4.6-.92-.64-1.16-1.04-3.76-1.16-4.96 0 0-.36-.2-.84-.2-.28 0-.6.08-.88.28-.08.8-.12 1.56-.12 2.4 0 1.24.08 2.6.28 4.24 1.28.48 3.88 1.16 6.96 1.16 5.84 0 9.2-3.64 9.2-7.68 0-4.32-2.8-5.84-6.68-7.76l-.4-.2c-3.28-1.64-5.64-2.76-5.64-5.44 0-2.88 2.68-4.2 5.32-4.2 1.72 0 3 .4 3.72.76.68 1.04 1.08 3.92 1.24 5.04 0 0 .36.2.84.2.28 0 .6-.04.88-.24.08-.84.12-1.6.12-2.44 0-1.24-.08-2.56-.28-4.24-1.12-.36-3.48-1-6.32-1-5.36.04-8.72 3-8.72 7.08 0 3.92 3.28 5.44 6.56 6.96l.68.32c3.6 1.68 5.48 3.04 5.48 6.04 0 2.48-1.92 4.8-5.64 4.8zM265.549 241.7c4.28 0 8.72-3.16 8.72-10.4 0-6.56-3.84-9-8.12-9-4.32 0-8.76 3.2-8.76 10.4 0 6.56 3.88 9 8.16 9zm-4.88-10.12c0-5.48 1.96-7.16 5-7.16 3.84 0 5.32 3.52 5.32 8.04 0 5.48-1.92 7.12-4.96 7.12-3.84 0-5.36-3.48-5.36-8zM282.909 224.82h4.28s.96-.88.96-2.2l-5.24.12v-3.72c0-3 .4-4.4 2.44-4.4 1.68 0 3 .56 3.8.96.44-.48.84-1.32.84-2.12 0-.28-.04-.52-.12-.76-.36-.12-1.48-.32-2.48-.32-4.72 0-7.52 3.8-7.52 7.76v2.64s-1.44.6-2.52 1.28l.16.76h2.36v14.6l-2.12.52s-.68.36-.68 1.04c0 .12.04.28.08.4 0 0 2.76-.12 4.4-.12 1.48 0 4.4.12 4.4.12.44-.56.6-1.52.6-1.52s-2.24-.2-3.64-.52v-14.52zM295.909 222.74v-4.52l-1.64.24-1.76 4.16-2.6 1.4.16.8h2.8v12.12c0 2.96.32 4.64 3.6 4.64 2.28 0 4.36-.64 5.44-1.12l-.28-1.36c-.64.16-2.12.32-3.16.32-2.36 0-2.56-1.04-2.56-3.6v-11h4.92c.4-.36.96-.96.96-2.2l-5.88.12zM309.909 241.3h2.28l5.32-13.56 5.24 13.56h2.2l5.4-16.64 1.92-.48c.44-.56.6-1.4.6-1.4h-7.12s-.68.32-.68 1c0 .12.04.32.08.4l3 .48-4 12.8-5.44-14.68h-1.32l-5.6 14.84-4.08-12.96c.96-.16 2.8-.48 2.8-.48.44-.56.6-1.4.6-1.4h-8.4s-.68.32-.68 1c0 .12.04.32.08.4l2.32.48 5.48 16.64zM341.789 222.3c-2.32 0-5.24 1.2-6.92 2.56l.52 1.4c1.32-.72 2.76-1.48 5.16-1.48 3.2 0 3.56 1.4 3.56 4.56v1.12l-2.68.44c-4.32.72-7.68 2.56-7.68 6.2 0 2.68 1.84 4.6 4.92 4.6 2.44 0 4.68-1.56 5.6-2.28.32 1.52 1 2.28 2.56 2.28 1.6 0 2.96-.68 2.96-.68l-.16-.92s-.4.04-.56.04c-1.72 0-2.04-.8-2.04-3.4l.04-8.72c0-3.12-.8-5.72-5.28-5.72zm-1.88 16.88c-1.84 0-3-.84-3-2.76 0-2.64 3.2-3.4 5.68-3.96l1.52-.36-.04 4.32c0 .6 0 1.16.04 1.64-1.08.64-2.44 1.12-4.2 1.12zM357.749 222.5c-2.6.28-5.56.52-5.56.52s-.64.44-.64 1.16c0 .12.04.32.08.4 0 0 1.8.2 3.24.44v14.4l-2.12.52s-.68.36-.68 1.04c0 .16.04.32.08.4 0 0 2.64-.12 4.28-.12 1.48 0 4.52.12 4.52.12.44-.56.6-1.48.6-1.48s-2.28-.2-3.64-.52V227.5c1.4-1.64 2.68-2.04 4.88-2.04.76 0 1.36.08 1.8.16.28-.52.52-1.36.52-2.08 0-.28-.04-.56-.12-.8-.32-.12-.8-.24-1.72-.24-2.56 0-4.28 2.08-5.52 3.68v-3.68zM380.949 238.14c-1 .56-2.88 1.12-4.4 1.12-4.04 0-6.68-1.92-6.68-7.36v-.6l11.24.08c.28-.96.4-1.92.4-2.8 0-3.52-2.08-6.28-6.04-6.28-4.48 0-8.76 3.16-8.76 10.4 0 6.92 4.24 9 7.96 9 3.52 0 6.24-1.8 6.76-2.24l-.48-1.32zm-6.32-13.8c2.6 0 3.72 1.6 3.72 3.68 0 .4-.04.8-.12 1.2l-8.28.44c.36-3.64 2.08-5.32 4.68-5.32z"/></g><g fill="#4a2233"><path d="M71.188 253.196v15.12h8.547c.084-.21.126-.441.126-.672 0-.231-.042-.441-.126-.63h-6.993v-5.712h5.733c.084-.21.126-.42.126-.672 0-.21-.042-.42-.126-.61h-5.733v-5.522h6.783c.084-.19.126-.42.126-.672 0-.252-.042-.441-.126-.63h-8.337zM84.02 259.097v-1.722s-.232-.105-.757-.105-.756.105-.756.105v10.836s.231.105.756.105.756-.105.756-.105v-7.665c.63-1.26 1.554-2.1 2.52-2.1.567 0 .966.126 1.428.42.42-.336.63-.735.693-1.281-.294-.19-.903-.504-1.806-.504-.86 0-1.953.399-2.835 2.016zM91.222 256.01v1.26h-1.428a1.84 1.84 0 0 0-.084.588c0 .273.042.462.084.609h1.428v9.744s.231.105.756.105.756-.105.756-.105v-9.744h2.961c.042-.147.105-.336.105-.588 0-.273-.063-.462-.105-.61h-2.96v-1.364c0-1.365.377-2.1 1.931-2.1.966 0 1.617.23 1.617.23.273-.293.4-.671.4-1.112 0 0-.883-.357-2.143-.357-2.562 0-3.318 1.407-3.318 3.444zM98.005 257.774c0 .063-.02.336.105.65.126.295.315.442.357.463 0 0 1.365-.525 2.94-.525 1.722 0 2.478.777 2.478 2.562v1.134a23.945 23.945 0 0 0-2.75-.168c-2.647 0-3.97 1.07-3.97 3.276 0 2.205 1.302 3.36 3.255 3.36 1.68 0 2.94-.672 3.528-1.89l.231 1.575s.231.105.61.105c.42 0 .608-.105.608-.105v-6.91c0-2.792-.798-4.241-3.8-4.241-1.996 0-3.592.714-3.592.714zm5.88 5.376v.84c0 1.89-1.134 3.318-2.982 3.318-1.323 0-2.163-.63-2.163-2.142 0-1.554.861-2.184 2.604-2.184 1.008 0 2.058.126 2.541.168zM116.926 260.21c0-1.89-1.176-3.15-3.234-3.15-1.47 0-2.667.609-3.486 1.638v-6.027s-.252-.105-.756-.105c-.525 0-.756.105-.756.105v15.54s.231.105.756.105c.504 0 .756-.105.756-.105v-7.98c.63-1.197 1.785-1.911 2.94-1.911 1.512 0 2.268.735 2.268 2.184v7.707s.231.105.756.105c.483 0 .756-.105.756-.105v-8.001zM121.735 259.097v-1.722s-.23-.105-.756-.105c-.525 0-.756.105-.756.105v10.836s.231.105.756.105.756-.105.756-.105v-7.665c.63-1.26 1.554-2.1 2.52-2.1.567 0 .966.126 1.428.42.42-.336.63-.735.693-1.281-.294-.19-.903-.504-1.806-.504-.86 0-1.953.399-2.835 2.016zM128.35 265.376c0 1.89 1.176 3.15 3.234 3.15 1.45 0 2.667-.61 3.486-1.638v1.323s.252.105.756.105c.525 0 .756-.105.756-.105v-10.836s-.23-.105-.756-.105c-.504 0-.756.105-.756.105v7.98c-.65 1.218-1.806 1.91-2.919 1.91-1.533 0-2.289-.734-2.289-2.183v-7.707s-.23-.105-.756-.105c-.483 0-.756.105-.756.105v8zM148.174 260.21c0-1.89-1.176-3.15-3.234-3.15-1.47 0-2.667.609-3.486 1.638v-1.323s-.252-.105-.756-.105c-.525 0-.756.105-.756.105v10.836s.231.105.756.105c.504 0 .756-.105.756-.105v-7.98c.63-1.197 1.785-1.911 2.94-1.911 1.512 0 2.268.735 2.268 2.184v7.707s.231.105.756.105c.483 0 .756-.105.756-.105v-8.001zM157.267 257.564c-.609-.315-1.365-.504-2.268-.504-2.54 0-3.969 1.407-3.969 3.696 0 1.554.651 2.709 1.87 3.276-.442.546-.988 1.407-.988 2.31 0 .546.19.924.483 1.218-.525.336-1.848 1.365-1.848 3.024 0 1.68 1.281 2.982 4.305 2.982 3.402 0 5.25-1.554 5.25-3.507 0-4.242-6.636-2.037-6.783-4.18-.02-.65.294-1.196.567-1.553.315.084.714.105 1.113.105 2.583 0 3.97-1.386 3.97-3.675 0-.966-.253-1.764-.736-2.352l1.89-.042c.147-.378.147-.924 0-1.281l-2.856.483zm.21 3.17c0 1.744-.987 2.584-2.478 2.584-1.47 0-2.478-.84-2.478-2.583 0-1.722 1.008-2.562 2.478-2.562 1.491 0 2.478.84 2.478 2.562zm1.155 9.493c0 1.302-1.407 2.205-3.738 2.205-1.91 0-2.835-.882-2.835-2.142 0-.861.483-1.722 1.26-2.268 1.932.65 5.313.063 5.313 2.205zM168.922 261.659s-.273-.105-.777-.105c-.525 0-.777.105-.777.105v1.365s.252.126.777.126c.504 0 .777-.126.777-.126v-1.365zM181.186 259.81h-2.142v-6.488s-.252-.126-.756-.126c-.525 0-.798.126-.798.126v14.868s.273.126.777.126c.546 0 .777-.126.777-.126v-7.077h2.163l4.935 7.077s.357.126.924.126c.61 0 .903-.126.903-.126l-5.48-7.896 4.871-6.972a2.614 2.614 0 0 0-.84-.126c-.357 0-.63.063-.798.126l-4.536 6.489zM191.644 252.67s-.252-.104-.756-.104c-.546 0-.756.105-.756.105v15.54s.21.105.756.105c.504 0 .756-.105.756-.105v-15.54zM195.235 257.774c0 .063-.02.336.105.65.126.295.315.442.357.463 0 0 1.365-.525 2.94-.525 1.722 0 2.478.777 2.478 2.562v1.134a23.945 23.945 0 0 0-2.75-.168c-2.647 0-3.97 1.07-3.97 3.276 0 2.205 1.302 3.36 3.255 3.36 1.68 0 2.94-.672 3.528-1.89l.231 1.575s.231.105.61.105c.42 0 .608-.105.608-.105v-6.91c0-2.792-.798-4.241-3.8-4.241-1.996 0-3.592.714-3.592.714zm5.88 5.376v.84c0 1.89-1.134 3.318-2.982 3.318-1.323 0-2.163-.63-2.163-2.142 0-1.554.861-2.184 2.604-2.184 1.008 0 2.058.126 2.541.168zM207.436 259.097v-1.722s-.23-.105-.756-.105c-.525 0-.756.105-.756.105v10.836s.231.105.756.105.756-.105.756-.105v-7.665c.63-1.26 1.554-2.1 2.52-2.1.567 0 .966.126 1.428.42.42-.336.63-.735.693-1.281-.294-.19-.903-.504-1.806-.504-.86 0-1.953.399-2.835 2.016zM222.367 260.21c0-1.89-1.176-3.15-3.234-3.15-1.47 0-2.667.609-3.486 1.638v-6.027s-.252-.105-.756-.105c-.525 0-.756.105-.756.105v15.54s.231.105.756.105c.504 0 .756-.105.756-.105v-7.98c.63-1.197 1.785-1.911 2.94-1.911 1.512 0 2.268.735 2.268 2.184v7.707s.231.105.756.105c.483 0 .756-.105.756-.105v-8.001zM233.392 263.276s.231-.861.231-2.163c0-2.541-1.407-4.053-3.948-4.053-2.688 0-4.515 1.7-4.515 5.67 0 3.8 1.512 5.796 4.536 5.796 2.247 0 3.402-.924 3.402-.924-.02-.441-.252-.882-.546-1.113 0 0-.966.693-2.562.693-2.037 0-3.108-1.03-3.255-3.906h6.657zm-1.26-2.331c0 .65-.042 1.05-.063 1.197h-5.334c.126-2.73 1.26-3.843 2.94-3.843 1.806 0 2.457 1.218 2.457 2.646zM238.096 253.343s-.294-.105-.86-.105c-.589 0-.862.105-.862.105v1.533s.273.105.861.105c.567 0 .861-.105.861-.105v-1.533zm-.105 4.032s-.252-.105-.756-.105c-.546 0-.756.105-.756.105v10.836s.21.105.756.105c.504 0 .756-.105.756-.105v-10.836zM243.577 258.467h3.003s.105-.231.105-.61c0-.377-.105-.587-.105-.587h-3.003v-2.331c-.546-.042-1.113.063-1.512.336v1.995h-1.638s-.105.189-.105.609c0 .378.105.588.105.588h1.638v6.09c0 2.562.861 3.969 3.34 3.969.692 0 1.26-.105 1.47-.168 0 0 .083-.21.083-.567 0-.378-.126-.63-.126-.63s-.504.105-1.029.105c-1.659 0-2.226-.756-2.226-2.772v-6.027zM255.568 261.659s-.273-.105-.777-.105c-.525 0-.777.105-.777.105v1.365s.252.126.777.126c.504 0 .777-.126.777-.126v-1.365zM264.136 253.196v15.12h5.418c3.003 0 4.473-1.66 4.473-4.158 0-2.541-1.722-3.297-2.289-3.57.525-.315 1.806-1.176 1.806-3.34 0-2.225-1.197-4.052-4.074-4.052h-5.334zm1.554 6.867v-5.607h3.423c2.1 0 2.835 1.113 2.835 2.793 0 1.659-.756 2.814-2.814 2.814h-3.444zm0 6.993v-5.775h3.591c2.142 0 3.13.903 3.13 2.898 0 1.806-.84 2.877-3.13 2.877h-3.59zM284.695 263.276s.231-.861.231-2.163c0-2.541-1.407-4.053-3.948-4.053-2.688 0-4.515 1.7-4.515 5.67 0 3.8 1.512 5.796 4.536 5.796 2.247 0 3.402-.924 3.402-.924-.02-.441-.252-.882-.546-1.113 0 0-.966.693-2.562.693-2.037 0-3.108-1.03-3.255-3.906h6.657zm-1.26-2.331c0 .65-.042 1.05-.063 1.197h-5.334c.126-2.73 1.26-3.843 2.94-3.843 1.806 0 2.457 1.218 2.457 2.646zM293.515 257.564c-.609-.315-1.365-.504-2.268-.504-2.54 0-3.969 1.407-3.969 3.696 0 1.554.651 2.709 1.87 3.276-.442.546-.988 1.407-.988 2.31 0 .546.19.924.483 1.218-.525.336-1.848 1.365-1.848 3.024 0 1.68 1.281 2.982 4.305 2.982 3.402 0 5.25-1.554 5.25-3.507 0-4.242-6.636-2.037-6.783-4.18-.02-.65.294-1.196.567-1.553.315.084.714.105 1.113.105 2.583 0 3.97-1.386 3.97-3.675 0-.966-.253-1.764-.736-2.352l1.89-.042c.147-.378.147-.924 0-1.281l-2.856.483zm.21 3.17c0 1.744-.987 2.584-2.478 2.584-1.47 0-2.478-.84-2.478-2.583 0-1.722 1.008-2.562 2.478-2.562 1.491 0 2.478.84 2.478 2.562zm1.155 9.493c0 1.302-1.407 2.205-3.738 2.205-1.91 0-2.835-.882-2.835-2.142 0-.861.483-1.722 1.26-2.268 1.932.65 5.313.063 5.313 2.205zM306.346 263.276s.231-.861.231-2.163c0-2.541-1.407-4.053-3.948-4.053-2.688 0-4.515 1.7-4.515 5.67 0 3.8 1.512 5.796 4.536 5.796 2.247 0 3.402-.924 3.402-.924-.02-.441-.252-.882-.546-1.113 0 0-.966.693-2.562.693-2.037 0-3.108-1.03-3.255-3.906h6.657zm-1.26-2.331c0 .65-.042 1.05-.063 1.197h-5.334c.126-2.73 1.26-3.843 2.94-3.843 1.806 0 2.457 1.218 2.457 2.646zM311.05 253.343s-.294-.105-.86-.105c-.589 0-.862.105-.862.105v1.533s.273.105.861.105c.567 0 .861-.105.861-.105v-1.533zm-.105 4.032s-.252-.105-.756-.105c-.546 0-.756.105-.756.105v10.836s.21.105.756.105c.504 0 .756-.105.756-.105v-10.836zM313.843 260.252c0 1.995 1.575 2.604 3.045 3.024 1.323.378 2.625.672 2.625 2.058 0 1.302-.987 1.869-2.415 1.869-1.49 0-2.856-.525-2.856-.525-.294.252-.44.693-.42 1.134 0 0 1.26.714 3.36.714 2.562 0 3.843-1.218 3.843-3.234 0-2.163-1.596-2.71-3.087-3.171-1.323-.4-2.625-.735-2.625-1.932s.861-1.848 2.5-1.848c1.238 0 2.246.357 2.246.357.294-.252.441-.714.42-1.113 0 0-.966-.525-2.835-.525-2.562 0-3.8 1.302-3.8 3.192zM325.855 258.467h3.003s.105-.231.105-.61c0-.377-.105-.587-.105-.587h-3.003v-2.331c-.546-.042-1.113.063-1.512.336v1.995h-1.638s-.105.189-.105.609c0 .378.105.588.105.588h1.638v6.09c0 2.562.861 3.969 3.34 3.969.692 0 1.26-.105 1.47-.168 0 0 .083-.21.083-.567 0-.378-.126-.63-.126-.63s-.504.105-1.029.105c-1.659 0-2.226-.756-2.226-2.772v-6.027zM339.148 263.276s.231-.861.231-2.163c0-2.541-1.407-4.053-3.948-4.053-2.688 0-4.515 1.7-4.515 5.67 0 3.8 1.512 5.796 4.536 5.796 2.247 0 3.402-.924 3.402-.924-.02-.441-.252-.882-.546-1.113 0 0-.966.693-2.562.693-2.037 0-3.108-1.03-3.255-3.906h6.657zm-1.26-2.331c0 .65-.042 1.05-.063 1.197h-5.334c.126-2.73 1.26-3.843 2.94-3.843 1.806 0 2.457 1.218 2.457 2.646zM343.684 259.097v-1.722s-.23-.105-.756-.105c-.525 0-.756.105-.756.105v10.836s.231.105.756.105.756-.105.756-.105v-7.665c.63-1.26 1.554-2.1 2.52-2.1.567 0 .966.126 1.428.42.42-.336.63-.735.693-1.281-.294-.19-.903-.504-1.806-.504-.86 0-1.953.399-2.835 2.016zM350.3 265.376c0 1.89 1.175 3.15 3.233 3.15 1.45 0 2.667-.61 3.486-1.638v1.323s.252.105.756.105c.525 0 .756-.105.756-.105v-10.836s-.23-.105-.756-.105c-.504 0-.756.105-.756.105v7.98c-.65 1.218-1.806 1.91-2.919 1.91-1.533 0-2.289-.734-2.289-2.183v-7.707s-.23-.105-.756-.105c-.483 0-.756.105-.756.105v8zM370.123 260.21c0-1.89-1.176-3.15-3.234-3.15-1.47 0-2.667.609-3.486 1.638v-1.323s-.252-.105-.756-.105c-.525 0-.756.105-.756.105v10.836s.231.105.756.105c.504 0 .756-.105.756-.105v-7.98c.63-1.197 1.785-1.911 2.94-1.911 1.512 0 2.268.735 2.268 2.184v7.707s.231.105.756.105c.483 0 .756-.105.756-.105v-8.001zM379.216 257.564c-.609-.315-1.365-.504-2.268-.504-2.54 0-3.969 1.407-3.969 3.696 0 1.554.651 2.709 1.87 3.276-.442.546-.988 1.407-.988 2.31 0 .546.19.924.483 1.218-.525.336-1.848 1.365-1.848 3.024 0 1.68 1.281 2.982 4.305 2.982 3.402 0 5.25-1.554 5.25-3.507 0-4.242-6.636-2.037-6.783-4.18-.02-.65.294-1.196.567-1.553.315.084.714.105 1.113.105 2.583 0 3.97-1.386 3.97-3.675 0-.966-.253-1.764-.736-2.352l1.89-.042c.147-.378.147-.924 0-1.281l-2.856.483zm.21 3.17c0 1.744-.987 2.584-2.478 2.584-1.47 0-2.478-.84-2.478-2.583 0-1.722 1.008-2.562 2.478-2.562 1.491 0 2.478.84 2.478 2.562zm1.155 9.493c0 1.302-1.407 2.205-3.738 2.205-1.91 0-2.835-.882-2.835-2.142 0-.861.483-1.722 1.26-2.268 1.932.65 5.313.063 5.313 2.205z"/></g><g fill="#872054"><path d="M175.97 89.969c-.009-1.074.029-2.409.154-2.674.052.032.092.05.155.827.229 2.665.24 7.903.024 8.224-.236-.339-.351-4.4-.332-6.377M177.059 96.62c-.026-1.795.19-2.836.513-2.53.104.103.189.33.28.545.785 2.634.747 7.81.132 7.375-.435-.293-.883-2.957-.925-5.39M183.107 106.338c-.097-1.754.372-2.76 1.05-2.155.038.032.085.088.113.12 1.34 1.724 1.42 5.923.408 5.885-.664-.027-1.444-1.931-1.571-3.85M187.254 109.692c-.113-1.28.231-2.68 1.185-1.97 1.437 1.36 1.573 5.068.513 5.166-.71.073-1.54-1.485-1.698-3.196M191.797 112.248c-.132-1.124.177-2.408 1.143-1.884 1.457 1.051 1.646 4.34.572 4.536-.702.133-1.543-1.157-1.715-2.652M196.545 114.122c-.148-.996.142-2.175 1.088-1.804 1.472.823 1.694 3.743.632 4.022-.688.178-1.531-.9-1.72-2.218M201.437 115.44c-.172-.962.153-1.857.982-1.627 1.26.545 1.583 2.893.71 3.344-.632.337-1.482-.534-1.692-1.718M206.277 116.272c-.148-.733.082-1.666.907-1.503 1.2.4 1.53 2.451.716 2.91-.591.324-1.409-.389-1.623-1.407M211.129 116.71c-.146-.621.05-1.439.791-1.346 1.093.276 1.404 2.024.678 2.456-.518.328-1.267-.236-1.47-1.11M215.792 116.821c-.125-.509.026-1.201.643-1.171.932.173 1.217 1.63.62 2.04-.436.288-1.07-.156-1.263-.869M220.142 116.668c-.118-.411-.005-.986.506-.983.752.103 1.013 1.292.54 1.643-.354.243-.879-.083-1.046-.66M224.183 116.337c-.09-.333-.01-.795.398-.813.568.053.83.914.48 1.257-.258.271-.73.028-.878-.444M227.935 115.848c-.073-.243-.014-.575.285-.607.41.03.605.657.368.903-.2.203-.53.048-.653-.296M180.05 119.777c-.175-.718-.773-3.096-.606-3.365.062.013.137.12.285.472.881 2.22 2.353 7.942 2.195 8.502-.353-.116-1.382-3.703-1.874-5.61M182.645 124.503c-.534-1.98-.617-3.312-.181-3.1.092.052.214.21.294.305 1.432 2.13 2.706 7.744 1.953 7.481-.467-.168-1.453-2.398-2.066-4.686M186.28 128.13c-.53-1.851-.453-3.12.162-2.834.077.04.181.12.24.173 1.634 1.678 2.737 6.645 1.79 6.562-.594-.055-1.628-1.909-2.193-3.9M190.59 130.817c-.498-1.718-.298-2.905.442-2.564.035.025.099.058.134.075 1.72 1.287 2.67 5.64 1.602 5.695-.636.038-1.649-1.465-2.179-3.206M195.316 132.719c-.389-1.227-.374-2.715.645-2.3 1.618.907 2.544 4.515 1.576 4.926-.638.264-1.72-1.006-2.221-2.626M200.269 133.998c-.377-1.081-.318-2.43.695-2.15 1.594.677 2.426 3.866 1.436 4.328-.63.29-1.667-.768-2.131-2.178M205.349 134.75c-.356-1.043-.195-2.061.676-1.908 1.484.476 2.183 3.17 1.272 3.63-.594.3-1.536-.54-1.948-1.721M210.396 135.072c-.294-.78-.214-1.819.66-1.731 1.295.308 1.98 2.516 1.234 3.088-.54.419-1.51-.266-1.894-1.357M215.434 135.057c-.247-.67-.177-1.57.617-1.548 1.173.198 1.762 2.07 1.079 2.621-.49.39-1.352-.148-1.696-1.073M220.29 134.75c-.216-.541-.158-1.311.507-1.316.998.115 1.502 1.663.916 2.157-.394.341-1.128-.08-1.423-.84M224.81 134.246c-.18-.441-.132-1.066.414-1.108.79.06 1.225 1.33.77 1.738-.339.304-.942-.01-1.184-.63M229.023 133.592c-.15-.339-.108-.836.313-.88.66.017 1.001 1.008.632 1.356-.271.241-.745.008-.945-.476M232.919 132.844c-.092-.246-.069-.622.247-.662.46.005.714.72.445.98-.186.186-.544.03-.692-.318M229.188 34.7c-.798-2.771-4.17-4.43-8.453-2.362-5.278 3.06-4.917 8.584-.723 10.027 4.81 1.64 10.46-3.088 9.176-7.664M212.683 42.337c-.422-2.767-3.118-4.187-6.698-1.656-4.71 3.829-4.595 9.787-.88 10.454 3.796.697 8.25-4.488 7.578-8.798M198.684 51.79c-.167-2.785-2.103-4.07-4.906-1.277-3.874 4.412-3.844 10.644-.817 10.611 2.779-.022 5.989-5.258 5.723-9.334M187.84 62.253c-.016-2.556-1.04-3.48-2.39-2.14-.304.314-.586.72-.786 1.011-2.74 4.546-2.77 10.938-.618 10.323 1.781-.499 3.832-5.486 3.795-9.194M180.584 72.707c.029-2.075-.332-3.103-.904-2.552-.292.264-.523.889-.669 1.215-1.415 3.97-1.53 9.944-.469 9.6.89-.28 1.988-4.759 2.042-8.263"/><path d="M176.908 81.969c.019-1.518-.03-2.431-.137-2.712 0 0-.042-.005-.07-.005-.09.153-.137.374-.238 1.074-.415 3.138-.58 8.459-.276 9.03a.257.257 0 0 1 .078-.017c.323-.765.603-4.874.643-7.37M257.778 51.556c-1.571-4.375-6.355-8.05-11.322-6.362-6.677 3.196-3.67 13.008 3.093 15.469 5.928 2.155 10.475-2.863 8.229-9.107M238.604 57.482c-1.368-4.39-5.789-7.609-10.523-5.188-6.243 4.132-3.686 13.915 2.48 15.621 5.53 1.546 9.963-4.21 8.043-10.433M220.356 65.979c-1.142-4.235-4.899-7.04-8.94-4.17-5.58 4.935-2.937 14.749 2.664 15.245 4.446.392 7.795-5.504 6.276-11.075M204.765 76.07c-.98-4.068-4.013-6.547-7.162-3.486-4.482 5.386-1.653 15.067 2.866 14.517 3.377-.399 5.542-5.973 4.296-11.03M192.636 86.845c-.876-3.785-3.15-6.015-5.302-3.005-2.95 5.108-.553 14.069 2.612 13.446 2.4-.469 3.757-5.732 2.69-10.44M184.445 97.284c-.768-3.372-2.15-4.95-3.093-3.542-.12.175-.228.444-.318.632-1.514 4.613.78 12.927 2.647 11.946 1.27-.667 1.64-5.143.764-9.036M180.226 106.24c-.657-2.863-1.462-4.443-1.874-3.678-.085.176-.127.494-.163.698-.365 4.044 1.595 11.56 2.504 10.892.584-.424.367-4.35-.467-7.912M179.02 113.743c-.284-1.181-.786-3.218-1.029-3.607 0 0-.02.017-.044.017-.005.148 0 .221.05.635.418 2.862 1.947 9.28 2.317 9.673.148-.378-.827-4.771-1.293-6.718M246.758 29.784c-1.008-2.27-4.673-4.807-9.67-3.362-5.24 2.005-4.586 6.942-.274 9.034 5.252 2.564 11.508-.62 10.127-5.15a6.125 6.125 0 0 0-.183-.522"/></g><g fill="#4a2233"><path d="M275.967 122.034c.004 1.066-.038 2.409-.149 2.677-.056-.038-.085-.06-.165-.823-.223-2.674-.23-7.897-.023-8.236.24.339.355 4.4.337 6.382M274.869 115.381c.03 1.8-.181 2.835-.509 2.534-.108-.103-.198-.331-.275-.552-.785-2.629-.747-7.81-.113-7.385.417.3.864 2.97.897 5.403M268.837 105.66c.102 1.759-.376 2.772-1.055 2.16-.037-.032-.077-.093-.113-.118-1.335-1.728-1.42-5.923-.407-5.885.669.025 1.434 1.922 1.575 3.843M264.69 102.309c.113 1.28-.236 2.672-1.194 1.974-1.432-1.36-1.569-5.072-.497-5.168.7-.075 1.533 1.483 1.691 3.194M260.137 99.752c.146 1.132-.176 2.406-1.128 1.884-1.467-1.046-1.653-4.327-.574-4.53.69-.133 1.53 1.151 1.702 2.646M255.404 97.881c.153.996-.154 2.175-1.103 1.801-1.448-.818-1.677-3.74-.621-4.019.687-.175 1.526.898 1.724 2.218M250.507 96.564c.167.97-.158 1.861-.987 1.626-1.264-.545-1.573-2.895-.713-3.344.63-.342 1.49.536 1.7 1.718M245.66 95.731c.149.733-.082 1.668-.904 1.505-1.192-.396-1.517-2.458-.714-2.907.6-.329 1.406.374 1.618 1.402M240.816 95.295c.148.62-.043 1.437-.792 1.344-1.093-.276-1.413-2.027-.673-2.46.523-.324 1.262.238 1.465 1.116M236.14 95.18c.142.513-.014 1.203-.628 1.173-.94-.175-1.23-1.635-.617-2.034.43-.304 1.064.143 1.246.86M231.795 95.33c.123.419.014.99-.497.983-.746-.095-1.017-1.29-.534-1.638.348-.243.873.08 1.031.655M227.758 95.67c.1.33.02.791-.388.799-.577-.045-.831-.898-.49-1.245.27-.273.725-.037.878.447M224.007 96.155c.073.238.023.575-.276.597-.424-.017-.607-.64-.372-.903.188-.196.54-.035.648.306M271.88 92.227c.18.717.766 3.103.617 3.361-.06-.015-.127-.11-.275-.471-.888-2.216-2.36-7.938-2.202-8.51.339.126 1.382 3.726 1.86 5.62M269.294 87.49c.535 1.987.608 3.314.177 3.106-.087-.045-.22-.203-.3-.296-1.426-2.142-2.691-7.76-1.942-7.48.473.16 1.453 2.397 2.065 4.67M265.66 83.875c.53 1.844.443 3.121-.153 2.835-.094-.045-.186-.12-.254-.176-1.635-1.675-2.723-6.645-1.776-6.557.575.045 1.627 1.906 2.183 3.898M261.346 81.186c.515 1.718.301 2.908-.443 2.564-.04-.025-.087-.058-.13-.08-1.714-1.287-2.659-5.63-1.61-5.688.635-.042 1.657 1.455 2.183 3.204M256.633 79.282c.381 1.237.372 2.714-.652 2.305-1.623-.91-2.537-4.52-1.56-4.93.613-.268 1.694 1.01 2.212 2.625M251.68 78.008c.358 1.078.313 2.425-.704 2.142-1.595-.677-2.417-3.866-1.437-4.32.627-.293 1.663.765 2.141 2.178M246.588 77.25c.36 1.036.2 2.062-.68 1.904-1.468-.472-2.186-3.166-1.256-3.633.589-.293 1.529.547 1.936 1.729M241.548 76.929c.29.783.21 1.819-.655 1.733-1.304-.31-1.985-2.516-1.234-3.09.535-.422 1.5.268 1.889 1.357M236.506 76.949c.261.662.176 1.563-.608 1.535-1.168-.198-1.766-2.06-1.088-2.611.485-.392 1.352.148 1.696 1.076M231.652 77.25c.216.55.157 1.307-.511 1.314-.99-.112-1.5-1.66-.917-2.152.413-.344 1.143.078 1.428.838M227.134 77.757c.18.439.123 1.063-.414 1.106-.79-.058-1.218-1.327-.766-1.734.342-.298.935.01 1.18.628M222.926 78.411c.136.334.108.843-.323.883-.66-.022-.996-1.008-.617-1.36.28-.25.735-.01.94.477M219.016 79.156c.101.254.078.625-.23.665-.467-.005-.721-.725-.453-.98.196-.191.535-.028.683.315M222.758 177.29c.787 2.792 4.167 4.438 8.453 2.375 5.266-3.063 4.92-8.584.716-10.014-4.811-1.646-10.469 3.068-9.169 7.639M239.256 169.663c.436 2.768 3.112 4.182 6.696 1.666 4.71-3.835 4.59-9.794.876-10.466-3.784-.69-8.224 4.496-7.572 8.8M253.253 160.213c.177 2.78 2.108 4.07 4.92 1.277 3.87-4.412 3.832-10.646.796-10.611-2.767.022-5.977 5.258-5.716 9.334M264.099 149.75c.026 2.554 1.046 3.474 2.386 2.132.315-.308.581-.705.79-1.006 2.745-4.553 2.766-10.937.623-10.325-1.786.501-3.827 5.486-3.8 9.199M271.36 139.289c-.043 2.074.332 3.11.892 2.554.29-.259.533-.881.66-1.212 1.43-3.969 1.538-9.947.473-9.603-.89.283-1.983 4.761-2.025 8.26"/><path d="M275.034 130.037c-.024 1.515.016 2.426.127 2.71 0 0 .047.002.07 0 .09-.156.137-.375.24-1.07.413-3.14.578-8.459.279-9.03a.16.16 0 0 1-.078.02c-.332.767-.598 4.869-.638 7.37M194.169 160.45c1.56 4.372 6.33 8.05 11.321 6.361 6.67-3.198 3.644-13.01-3.1-15.478-5.922-2.138-10.456 2.872-8.221 9.116M213.354 154.521c1.36 4.388 5.763 7.607 10.516 5.188 6.239-4.14 3.681-13.915-2.48-15.634-5.54-1.53-9.97 4.222-8.036 10.446M231.6 146.024c1.14 4.243 4.887 7.04 8.924 4.167 5.581-4.93 2.941-14.74-2.655-15.232-4.446-.397-7.8 5.496-6.27 11.065M247.167 135.932c.994 4.06 4.025 6.545 7.167 3.487 4.496-5.38 1.658-15.074-2.857-14.52-3.377.402-5.55 5.97-4.31 11.033M259.313 125.16c.876 3.783 3.135 6.016 5.283 3.005 2.95-5.11.572-14.063-2.603-13.446-2.4.462-3.754 5.737-2.68 10.441M267.495 114.722c.763 3.366 2.146 4.944 3.092 3.537.111-.173.233-.444.314-.63 1.507-4.606-.78-12.93-2.655-11.941-1.253.657-1.622 5.138-.751 9.034M271.704 105.756c.664 2.87 1.465 4.453 1.872 3.682.09-.18.144-.494.167-.695.365-4.038-1.582-11.562-2.492-10.897-.593.431-.372 4.347.453 7.91M272.907 98.257c.295 1.182.796 3.219 1.036 3.608.015-.005.024-.008.033-.02.02-.14.015-.216-.04-.63-.419-2.862-1.957-9.284-2.296-9.67-.167.373.8 4.76 1.267 6.712M205.198 182.212c.999 2.273 4.659 4.816 9.661 3.361 5.24-1.987 4.574-6.939.28-9.03-5.256-2.557-11.51.626-10.148 5.165.054.15.137.35.207.504"/></g></g></svg>